<svg width="75" height="75" viewBox="0 0 75 75" fill="none" xmlns="http://www.w3.org/2000/svg">
<path fill-rule="evenodd" clip-rule="evenodd" d="M37.5 75C16.7893 75 0 58.2107 0 37.5C0 16.7893 16.7893 0 37.5 0C58.2107 0 75 16.7893 75 37.5C75 58.2107 58.2107 75 37.5 75Z" fill="#C5B8FF"/>
<mask id="mask0" mask-type="alpha" maskUnits="userSpaceOnUse" x="0" y="0" width="75" height="75">
<path fill-rule="evenodd" clip-rule="evenodd" d="M37.5 75C16.7893 75 0 58.2107 0 37.5C0 16.7893 16.7893 0 37.5 0C58.2107 0 75 16.7893 75 37.5C75 58.2107 58.2107 75 37.5 75Z" fill="white"/>
</mask>
<g mask="url(#mask0)">
<path fill-rule="evenodd" clip-rule="evenodd" d="M45.25 43.4999C45.25 43.4999 45.25 43.4999 45.25 46.4999C45.25 50.4999 51 52.2499 51 52.2499C51 52.2499 44.375 57.2499 37.5 57.2499C30.625 57.2499 24 52.2499 24 52.2499C24 52.2499 29.7952 50.4999 29.75 46.4999C29.7048 42.4999 29.735 40.1503 29.7048 33.2969C26.1218 28.6527 26.3517 25.5357 28.3109 23.3437C34.875 15.9999 52.75 18.4999 52.75 18.4999C52.75 18.4999 54.418 36.4981 50.625 41.7499C49 43.9999 45.25 43.4999 45.25 43.4999Z" fill="url(#paint0_linear)"/>
<g style="mix-blend-mode:multiply" opacity="0.6">
<path fill-rule="evenodd" clip-rule="evenodd" d="M45.25 43.5C39.75 42.875 36.5 40.5 36.5 40.5C36.5 40.5 39.25 45.125 45.25 46.5V43.5Z" fill="url(#paint1_linear)"/>
</g>
<path d="M63.75 59.827C66.1301 64.6662 67.5 75.827 67.5 75.827H7.5C7.5 75.827 8.8706 64.6649 11.25 59.827C13.6294 54.989 27.5248 50.5017 27.5248 50.5017C30.2032 56.0012 44.9019 56.0006 47.4677 50.5C47.4677 50.5 61.3699 54.9878 63.75 59.827Z" fill="url(#paint2_linear)"/>
<path fill-rule="evenodd" clip-rule="evenodd" d="M37.5 60.5C38.0523 60.5 38.5 60.0523 38.5 59.5C38.5 58.9477 38.0523 58.5 37.5 58.5C36.9477 58.5 36.5 58.9477 36.5 59.5C36.5 60.0523 36.9477 60.5 37.5 60.5ZM37.5 65.5C38.0523 65.5 38.5 65.0523 38.5 64.5C38.5 63.9477 38.0523 63.5 37.5 63.5C36.9477 63.5 36.5 63.9477 36.5 64.5C36.5 65.0523 36.9477 65.5 37.5 65.5ZM38.5 69.5C38.5 70.0523 38.0523 70.5 37.5 70.5C36.9477 70.5 36.5 70.0523 36.5 69.5C36.5 68.9477 36.9477 68.5 37.5 68.5C38.0523 68.5 38.5 68.9477 38.5 69.5Z" fill="white"/>
<path d="M32.7887 25.8022C31.9936 25.1194 31.0277 24.6597 29.6622 25.3692C26.4249 27.0512 28.875 33.5 31.75 33.5C32.5002 33.5 32.8731 35.8556 29.5336 37.5009C29.5336 34.8759 25.5336 28.3759 25.1848 22.4577C21.1586 20.959 22.1586 14.9623 24.923 14.9623C24.4809 9.46442 33.2836 6.62585 36.6921 9.77984C40.1586 5.62585 48.9086 7.75085 49.4371 11.3546C55.4536 8.14265 59.4086 17.3759 53.7749 20.959C51.4568 22.4334 46.0336 22.9953 38.2055 22.9953C37.0239 22.9953 36.3619 23.2887 36.6921 24.75C37.3321 27.5814 35.8467 29.365 32.7887 25.8022Z" fill="url(#paint3_linear)"/>
</g>
<defs>
<linearGradient id="paint0_linear" x1="24" y1="17.865" x2="24" y2="57.2499" gradientUnits="userSpaceOnUse">
<stop stop-color="#E6864E"/>
<stop offset="1" stop-color="#EB965E"/>
</linearGradient>
<linearGradient id="paint1_linear" x1="39.65" y1="40.5891" x2="38.1205" y2="46.3918" gradientUnits="userSpaceOnUse">
<stop stop-color="#E07A3F"/>
<stop offset="1" stop-color="#EB9154"/>
</linearGradient>
<linearGradient id="paint2_linear" x1="7.5" y1="50.5" x2="7.5" y2="75.827" gradientUnits="userSpaceOnUse">
<stop stop-color="#1D0024"/>
<stop offset="1" stop-color="#100014"/>
</linearGradient>
<linearGradient id="paint3_linear" x1="22.5" y1="7.5" x2="22.5" y2="37.5009" gradientUnits="userSpaceOnUse">
<stop stop-color="#1D0024"/>
<stop offset="1" stop-color="#100014"/>
</linearGradient>
</defs>
</svg>
