<svg width="65" height="137" viewBox="0 0 65 137" fill="none" xmlns="http://www.w3.org/2000/svg">
<path fill-rule="evenodd" clip-rule="evenodd" d="M16 130H16.1029H16.1029C23.4928 130 29.1749 130 33.6998 129.59C38.2731 129.175 41.8603 128.329 45 126.517C48.9525 124.235 52.2347 120.952 54.5167 117C56.3294 113.86 57.1754 110.273 57.5899 105.7C58 101.175 58 95.4928 58 88.1029V88.1028V88V48.2756V7.82843L61.5858 11.4142C62.3668 12.1953 63.6332 12.1953 64.4142 11.4142C65.1953 10.6332 65.1953 9.36684 64.4142 8.58578L56.4142 0.585785C55.6332 -0.195267 54.3668 -0.195267 53.5858 0.585785L45.5858 8.58578C44.8047 9.36684 44.8047 10.6332 45.5858 11.4142C46.3668 12.1953 47.6332 12.1953 48.4142 11.4142L54 5.82843V48.2756V88C54 95.5137 53.9981 101.015 53.6062 105.339C53.2169 109.635 52.4552 112.571 51.0526 115C49.1217 118.344 46.3444 121.122 43 123.053C40.5705 124.455 37.6346 125.217 33.3387 125.606C29.0153 125.998 23.5137 126 16 126V130Z" fill="#0383EF"/>
<circle cx="9" cy="128" r="7" transform="rotate(-180 9 128)" stroke="#0383EF" stroke-width="4" stroke-linecap="round" stroke-linejoin="round"/>
</svg>
