<svg width="8" height="15" viewBox="0 0 8 15" fill="none" xmlns="http://www.w3.org/2000/svg">
<path d="M0.21582 9.56494H1.93701C1.93701 10.2534 2.12744 10.7832 2.5083 11.1543C2.88916 11.5254 3.37988 11.7109 3.98047 11.7109C4.21973 11.7109 4.44434 11.6743 4.6543 11.6011C4.86426 11.5229 5.04736 11.4155 5.20361 11.2788C5.35986 11.1372 5.48193 10.9688 5.56982 10.7734C5.65771 10.5781 5.70166 10.3608 5.70166 10.1216C5.70166 9.85303 5.64795 9.62842 5.54053 9.44775C5.43799 9.26709 5.30371 9.11816 5.1377 9.00098C4.97656 8.87891 4.79834 8.77881 4.60303 8.70068C4.40771 8.61768 4.21973 8.54688 4.03906 8.48828C3.56055 8.31738 3.11133 8.14404 2.69141 7.96826C2.27148 7.79248 1.90283 7.58252 1.58545 7.33838C1.27295 7.09424 1.02637 6.79639 0.845703 6.44482C0.665039 6.09326 0.574707 5.65381 0.574707 5.12646C0.574707 4.75537 0.638184 4.41602 0.765137 4.1084C0.896973 3.7959 1.0752 3.52002 1.2998 3.28076C1.52441 3.0415 1.78809 2.84131 2.09082 2.68018C2.39844 2.51904 2.72803 2.4043 3.07959 2.33594V0.702637H4.61035V2.32129C4.98145 2.39941 5.3208 2.53125 5.62842 2.7168C5.94092 2.90234 6.21191 3.13672 6.44141 3.41992C6.6709 3.69824 6.84912 4.01562 6.97607 4.37207C7.10791 4.72363 7.17383 5.10938 7.17383 5.5293H5.45264C5.45264 5.01172 5.30371 4.59424 5.00586 4.27686C4.71289 3.95459 4.33691 3.79346 3.87793 3.79346C3.44824 3.79346 3.07715 3.90332 2.76465 4.12305C2.45703 4.34277 2.30322 4.67725 2.30322 5.12646C2.30322 5.33643 2.34473 5.52441 2.42773 5.69043C2.51074 5.85156 2.62549 5.99316 2.77197 6.11523C2.91846 6.2373 3.07959 6.34229 3.25537 6.43018C3.43604 6.51807 3.62646 6.59863 3.82666 6.67188C4.23682 6.82324 4.6543 6.98193 5.0791 7.14795C5.50879 7.30908 5.89697 7.51172 6.24365 7.75586C6.59521 8 6.88086 8.29785 7.10059 8.64941C7.32031 9.00098 7.43018 9.42578 7.43018 9.92383C7.43018 10.3926 7.35693 10.8149 7.21045 11.1909C7.06885 11.5669 6.86865 11.894 6.60986 12.1724C6.35596 12.4458 6.05811 12.668 5.71631 12.8389C5.37939 13.0049 5.01074 13.1245 4.61035 13.1978V14.8018H3.07959V13.1831C2.6792 13.1147 2.30566 12.9829 1.95898 12.7876C1.61719 12.5874 1.31445 12.3359 1.05078 12.0332C0.791992 11.7256 0.586914 11.3643 0.435547 10.9492C0.289062 10.5342 0.21582 10.0728 0.21582 9.56494Z" fill="black"/>
</svg>
