<svg width="25" height="25" viewBox="0 0 25 25" fill="none" xmlns="http://www.w3.org/2000/svg">
<path d="M16.9194 6.60771L6.60742 16.9197C6.20062 17.3265 6.20062 17.986 6.60742 18.3928C7.01422 18.7996 7.67376 18.7996 8.08056 18.3928L18.3925 8.08085C18.7993 7.67405 18.7993 7.0145 18.3925 6.60771C17.9857 6.20091 17.3262 6.20091 16.9194 6.60771Z" fill="#0A92EF"/>
<path opacity="0.3" d="M18.3925 16.9196L8.08056 6.60766C7.67377 6.20087 7.01422 6.20087 6.60742 6.60766C6.20063 7.01446 6.20063 7.67401 6.60742 8.0808L16.9194 18.3928C17.3262 18.7996 17.9857 18.7996 18.3925 18.3928C18.7993 17.986 18.7993 17.3264 18.3925 16.9196Z" fill="#0A92EF"/>
</svg>
