<svg width="48" height="48" viewBox="0 0 48 48" fill="none" xmlns="http://www.w3.org/2000/svg">
<g clip-path="url(#clip0)">
<path d="M34.0541 8.5C34.0686 8.50001 34.0825 8.49438 34.093 8.48431C34.1034 8.47424 34.1095 8.4605 34.1101 8.446V7.834C34.1159 6.55984 33.6162 5.33537 32.7205 4.42916C31.8248 3.52295 30.6062 3.00899 29.3321 3H4.77806C4.1467 3.00288 3.52211 3.13029 2.94006 3.37493C2.35801 3.61957 1.82995 3.97663 1.38611 4.42567C0.942273 4.87471 0.591385 5.4069 0.353544 5.99176C0.115702 6.57661 -0.00441901 7.20265 5.97466e-05 7.834V8.446C5.97466e-05 8.46032 0.00574902 8.47406 0.015876 8.48418C0.0260029 8.49431 0.0397381 8.5 0.0540597 8.5H34.0541Z" fill="#EFC66A"/>
<path d="M33.6341 13.024C33.7623 13.0173 33.8831 12.9618 33.9716 12.8688C34.0602 12.7758 34.1097 12.6524 34.1101 12.524V11.554C34.1095 11.5395 34.1034 11.5258 34.093 11.5157C34.0825 11.5056 34.0686 11.5 34.0541 11.5H0.0540597C0.0469684 11.5 0.0399464 11.5014 0.0333948 11.5041C0.0268433 11.5068 0.0208903 11.5108 0.015876 11.5158C0.0108616 11.5208 0.00688401 11.5268 0.00417025 11.5333C0.0014565 11.5399 5.97466e-05 11.5469 5.97466e-05 11.554V23.166C-0.00441901 23.7974 0.115702 24.4234 0.353544 25.0082C0.591385 25.5931 0.942273 26.1253 1.38611 26.5743C1.82995 27.0234 2.35801 27.3804 2.94006 27.6251C3.52211 27.8697 4.1467 27.9971 4.77806 28H15.9781C16.0933 28 16.2051 27.9602 16.2943 27.8873C16.3836 27.8144 16.445 27.7129 16.4681 27.6C17.327 23.6202 19.4746 20.0349 22.5781 17.3996C25.6816 14.7644 29.5677 13.2264 33.6341 13.024ZM6.66606 16.5H12.3321C12.7299 16.5 13.1114 16.658 13.3927 16.9393C13.674 17.2206 13.8321 17.6022 13.8321 18C13.8321 18.3978 13.674 18.7794 13.3927 19.0607C13.1114 19.342 12.7299 19.5 12.3321 19.5H6.66606C6.26823 19.5 5.8867 19.342 5.6054 19.0607C5.3241 18.7794 5.16606 18.3978 5.16606 18C5.16606 17.6022 5.3241 17.2206 5.6054 16.9393C5.8867 16.658 6.26823 16.5 6.66606 16.5Z" fill="#EFC66A"/>
<path d="M34.5 18C31.83 18 29.2199 18.7918 26.9998 20.2752C24.7797 21.7586 23.0494 23.867 22.0276 26.3338C21.0058 28.8006 20.7385 31.515 21.2594 34.1337C21.7803 36.7525 23.0661 39.1579 24.9541 41.0459C26.8421 42.934 29.2475 44.2197 31.8663 44.7406C34.485 45.2615 37.1994 44.9942 39.6662 43.9724C42.133 42.9506 44.2414 41.2203 45.7248 39.0002C47.2082 36.7801 48 34.17 48 31.5C47.9958 27.9209 46.5721 24.4896 44.0413 21.9587C41.5104 19.4279 38.0791 18.0042 34.5 18ZM34.5 22C36.1051 21.9984 37.6841 22.4059 39.088 23.184C39.1553 23.2216 39.213 23.2741 39.2567 23.3376C39.3004 23.4011 39.3289 23.4737 39.34 23.55C39.3512 23.6269 39.3442 23.7053 39.3195 23.7789C39.2948 23.8526 39.2532 23.9194 39.198 23.974L26.974 36.2C26.9192 36.2566 26.8519 36.2994 26.7774 36.325C26.703 36.3506 26.6235 36.3582 26.5455 36.3473C26.4676 36.3364 26.3933 36.3072 26.3287 36.2621C26.2642 36.2171 26.2111 36.1574 26.174 36.088C25.3753 34.6411 24.968 33.0109 24.9923 31.3584C25.0166 29.7059 25.4717 28.0883 26.3125 26.6655C27.1534 25.2428 28.3509 24.064 29.7869 23.2458C31.2228 22.4275 32.8473 21.9981 34.5 22ZM34.5 41C32.8955 41.0018 31.3171 40.5943 29.914 39.816C29.8461 39.7788 29.7877 39.7263 29.7436 39.6626C29.6995 39.5989 29.6709 39.5258 29.6601 39.4491C29.6492 39.3724 29.6563 39.2942 29.681 39.2207C29.7056 39.1473 29.7471 39.0806 29.802 39.026L42.026 26.8C42.0813 26.7458 42.1482 26.7049 42.2217 26.6803C42.2951 26.6557 42.3732 26.6481 42.45 26.658C42.5268 26.6692 42.5999 26.6979 42.6637 26.742C42.7275 26.786 42.7803 26.8442 42.818 26.912C43.6164 28.3583 44.0237 29.9878 43.9997 31.6396C43.9758 33.2915 43.5214 34.9085 42.6815 36.331C41.8416 37.7536 40.6452 38.9324 39.2104 39.7513C37.7756 40.5701 36.152 41.0005 34.5 41Z" fill="#0A92EF"/>
</g>
<defs>
<clipPath id="clip0">
<rect width="48" height="48" fill="white"/>
</clipPath>
</defs>
</svg>
