<svg width="30" height="22" viewBox="0 0 30 22" fill="none" xmlns="http://www.w3.org/2000/svg">
<path fill-rule="evenodd" clip-rule="evenodd" d="M30 10.1383C29.458 10.0473 28.9012 10 28.3333 10C22.8105 10 18.3333 14.4772 18.3333 20C18.3333 20.5679 18.3807 21.1247 18.4716 21.6667H3.33333C1.49238 21.6667 0 20.1743 0 18.3333V3.33333C0 1.49238 1.49238 0 3.33333 0H26.6667C28.5076 0 30 1.49238 30 3.33333V10.1383ZM25.2407 3.06608L15 8.58031L4.75929 3.06608C4.15145 2.73878 3.39338 2.9662 3.06608 3.57404C2.73878 4.18188 2.9662 4.93996 3.57404 5.26726L14.4074 11.1006C14.7773 11.2998 15.2227 11.2998 15.5926 11.1006L26.426 5.26726C27.0338 4.93996 27.2612 4.18188 26.9339 3.57404C26.6066 2.9662 25.8485 2.73878 25.2407 3.06608Z" fill="#1CE777"/>
</svg>
