<svg width="9" height="11" viewBox="0 0 9 11" fill="none" xmlns="http://www.w3.org/2000/svg">
<path d="M0.644531 6.27588V4.73047H1.6626C1.6626 4.4082 1.66016 4.11768 1.65527 3.85889C1.65039 3.6001 1.64795 3.38037 1.64795 3.19971C1.64795 2.77002 1.73828 2.37939 1.91895 2.02783C2.09961 1.67139 2.33887 1.36621 2.63672 1.1123C2.93945 0.853516 3.29102 0.658203 3.69141 0.526367C4.0918 0.389648 4.51172 0.321289 4.95117 0.321289C5.42969 0.321289 5.86914 0.401855 6.26953 0.562988C6.66992 0.719238 7.0166 0.943848 7.30957 1.23682C7.60742 1.5249 7.83691 1.86914 7.99805 2.26953C8.16406 2.66992 8.24707 3.11426 8.24707 3.60254H6.52588C6.52588 3.08496 6.39893 2.66748 6.14502 2.3501C5.896 2.02783 5.47363 1.8667 4.87793 1.8667C4.43848 1.8667 4.07715 1.97656 3.79395 2.19629C3.51562 2.41602 3.37646 2.75049 3.37646 3.19971C3.37646 3.34131 3.37891 3.54639 3.38379 3.81494C3.38867 4.0835 3.39111 4.38867 3.39111 4.73047H5.53711V6.27588H3.39111C3.38135 6.63721 3.36914 6.99609 3.35449 7.35254C3.33984 7.7041 3.31299 8.02637 3.27393 8.31934C3.23975 8.60742 3.1958 8.85156 3.14209 9.05176C3.08838 9.25195 3.02002 9.38623 2.93701 9.45459H7.41211V11H0.98877V9.72559C1.11084 9.62793 1.21094 9.46191 1.28906 9.22754C1.37207 8.98828 1.44043 8.71484 1.49414 8.40723C1.54785 8.09473 1.58691 7.75781 1.61133 7.39648C1.63574 7.03027 1.65283 6.65674 1.6626 6.27588H0.644531Z" fill="black"/>
</svg>
