<svg width="75" height="75" viewBox="0 0 75 75" fill="none" xmlns="http://www.w3.org/2000/svg">
<path d="M37.5 75C58.2107 75 75 58.2107 75 37.5C75 16.7893 58.2107 0 37.5 0C16.7893 0 0 16.7893 0 37.5C0 58.2107 16.7893 75 37.5 75Z" fill="#CFD6E2"/>
<mask id="mask0" mask-type="alpha" maskUnits="userSpaceOnUse" x="0" y="0" width="75" height="75">
<path d="M37.5 75C58.2107 75 75 58.2107 75 37.5C75 16.7893 58.2107 0 37.5 0C16.7893 0 0 16.7893 0 37.5C0 58.2107 16.7893 75 37.5 75Z" fill="white"/>
</mask>
<g mask="url(#mask0)">
<path d="M40.2161 12.4262C39.2161 8.05124 43.9578 4.69397 48.8411 6.99867C60.3411 12.4262 53.6679 20.5512 49.5429 19.6762C45.4179 18.8012 41.2161 16.8012 40.2161 12.4262Z" fill="url(#paint0_linear)"/>
<path d="M42.9999 40C37.6291 42.5802 36.8456 42.442 24.9999 32.75C7.12493 18.125 23.9999 4.75003 42.1249 11.875C61.7499 20.5 55.175 34.1512 42.9999 40Z" fill="url(#paint1_linear)"/>
<path fill-rule="evenodd" clip-rule="evenodd" d="M43.5 50.25C41.6667 54.25 39.3334 56.25 37.5 56.25C35.6667 56.25 33.3334 54.25 31.5 50.25V45.25C31.5 45.25 30.6844 45.274 30.125 45.25C24.2777 44.9994 22.3237 35.5933 23.2413 26.1844C23.9133 19.294 29.75 28.75 39.25 22.125C38.875 29.375 42 28.625 43.375 27.75C49.625 24.875 49.75 36.625 43.5728 35.7145C43.5753 35.8395 43.5511 40.6847 43.5 50.25Z" fill="url(#paint2_linear)"/>
<path d="M31.5 45.25C33.75 45.0833 36.5528 43.8249 39.9084 41.4749C38.8802 45.016 36.0774 47.1077 31.5 47.75L31.5 45.25Z" fill="#FF9768"/>
<path fill-rule="evenodd" clip-rule="evenodd" d="M29.433 51.7042C29.433 51.7042 29.8103 49.1001 30.6948 48.8769C31.5793 48.6538 36.7487 48.6269 36.7534 49.6269C36.7542 49.8105 36.9313 51.7778 37.5208 51.7778C38.1104 51.7778 38.2619 49.8104 38.2628 49.6269C38.2675 48.6269 43.4069 48.6656 44.3214 48.8769C45.2359 49.0883 45.5794 51.7075 45.5794 51.7075C45.5794 51.7075 59.0787 58.0643 60.5 60.7778C61.7222 63.1111 62.6389 68.5278 63.25 77.0278H11.75C12.3611 68.5278 13.2778 63.1111 14.5 60.7778C15.9207 58.0655 29.433 51.7042 29.433 51.7042Z" fill="#1CE777"/>
<path fill-rule="evenodd" clip-rule="evenodd" d="M37.5 59.75C38.0523 59.75 38.5 59.3023 38.5 58.75C38.5 58.1977 38.0523 57.75 37.5 57.75C36.9477 57.75 36.5 58.1977 36.5 58.75C36.5 59.3023 36.9477 59.75 37.5 59.75ZM37.5 64.75C38.0523 64.75 38.5 64.3023 38.5 63.75C38.5 63.1977 38.0523 62.75 37.5 62.75C36.9477 62.75 36.5 63.1977 36.5 63.75C36.5 64.3023 36.9477 64.75 37.5 64.75ZM38.5 68.75C38.5 69.3023 38.0523 69.75 37.5 69.75C36.9477 69.75 36.5 69.3023 36.5 68.75C36.5 68.1977 36.9477 67.75 37.5 67.75C38.0523 67.75 38.5 68.1977 38.5 68.75Z" fill="#1CE777"/>
<path d="M40.1475 19.857C36.1475 29.857 38.3975 34.732 41.5225 40.607C44.6475 46.482 40.7725 51.982 40.7725 51.982C40.7725 51.982 45.2725 49.107 45.2725 42.732C45.2725 36.357 40.7725 32.357 44.5225 27.107C48.2725 21.857 44.1475 9.85695 40.1475 19.857Z" fill="url(#paint3_linear)"/>
</g>
<defs>
<linearGradient id="paint0_linear" x1="55.25" y1="6.25" x2="55.25" y2="19.7415" gradientUnits="userSpaceOnUse">
<stop stop-color="#1D0024"/>
<stop offset="1" stop-color="#100014"/>
</linearGradient>
<linearGradient id="paint1_linear" x1="17.3904" y1="9.90186" x2="17.3904" y2="41.4209" gradientUnits="userSpaceOnUse">
<stop stop-color="#1D0024"/>
<stop offset="1" stop-color="#100014"/>
</linearGradient>
<linearGradient id="paint2_linear" x1="23.0254" y1="22.125" x2="23.0254" y2="56.25" gradientUnits="userSpaceOnUse">
<stop stop-color="#F7B186"/>
<stop offset="1" stop-color="#FFC299"/>
</linearGradient>
<linearGradient id="paint3_linear" x1="45.9961" y1="16" x2="45.9961" y2="51.982" gradientUnits="userSpaceOnUse">
<stop stop-color="#1D0024"/>
<stop offset="1" stop-color="#100014"/>
</linearGradient>
</defs>
</svg>
