<svg width="24" height="24" viewBox="0 0 24 24" fill="none" xmlns="http://www.w3.org/2000/svg">
<path opacity="0.3" d="M19 8C19 7.44772 18.5523 7 18 7C17.4477 7 17 7.44772 17 8L17 18C17 18.5523 17.4477 19 18 19C18.5523 19 19 18.5523 19 18L19 8Z" fill="#1CE777"/>
<path d="M15.7071 9.70711C15.3166 10.0976 14.6834 10.0976 14.2929 9.70711C13.9024 9.31658 13.9024 8.68342 14.2929 8.29289L17.2929 5.29289C17.6834 4.90237 18.3166 4.90237 18.7071 5.29289L21.7071 8.29289C22.0976 8.68342 22.0976 9.31658 21.7071 9.70711C21.3166 10.0976 20.6834 10.0976 20.2929 9.70711L18 7.41421L15.7071 9.70711Z" fill="#1CE777"/>
<path opacity="0.3" d="M7 16C7 16.5523 6.55228 17 6 17C5.44772 17 5 16.5523 5 16L5 6C5 5.44771 5.44772 5 6 5C6.55228 5 7 5.44771 7 6L7 16Z" fill="#1CE777"/>
<path d="M3.70711 14.2929C3.31658 13.9024 2.68342 13.9024 2.29289 14.2929C1.90237 14.6834 1.90237 15.3166 2.29289 15.7071L5.29289 18.7071C5.68342 19.0976 6.31658 19.0976 6.70711 18.7071L9.70711 15.7071C10.0976 15.3166 10.0976 14.6834 9.70711 14.2929C9.31658 13.9024 8.68342 13.9024 8.29289 14.2929L6 16.5858L3.70711 14.2929Z" fill="#1CE777"/>
</svg>
