<svg width="1202" height="332" viewBox="0 0 1202 332" fill="none" xmlns="http://www.w3.org/2000/svg">
<g filter="url(#filter0_d)">
<rect x="440" y="97" width="322" height="85" rx="15" fill="white"/>
<rect x="440.25" y="97.25" width="321.5" height="84.5" rx="14.75" stroke="#E8E8E8" stroke-width="0.5"/>
</g>
<path opacity="0.3" d="M543.347 147.502V145.094C543.347 144.902 543.417 144.717 543.544 144.572C543.832 144.244 544.333 144.212 544.662 144.5L549.311 148.574C549.338 148.597 549.362 148.622 549.386 148.648C549.673 148.977 549.639 149.477 549.309 149.764L544.66 153.813C544.516 153.938 544.331 154.007 544.139 154.007C543.702 154.007 543.347 153.653 543.347 153.217V150.665H540.884C537.951 150.665 535.182 149.313 533.381 147.002L527.049 138.874C525.848 137.333 524.002 136.432 522.047 136.432H518V133.269H522.047C524.98 133.269 527.749 134.621 529.55 136.932L535.882 145.06C537.083 146.601 538.929 147.502 540.884 147.502H543.347Z" fill="#1CE777"/>
<path d="M543.347 133.271V130.846C543.347 130.653 543.417 130.466 543.544 130.321C543.832 129.99 544.333 129.957 544.662 130.247L549.311 134.35C549.338 134.373 549.362 134.398 549.386 134.425C549.673 134.756 549.639 135.259 549.309 135.548L544.66 139.625C544.516 139.752 544.331 139.821 544.139 139.821C543.702 139.821 543.347 139.465 543.347 139.025V136.455H540.884C538.929 136.455 537.083 137.363 535.882 138.915L529.55 147.099C527.749 149.427 524.98 150.788 522.047 150.788H518V147.603H522.047C524.002 147.603 525.848 146.695 527.049 145.144L533.381 136.959C535.182 134.632 537.951 133.271 540.884 133.271H543.347Z" fill="#1CE777"/>
<path d="M556.115 138.623V135.055H558.488V130.568H563.266V135.055H566.711V138.623H563.266V144.029C563.266 144.591 563.317 145.04 563.419 145.377C563.521 145.703 563.664 145.964 563.848 146.158C564.042 146.342 564.271 146.464 564.537 146.525C564.813 146.576 565.119 146.602 565.456 146.602C565.66 146.602 565.92 146.597 566.237 146.587C566.553 146.566 566.829 146.535 567.064 146.495V150.17C566.706 150.231 566.257 150.287 565.716 150.338C565.185 150.389 564.557 150.415 563.832 150.415C563.271 150.415 562.679 150.374 562.056 150.292C561.433 150.211 560.857 149.996 560.326 149.649C559.795 149.302 559.356 148.771 559.009 148.057C558.662 147.332 558.488 146.342 558.488 145.086V138.623H556.115Z" fill="black"/>
<path d="M568.053 150.17V135.055H572.846V137.505C573.203 136.791 573.795 136.163 574.622 135.622C575.449 135.07 576.419 134.795 577.531 134.795C578.052 134.795 578.512 134.882 578.91 135.055V139.42C578.573 139.338 578.287 139.282 578.052 139.251C577.828 139.21 577.567 139.19 577.271 139.19C575.913 139.19 574.836 139.573 574.04 140.338C573.244 141.104 572.846 142.416 572.846 144.274V150.17H568.053Z" fill="black"/>
<path d="M577.801 142.605C577.801 141.523 577.99 140.502 578.368 139.542C578.756 138.582 579.312 137.74 580.037 137.015C580.762 136.29 581.639 135.714 582.671 135.285C583.702 134.856 584.876 134.642 586.193 134.642C587.509 134.642 588.683 134.856 589.715 135.285C590.756 135.714 591.634 136.29 592.348 137.015C593.073 137.74 593.624 138.582 594.002 139.542C594.38 140.502 594.569 141.523 594.569 142.605C594.569 143.687 594.38 144.713 594.002 145.683C593.624 146.643 593.073 147.485 592.348 148.21C591.634 148.935 590.756 149.511 589.715 149.94C588.683 150.369 587.509 150.583 586.193 150.583C584.876 150.583 583.702 150.369 582.671 149.94C581.639 149.511 580.762 148.935 580.037 148.21C579.312 147.485 578.756 146.643 578.368 145.683C577.99 144.723 577.801 143.697 577.801 142.605ZM582.594 142.605C582.594 143.146 582.676 143.651 582.839 144.121C583.013 144.58 583.252 144.989 583.559 145.346C583.875 145.693 584.253 145.969 584.692 146.173C585.131 146.367 585.621 146.464 586.162 146.464C586.703 146.464 587.198 146.367 587.647 146.173C588.107 145.969 588.489 145.693 588.796 145.346C589.112 144.989 589.357 144.58 589.531 144.121C589.715 143.662 589.806 143.156 589.806 142.605C589.806 142.084 589.715 141.589 589.531 141.119C589.357 140.65 589.112 140.241 588.796 139.894C588.489 139.547 588.112 139.272 587.663 139.067C587.213 138.863 586.713 138.761 586.162 138.761C585.621 138.761 585.131 138.863 584.692 139.067C584.253 139.272 583.875 139.547 583.559 139.894C583.252 140.241 583.013 140.65 582.839 141.119C582.676 141.589 582.594 142.084 582.594 142.605Z" fill="black"/>
<path d="M596.033 157V135.055H600.826V137.214C601.203 136.52 601.811 135.923 602.648 135.423C603.485 134.922 604.501 134.672 605.695 134.672C606.696 134.672 607.63 134.876 608.497 135.285C609.365 135.693 610.121 136.25 610.764 136.954C611.417 137.648 611.928 138.485 612.295 139.466C612.663 140.435 612.846 141.482 612.846 142.605C612.846 143.738 612.663 144.79 612.295 145.76C611.928 146.729 611.417 147.567 610.764 148.271C610.121 148.975 609.365 149.532 608.497 149.94C607.63 150.349 606.696 150.553 605.695 150.553C604.501 150.553 603.485 150.303 602.648 149.802C601.811 149.292 601.203 148.695 600.826 148.011V157H596.033ZM600.826 142.605C600.826 143.126 600.912 143.626 601.086 144.106C601.27 144.575 601.52 144.984 601.836 145.331C602.153 145.668 602.53 145.943 602.969 146.158C603.408 146.362 603.898 146.464 604.439 146.464C604.981 146.464 605.471 146.362 605.91 146.158C606.348 145.943 606.726 145.668 607.043 145.331C607.359 144.984 607.604 144.575 607.778 144.106C607.961 143.636 608.053 143.136 608.053 142.605C608.053 142.084 607.961 141.589 607.778 141.119C607.604 140.65 607.359 140.241 607.043 139.894C606.726 139.547 606.348 139.272 605.91 139.067C605.471 138.863 604.981 138.761 604.439 138.761C603.898 138.761 603.408 138.863 602.969 139.067C602.53 139.272 602.153 139.547 601.836 139.894C601.52 140.241 601.27 140.65 601.086 141.119C600.912 141.589 600.826 142.084 600.826 142.605Z" fill="black"/>
<path d="M613.468 142.605C613.468 141.492 613.636 140.456 613.973 139.496C614.32 138.536 614.831 137.699 615.505 136.985C616.189 136.26 617.021 135.688 618.001 135.27C618.991 134.851 620.124 134.642 621.4 134.642C622.615 134.642 623.707 134.831 624.677 135.208C625.647 135.586 626.469 136.107 627.143 136.77C627.826 137.424 628.352 138.205 628.72 139.113C629.087 140.022 629.271 141.002 629.271 142.054C629.271 142.35 629.261 142.605 629.24 142.819C629.22 143.034 629.179 143.35 629.118 143.769H618.292C618.292 144.228 618.348 144.662 618.46 145.07C618.583 145.479 618.766 145.836 619.011 146.142C619.267 146.449 619.603 146.689 620.022 146.862C620.441 147.036 620.951 147.123 621.553 147.123C622.411 147.123 623.054 146.959 623.483 146.632C623.911 146.296 624.208 145.887 624.371 145.407H629.087C628.965 146.122 628.704 146.791 628.306 147.413C627.918 148.036 627.413 148.582 626.79 149.052C626.168 149.522 625.422 149.894 624.555 150.17C623.687 150.446 622.707 150.583 621.615 150.583C620.298 150.583 619.129 150.379 618.108 149.971C617.097 149.563 616.245 148.996 615.551 148.271C614.867 147.546 614.346 146.699 613.989 145.729C613.642 144.759 613.468 143.718 613.468 142.605ZM618.292 141.012H624.57C624.57 140.093 624.279 139.369 623.697 138.838C623.125 138.297 622.37 138.026 621.431 138.026C620.532 138.026 619.782 138.286 619.18 138.807C618.588 139.318 618.292 140.053 618.292 141.012Z" fill="black"/>
<path d="M630.965 150.17V135.055H635.758V137.505C636.115 136.791 636.707 136.163 637.534 135.622C638.361 135.07 639.331 134.795 640.443 134.795C640.964 134.795 641.423 134.882 641.822 135.055V139.42C641.485 139.338 641.199 139.282 640.964 139.251C640.739 139.21 640.479 139.19 640.183 139.19C638.825 139.19 637.748 139.573 636.952 140.338C636.156 141.104 635.758 142.416 635.758 144.274V150.17H630.965Z" fill="black"/>
<path d="M642.351 130.032C642.351 129.175 642.642 128.455 643.224 127.873C643.816 127.291 644.551 127 645.429 127C645.868 127 646.271 127.077 646.639 127.23C647.017 127.383 647.348 127.597 647.634 127.873C647.92 128.138 648.14 128.46 648.293 128.838C648.446 129.215 648.522 129.614 648.522 130.032C648.522 130.451 648.446 130.844 648.293 131.211C648.14 131.579 647.92 131.906 647.634 132.191C647.348 132.467 647.017 132.687 646.639 132.85C646.271 133.003 645.868 133.08 645.429 133.08C644.99 133.08 644.587 133.003 644.22 132.85C643.852 132.687 643.525 132.467 643.24 132.191C642.964 131.906 642.744 131.579 642.581 131.211C642.428 130.844 642.351 130.451 642.351 130.032ZM643.04 150.17V135.055H647.833V150.17H643.04Z" fill="black"/>
<path d="M649.986 142.605C649.986 141.472 650.165 140.42 650.522 139.45C650.89 138.48 651.395 137.648 652.038 136.954C652.692 136.25 653.452 135.693 654.32 135.285C655.188 134.876 656.127 134.672 657.138 134.672C658.271 134.672 659.251 134.912 660.078 135.392C660.915 135.872 661.543 136.479 661.961 137.214V135.055H666.754V150.17H661.961V148.041C661.583 148.736 660.976 149.328 660.139 149.818C659.302 150.308 658.301 150.553 657.138 150.553C656.137 150.553 655.198 150.349 654.32 149.94C653.452 149.532 652.692 148.975 652.038 148.271C651.395 147.567 650.89 146.729 650.522 145.76C650.165 144.79 649.986 143.738 649.986 142.605ZM654.749 142.605C654.749 143.126 654.836 143.626 655.009 144.106C655.193 144.575 655.438 144.984 655.744 145.331C656.061 145.668 656.438 145.943 656.877 146.158C657.316 146.362 657.806 146.464 658.347 146.464C658.888 146.464 659.378 146.362 659.817 146.158C660.267 145.943 660.644 145.668 660.951 145.331C661.267 144.984 661.512 144.575 661.686 144.106C661.869 143.636 661.961 143.136 661.961 142.605C661.961 142.084 661.869 141.594 661.686 141.135C661.512 140.675 661.267 140.267 660.951 139.91C660.644 139.552 660.272 139.272 659.833 139.067C659.394 138.863 658.899 138.761 658.347 138.761C657.806 138.761 657.316 138.863 656.877 139.067C656.438 139.272 656.061 139.552 655.744 139.91C655.438 140.267 655.193 140.675 655.009 141.135C654.836 141.594 654.749 142.084 654.749 142.605Z" fill="black"/>
<path d="M669.259 150.17V128.21H674.052V150.17H669.259Z" fill="black"/>
<path d="M676.098 147.322C676.098 146.883 676.18 146.474 676.343 146.096C676.517 145.719 676.741 145.392 677.017 145.116C677.303 144.831 677.64 144.606 678.028 144.443C678.415 144.269 678.829 144.182 679.268 144.182C679.707 144.182 680.12 144.269 680.508 144.443C680.896 144.606 681.228 144.831 681.504 145.116C681.789 145.392 682.014 145.719 682.177 146.096C682.351 146.474 682.438 146.883 682.438 147.322C682.438 147.761 682.351 148.169 682.177 148.547C682.014 148.914 681.789 149.241 681.504 149.527C681.228 149.813 680.896 150.037 680.508 150.201C680.12 150.364 679.707 150.446 679.268 150.446C678.829 150.446 678.415 150.364 678.028 150.201C677.64 150.037 677.303 149.813 677.017 149.527C676.741 149.241 676.517 148.914 676.343 148.547C676.18 148.169 676.098 147.761 676.098 147.322Z" fill="black"/>
<g filter="url(#filter1_d)">
<rect x="16" y="12" width="300" height="300" rx="15" fill="white"/>
<rect x="16.25" y="12.25" width="299.5" height="299.5" rx="14.75" stroke="#E8E8E8" stroke-width="0.5"/>
</g>
<path fill-rule="evenodd" clip-rule="evenodd" d="M83.5 147C62.7893 147 46 130.211 46 109.5C46 88.7893 62.7893 72 83.5 72C104.211 72 121 88.7893 121 109.5C121 130.211 104.211 147 83.5 147Z" fill="#C5B8FF"/>
<mask id="mask0" mask-type="alpha" maskUnits="userSpaceOnUse" x="46" y="72" width="75" height="75">
<path fill-rule="evenodd" clip-rule="evenodd" d="M83.5 147C62.7893 147 46 130.211 46 109.5C46 88.7893 62.7893 72 83.5 72C104.211 72 121 88.7893 121 109.5C121 130.211 104.211 147 83.5 147Z" fill="white"/>
</mask>
<g mask="url(#mask0)">
<path fill-rule="evenodd" clip-rule="evenodd" d="M91.25 115.5C91.25 115.5 91.25 115.5 91.25 118.5C91.25 122.5 97 124.25 97 124.25C97 124.25 90.375 129.25 83.5 129.25C76.625 129.25 70 124.25 70 124.25C70 124.25 75.7952 122.5 75.75 118.5C75.7048 114.5 75.735 112.15 75.7048 105.297C72.1218 100.653 72.3517 97.5357 74.3109 95.3437C80.875 87.9999 98.75 90.4999 98.75 90.4999C98.75 90.4999 100.418 108.498 96.625 113.75C95 116 91.25 115.5 91.25 115.5Z" fill="url(#paint0_linear)"/>
<g style="mix-blend-mode:multiply" opacity="0.6">
<path fill-rule="evenodd" clip-rule="evenodd" d="M91.25 115.5C85.75 114.875 82.5 112.5 82.5 112.5C82.5 112.5 85.25 117.125 91.25 118.5V115.5Z" fill="url(#paint1_linear)"/>
</g>
<path d="M109.75 131.827C112.13 136.666 113.5 147.827 113.5 147.827H53.5C53.5 147.827 54.8706 136.665 57.25 131.827C59.6294 126.989 73.5248 122.502 73.5248 122.502C76.2032 128.001 90.9019 128.001 93.4677 122.5C93.4677 122.5 107.37 126.988 109.75 131.827Z" fill="url(#paint2_linear)"/>
<path fill-rule="evenodd" clip-rule="evenodd" d="M83.5 132.5C84.0523 132.5 84.5 132.052 84.5 131.5C84.5 130.948 84.0523 130.5 83.5 130.5C82.9477 130.5 82.5 130.948 82.5 131.5C82.5 132.052 82.9477 132.5 83.5 132.5ZM83.5 137.5C84.0523 137.5 84.5 137.052 84.5 136.5C84.5 135.948 84.0523 135.5 83.5 135.5C82.9477 135.5 82.5 135.948 82.5 136.5C82.5 137.052 82.9477 137.5 83.5 137.5ZM84.5 141.5C84.5 142.052 84.0523 142.5 83.5 142.5C82.9477 142.5 82.5 142.052 82.5 141.5C82.5 140.948 82.9477 140.5 83.5 140.5C84.0523 140.5 84.5 140.948 84.5 141.5Z" fill="white"/>
<path d="M78.7887 97.8022C77.9936 97.1194 77.0277 96.6597 75.6622 97.3692C72.4249 99.0512 74.875 105.5 77.75 105.5C78.5002 105.5 78.8731 107.856 75.5336 109.501C75.5336 106.876 71.5336 100.376 71.1848 94.4577C67.1586 92.959 68.1586 86.9623 70.923 86.9623C70.4809 81.4644 79.2836 78.6259 82.6921 81.7798C86.1586 77.6259 94.9086 79.7509 95.4371 83.3546C101.454 80.1426 105.409 89.3759 99.7749 92.959C97.4568 94.4334 92.0336 94.9953 84.2055 94.9953C83.0239 94.9953 82.3619 95.2887 82.6921 96.75C83.3321 99.5814 81.8467 101.365 78.7887 97.8022Z" fill="url(#paint3_linear)"/>
</g>
<path d="M47.4648 193V178.996H49.8379V193H47.4648ZM57.7578 193V178.996H59.9355V184.982C60.2285 184.475 60.6354 184.09 61.1562 183.83C61.6771 183.57 62.2826 183.439 62.9727 183.439C63.6497 183.439 64.2194 183.553 64.6816 183.781C65.1439 184.009 65.5085 184.315 65.7754 184.699C66.0033 185.044 66.1595 185.432 66.2441 185.861C66.3288 186.285 66.3711 186.818 66.3711 187.463V193H64.1934V188.176C64.1934 187.779 64.1576 187.408 64.0859 187.062C64.0208 186.711 63.9102 186.415 63.7539 186.174C63.6042 185.926 63.3991 185.731 63.1387 185.588C62.8848 185.438 62.5625 185.363 62.1719 185.363C61.4102 185.363 60.847 185.633 60.4824 186.174C60.1178 186.714 59.9355 187.382 59.9355 188.176V193H57.7578ZM68.4414 188.342C68.4414 187.691 68.5586 187.069 68.793 186.477C69.0273 185.878 69.3529 185.354 69.7695 184.904C70.1927 184.449 70.6973 184.09 71.2832 183.83C71.8691 183.57 72.5137 183.439 73.2168 183.439C73.7637 183.439 74.3073 183.573 74.8477 183.84C75.388 184.107 75.8047 184.475 76.0977 184.943V183.684H78.2754V193H76.0977V191.74C75.8047 192.209 75.388 192.577 74.8477 192.844C74.3073 193.111 73.7637 193.244 73.2168 193.244C72.5072 193.244 71.8594 193.114 71.2734 192.854C70.694 192.593 70.1927 192.235 69.7695 191.779C69.3529 191.324 69.0273 190.803 68.793 190.217C68.5586 189.631 68.4414 189.006 68.4414 188.342ZM70.6191 188.342C70.6191 188.739 70.681 189.12 70.8047 189.484C70.9349 189.842 71.1204 190.155 71.3613 190.422C71.6022 190.689 71.8887 190.904 72.2207 191.066C72.5592 191.223 72.9336 191.301 73.3438 191.301C73.7539 191.301 74.1283 191.223 74.4668 191.066C74.8118 190.904 75.1016 190.689 75.3359 190.422C75.5768 190.155 75.7624 189.842 75.8926 189.484C76.0293 189.12 76.0977 188.739 76.0977 188.342C76.0977 187.945 76.0293 187.567 75.8926 187.209C75.7624 186.844 75.5768 186.529 75.3359 186.262C75.1016 185.995 74.8118 185.783 74.4668 185.627C74.1283 185.464 73.7539 185.383 73.3438 185.383C72.9336 185.383 72.5592 185.464 72.2207 185.627C71.8887 185.783 71.6022 185.995 71.3613 186.262C71.1204 186.529 70.9349 186.841 70.8047 187.199C70.681 187.557 70.6191 187.938 70.6191 188.342ZM79.75 183.684H82.0938L84.6523 189.885L87.25 183.684H89.5938L85.375 193H83.9102L79.75 183.684ZM89.9062 188.342C89.9062 187.652 90.0072 187.007 90.209 186.408C90.4173 185.803 90.7135 185.282 91.0977 184.846C91.4883 184.403 91.9701 184.058 92.543 183.811C93.1159 183.563 93.7702 183.439 94.5059 183.439C95.1048 183.439 95.668 183.547 96.1953 183.762C96.7227 183.977 97.1816 184.273 97.5723 184.65C97.9694 185.028 98.2754 185.471 98.4902 185.979C98.7116 186.486 98.8223 187.04 98.8223 187.639C98.8223 187.801 98.819 187.993 98.8125 188.215C98.806 188.43 98.7767 188.69 98.7246 188.996H92.123C92.123 189.328 92.1686 189.644 92.2598 189.943C92.3574 190.236 92.5007 190.493 92.6895 190.715C92.8848 190.93 93.1354 191.102 93.4414 191.232C93.7539 191.356 94.1283 191.418 94.5645 191.418C94.8704 191.418 95.1341 191.385 95.3555 191.32C95.5768 191.255 95.7624 191.171 95.9121 191.066C96.0684 190.956 96.1953 190.826 96.293 190.676C96.3971 190.52 96.4818 190.36 96.5469 190.197H98.7441C98.666 190.594 98.5163 190.979 98.2949 191.35C98.0736 191.714 97.7871 192.036 97.4355 192.316C97.084 192.596 96.6673 192.821 96.1855 192.99C95.7038 193.16 95.1634 193.244 94.5645 193.244C93.7767 193.244 93.0931 193.107 92.5137 192.834C91.9342 192.561 91.4492 192.196 91.0586 191.74C90.6745 191.285 90.3848 190.764 90.1895 190.178C90.0007 189.592 89.9062 188.98 89.9062 188.342ZM92.1426 187.385H96.7031C96.7031 186.734 96.4915 186.216 96.0684 185.832C95.6517 185.448 95.1113 185.256 94.4473 185.256C93.8092 185.256 93.2656 185.438 92.8164 185.803C92.3672 186.161 92.1426 186.688 92.1426 187.385ZM106.352 188.42H108.646C108.646 189.338 108.9 190.044 109.408 190.539C109.916 191.034 110.57 191.281 111.371 191.281C111.69 191.281 111.99 191.232 112.27 191.135C112.549 191.031 112.794 190.887 113.002 190.705C113.21 190.516 113.373 190.292 113.49 190.031C113.607 189.771 113.666 189.481 113.666 189.162C113.666 188.804 113.594 188.505 113.451 188.264C113.314 188.023 113.135 187.824 112.914 187.668C112.699 187.505 112.462 187.372 112.201 187.268C111.941 187.157 111.69 187.062 111.449 186.984C110.811 186.757 110.212 186.525 109.652 186.291C109.092 186.057 108.601 185.777 108.178 185.451C107.761 185.126 107.432 184.729 107.191 184.26C106.951 183.791 106.83 183.205 106.83 182.502C106.83 182.007 106.915 181.555 107.084 181.145C107.26 180.728 107.497 180.36 107.797 180.041C108.096 179.722 108.448 179.455 108.852 179.24C109.262 179.025 109.701 178.872 110.17 178.781V176.604H112.211V178.762C112.706 178.866 113.158 179.042 113.568 179.289C113.985 179.536 114.346 179.849 114.652 180.227C114.958 180.598 115.196 181.021 115.365 181.496C115.541 181.965 115.629 182.479 115.629 183.039H113.334C113.334 182.349 113.135 181.792 112.738 181.369C112.348 180.939 111.846 180.725 111.234 180.725C110.661 180.725 110.167 180.871 109.75 181.164C109.34 181.457 109.135 181.903 109.135 182.502C109.135 182.782 109.19 183.033 109.301 183.254C109.411 183.469 109.564 183.658 109.76 183.82C109.955 183.983 110.17 184.123 110.404 184.24C110.645 184.357 110.899 184.465 111.166 184.562C111.713 184.764 112.27 184.976 112.836 185.197C113.409 185.412 113.926 185.682 114.389 186.008C114.857 186.333 115.238 186.73 115.531 187.199C115.824 187.668 115.971 188.234 115.971 188.898C115.971 189.523 115.873 190.087 115.678 190.588C115.489 191.089 115.222 191.525 114.877 191.896C114.538 192.261 114.141 192.557 113.686 192.785C113.236 193.007 112.745 193.166 112.211 193.264V195.402H110.17V193.244C109.636 193.153 109.138 192.977 108.676 192.717C108.22 192.45 107.816 192.115 107.465 191.711C107.12 191.301 106.846 190.819 106.645 190.266C106.449 189.712 106.352 189.097 106.352 188.42ZM118.158 183.137V181.32C118.796 181.32 119.317 181.278 119.721 181.193C120.124 181.102 120.437 180.969 120.658 180.793C120.886 180.611 121.039 180.373 121.117 180.08C121.202 179.787 121.244 179.426 121.244 178.996H123.422V193H121.039V183.137H118.158ZM126.088 191.516C126.088 191.06 126.244 190.679 126.557 190.373C126.869 190.061 127.247 189.904 127.689 189.904C128.236 189.904 128.676 190.093 129.008 190.471C129.34 190.848 129.506 191.346 129.506 191.965C129.506 192.577 129.428 193.094 129.271 193.518C129.122 193.947 128.904 194.296 128.617 194.562C128.331 194.829 127.979 195.021 127.562 195.139C127.152 195.262 126.687 195.324 126.166 195.324V194.299C126.511 194.299 126.801 194.263 127.035 194.191C127.27 194.12 127.468 194.022 127.631 193.898C127.781 193.768 127.891 193.625 127.963 193.469C128.035 193.319 128.083 193.163 128.109 193C128.083 193.026 128.028 193.052 127.943 193.078C127.865 193.104 127.781 193.117 127.689 193.117C127.195 193.117 126.804 192.961 126.518 192.648C126.231 192.336 126.088 191.958 126.088 191.516ZM131.43 188.342V183.664C131.43 183.013 131.547 182.391 131.781 181.799C132.016 181.2 132.344 180.676 132.768 180.227C133.197 179.771 133.712 179.413 134.311 179.152C134.91 178.892 135.583 178.762 136.332 178.762C137.081 178.762 137.758 178.892 138.363 179.152C138.969 179.413 139.486 179.771 139.916 180.227C140.352 180.676 140.688 181.197 140.922 181.789C141.156 182.382 141.273 183.007 141.273 183.664V188.342C141.273 189.006 141.156 189.631 140.922 190.217C140.688 190.803 140.352 191.324 139.916 191.779C139.486 192.235 138.969 192.593 138.363 192.854C137.758 193.114 137.081 193.244 136.332 193.244C135.583 193.244 134.91 193.114 134.311 192.854C133.712 192.593 133.197 192.235 132.768 191.779C132.344 191.324 132.016 190.803 131.781 190.217C131.547 189.631 131.43 189.006 131.43 188.342ZM133.734 188.342C133.734 188.726 133.793 189.09 133.91 189.436C134.027 189.774 134.2 190.074 134.428 190.334C134.656 190.594 134.929 190.803 135.248 190.959C135.567 191.109 135.928 191.184 136.332 191.184C136.729 191.184 137.09 191.109 137.416 190.959C137.748 190.803 138.025 190.594 138.246 190.334C138.474 190.074 138.65 189.774 138.773 189.436C138.904 189.09 138.969 188.726 138.969 188.342V183.664C138.969 183.28 138.904 182.919 138.773 182.58C138.65 182.235 138.474 181.932 138.246 181.672C138.025 181.411 137.748 181.206 137.416 181.057C137.09 180.9 136.729 180.822 136.332 180.822C135.935 180.822 135.574 180.9 135.248 181.057C134.929 181.206 134.656 181.411 134.428 181.672C134.2 181.932 134.027 182.232 133.91 182.57C133.793 182.909 133.734 183.273 133.734 183.664V188.342ZM143.031 188.342V183.664C143.031 183.013 143.148 182.391 143.383 181.799C143.617 181.2 143.946 180.676 144.369 180.227C144.799 179.771 145.313 179.413 145.912 179.152C146.511 178.892 147.185 178.762 147.934 178.762C148.682 178.762 149.359 178.892 149.965 179.152C150.57 179.413 151.088 179.771 151.518 180.227C151.954 180.676 152.289 181.197 152.523 181.789C152.758 182.382 152.875 183.007 152.875 183.664V188.342C152.875 189.006 152.758 189.631 152.523 190.217C152.289 190.803 151.954 191.324 151.518 191.779C151.088 192.235 150.57 192.593 149.965 192.854C149.359 193.114 148.682 193.244 147.934 193.244C147.185 193.244 146.511 193.114 145.912 192.854C145.313 192.593 144.799 192.235 144.369 191.779C143.946 191.324 143.617 190.803 143.383 190.217C143.148 189.631 143.031 189.006 143.031 188.342ZM145.336 188.342C145.336 188.726 145.395 189.09 145.512 189.436C145.629 189.774 145.801 190.074 146.029 190.334C146.257 190.594 146.531 190.803 146.85 190.959C147.169 191.109 147.53 191.184 147.934 191.184C148.331 191.184 148.692 191.109 149.018 190.959C149.35 190.803 149.626 190.594 149.848 190.334C150.076 190.074 150.251 189.774 150.375 189.436C150.505 189.09 150.57 188.726 150.57 188.342V183.664C150.57 183.28 150.505 182.919 150.375 182.58C150.251 182.235 150.076 181.932 149.848 181.672C149.626 181.411 149.35 181.206 149.018 181.057C148.692 180.9 148.331 180.822 147.934 180.822C147.536 180.822 147.175 180.9 146.85 181.057C146.531 181.206 146.257 181.411 146.029 181.672C145.801 181.932 145.629 182.232 145.512 182.57C145.395 182.909 145.336 183.273 145.336 183.664V188.342ZM154.633 188.342V183.664C154.633 183.013 154.75 182.391 154.984 181.799C155.219 181.2 155.548 180.676 155.971 180.227C156.4 179.771 156.915 179.413 157.514 179.152C158.113 178.892 158.786 178.762 159.535 178.762C160.284 178.762 160.961 178.892 161.566 179.152C162.172 179.413 162.689 179.771 163.119 180.227C163.555 180.676 163.891 181.197 164.125 181.789C164.359 182.382 164.477 183.007 164.477 183.664V188.342C164.477 189.006 164.359 189.631 164.125 190.217C163.891 190.803 163.555 191.324 163.119 191.779C162.689 192.235 162.172 192.593 161.566 192.854C160.961 193.114 160.284 193.244 159.535 193.244C158.786 193.244 158.113 193.114 157.514 192.854C156.915 192.593 156.4 192.235 155.971 191.779C155.548 191.324 155.219 190.803 154.984 190.217C154.75 189.631 154.633 189.006 154.633 188.342ZM156.938 188.342C156.938 188.726 156.996 189.09 157.113 189.436C157.23 189.774 157.403 190.074 157.631 190.334C157.859 190.594 158.132 190.803 158.451 190.959C158.77 191.109 159.132 191.184 159.535 191.184C159.932 191.184 160.294 191.109 160.619 190.959C160.951 190.803 161.228 190.594 161.449 190.334C161.677 190.074 161.853 189.774 161.977 189.436C162.107 189.09 162.172 188.726 162.172 188.342V183.664C162.172 183.28 162.107 182.919 161.977 182.58C161.853 182.235 161.677 181.932 161.449 181.672C161.228 181.411 160.951 181.206 160.619 181.057C160.294 180.9 159.932 180.822 159.535 180.822C159.138 180.822 158.777 180.9 158.451 181.057C158.132 181.206 157.859 181.411 157.631 181.672C157.403 181.932 157.23 182.232 157.113 182.57C156.996 182.909 156.938 183.273 156.938 183.664V188.342ZM176.732 180.275C176.732 179.82 176.889 179.439 177.201 179.133C177.52 178.82 177.898 178.664 178.334 178.664C178.79 178.664 179.174 178.82 179.486 179.133C179.799 179.445 179.955 179.826 179.955 180.275C179.955 180.718 179.799 181.096 179.486 181.408C179.174 181.721 178.79 181.877 178.334 181.877C177.891 181.877 177.514 181.721 177.201 181.408C176.889 181.096 176.732 180.718 176.732 180.275ZM177.26 193V183.684H179.438V193H177.26ZM182.797 193V183.684H184.975V184.982C185.268 184.475 185.674 184.09 186.195 183.83C186.716 183.57 187.322 183.439 188.012 183.439C188.689 183.439 189.258 183.553 189.721 183.781C190.183 184.009 190.548 184.315 190.814 184.699C191.042 185.044 191.199 185.432 191.283 185.861C191.368 186.285 191.41 186.818 191.41 187.463V193H189.232V188.176C189.232 187.779 189.197 187.408 189.125 187.062C189.06 186.711 188.949 186.415 188.793 186.174C188.643 185.926 188.438 185.731 188.178 185.588C187.924 185.438 187.602 185.363 187.211 185.363C186.449 185.363 185.886 185.633 185.521 186.174C185.157 186.714 184.975 187.382 184.975 188.176V193H182.797ZM198.48 188.342C198.48 187.691 198.598 187.069 198.832 186.477C199.066 185.878 199.392 185.354 199.809 184.904C200.232 184.449 200.736 184.09 201.322 183.83C201.908 183.57 202.553 183.439 203.256 183.439C203.803 183.439 204.346 183.573 204.887 183.84C205.427 184.107 205.844 184.475 206.137 184.943V178.996H208.314V193H206.137V191.74C205.844 192.209 205.427 192.577 204.887 192.844C204.346 193.111 203.803 193.244 203.256 193.244C202.546 193.244 201.898 193.114 201.312 192.854C200.733 192.593 200.232 192.235 199.809 191.779C199.392 191.324 199.066 190.803 198.832 190.217C198.598 189.631 198.48 189.006 198.48 188.342ZM200.658 188.342C200.658 188.739 200.72 189.12 200.844 189.484C200.974 189.842 201.16 190.155 201.4 190.422C201.641 190.689 201.928 190.904 202.26 191.066C202.598 191.223 202.973 191.301 203.383 191.301C203.793 191.301 204.167 191.223 204.506 191.066C204.851 190.904 205.141 190.689 205.375 190.422C205.616 190.155 205.801 189.842 205.932 189.484C206.068 189.12 206.137 188.739 206.137 188.342C206.137 187.945 206.068 187.567 205.932 187.209C205.801 186.844 205.616 186.529 205.375 186.262C205.141 185.995 204.851 185.783 204.506 185.627C204.167 185.464 203.793 185.383 203.383 185.383C202.973 185.383 202.598 185.464 202.26 185.627C201.928 185.783 201.641 185.995 201.4 186.262C201.16 186.529 200.974 186.841 200.844 187.199C200.72 187.557 200.658 187.938 200.658 188.342ZM210.531 188.342C210.531 187.691 210.648 187.069 210.883 186.477C211.117 185.878 211.446 185.354 211.869 184.904C212.299 184.449 212.813 184.09 213.412 183.83C214.011 183.57 214.685 183.439 215.434 183.439C216.182 183.439 216.859 183.57 217.465 183.83C218.07 184.09 218.588 184.449 219.018 184.904C219.454 185.354 219.786 185.874 220.014 186.467C220.248 187.059 220.365 187.684 220.365 188.342C220.365 189.006 220.248 189.631 220.014 190.217C219.786 190.803 219.454 191.324 219.018 191.779C218.588 192.235 218.07 192.593 217.465 192.854C216.859 193.114 216.182 193.244 215.434 193.244C214.685 193.244 214.011 193.114 213.412 192.854C212.813 192.593 212.299 192.235 211.869 191.779C211.446 191.324 211.117 190.803 210.883 190.217C210.648 189.631 210.531 189.006 210.531 188.342ZM212.709 188.342C212.709 188.739 212.771 189.12 212.895 189.484C213.025 189.842 213.21 190.155 213.451 190.422C213.692 190.689 213.979 190.904 214.311 191.066C214.649 191.223 215.023 191.301 215.434 191.301C215.844 191.301 216.218 191.223 216.557 191.066C216.902 190.904 217.191 190.689 217.426 190.422C217.667 190.155 217.852 189.842 217.982 189.484C218.119 189.12 218.188 188.739 218.188 188.342C218.188 187.945 218.119 187.567 217.982 187.209C217.852 186.844 217.667 186.529 217.426 186.262C217.191 185.995 216.902 185.783 216.557 185.627C216.218 185.464 215.844 185.383 215.434 185.383C215.023 185.383 214.649 185.464 214.311 185.627C213.979 185.783 213.692 185.995 213.451 186.262C213.21 186.529 213.025 186.841 212.895 187.199C212.771 187.557 212.709 187.938 212.709 188.342ZM222.602 193V178.996H224.779V193H222.602ZM227.699 193V178.996H229.877V193H227.699ZM232.094 188.342C232.094 187.691 232.211 187.069 232.445 186.477C232.68 185.878 233.005 185.354 233.422 184.904C233.845 184.449 234.35 184.09 234.936 183.83C235.521 183.57 236.166 183.439 236.869 183.439C237.416 183.439 237.96 183.573 238.5 183.84C239.04 184.107 239.457 184.475 239.75 184.943V183.684H241.928V193H239.75V191.74C239.457 192.209 239.04 192.577 238.5 192.844C237.96 193.111 237.416 193.244 236.869 193.244C236.16 193.244 235.512 193.114 234.926 192.854C234.346 192.593 233.845 192.235 233.422 191.779C233.005 191.324 232.68 190.803 232.445 190.217C232.211 189.631 232.094 189.006 232.094 188.342ZM234.271 188.342C234.271 188.739 234.333 189.12 234.457 189.484C234.587 189.842 234.773 190.155 235.014 190.422C235.255 190.689 235.541 190.904 235.873 191.066C236.212 191.223 236.586 191.301 236.996 191.301C237.406 191.301 237.781 191.223 238.119 191.066C238.464 190.904 238.754 190.689 238.988 190.422C239.229 190.155 239.415 189.842 239.545 189.484C239.682 189.12 239.75 188.739 239.75 188.342C239.75 187.945 239.682 187.567 239.545 187.209C239.415 186.844 239.229 186.529 238.988 186.262C238.754 185.995 238.464 185.783 238.119 185.627C237.781 185.464 237.406 185.383 236.996 185.383C236.586 185.383 236.212 185.464 235.873 185.627C235.541 185.783 235.255 185.995 235.014 186.262C234.773 186.529 234.587 186.841 234.457 187.199C234.333 187.557 234.271 187.938 234.271 188.342ZM244.848 193V183.684H247.025V185.178C247.13 184.963 247.279 184.761 247.475 184.572C247.67 184.377 247.895 184.204 248.148 184.055C248.409 183.898 248.689 183.778 248.988 183.693C249.294 183.602 249.6 183.557 249.906 183.557C250.251 183.557 250.538 183.605 250.766 183.703V185.695C250.59 185.656 250.443 185.63 250.326 185.617C250.215 185.604 250.076 185.598 249.906 185.598C248.975 185.598 248.262 185.868 247.768 186.408C247.273 186.949 247.025 187.805 247.025 188.977V193H244.848ZM251.469 189.855H253.588C253.588 190.467 253.757 190.897 254.096 191.145C254.434 191.392 254.864 191.516 255.385 191.516C255.814 191.516 256.176 191.438 256.469 191.281C256.762 191.118 256.908 190.839 256.908 190.441C256.908 190.227 256.846 190.054 256.723 189.924C256.605 189.787 256.426 189.663 256.186 189.553C255.945 189.436 255.645 189.318 255.287 189.201C254.929 189.077 254.503 188.924 254.008 188.742C253.689 188.625 253.393 188.495 253.119 188.352C252.846 188.208 252.608 188.046 252.406 187.863C252.204 187.674 252.048 187.44 251.938 187.16C251.833 186.88 251.781 186.542 251.781 186.145C251.781 185.702 251.876 185.314 252.064 184.982C252.253 184.65 252.507 184.367 252.826 184.133C253.145 183.898 253.513 183.726 253.93 183.615C254.353 183.498 254.805 183.439 255.287 183.439C255.782 183.439 256.244 183.521 256.674 183.684C257.11 183.84 257.488 184.058 257.807 184.338C258.126 184.618 258.376 184.953 258.559 185.344C258.747 185.728 258.842 186.148 258.842 186.604H256.723C256.723 186.161 256.605 185.809 256.371 185.549C256.143 185.288 255.762 185.158 255.229 185.158C254.857 185.158 254.542 185.246 254.281 185.422C254.021 185.591 253.891 185.845 253.891 186.184C253.891 186.385 253.943 186.548 254.047 186.672C254.151 186.796 254.311 186.91 254.525 187.014C254.74 187.111 255.007 187.215 255.326 187.326C255.645 187.437 256.02 187.574 256.449 187.736C256.768 187.854 257.081 187.98 257.387 188.117C257.693 188.254 257.966 188.423 258.207 188.625C258.448 188.82 258.637 189.058 258.773 189.338C258.917 189.618 258.988 189.973 258.988 190.402C258.988 190.884 258.891 191.304 258.695 191.662C258.5 192.02 258.233 192.316 257.895 192.551C257.556 192.785 257.159 192.958 256.703 193.068C256.254 193.186 255.775 193.244 255.268 193.244C254.76 193.244 254.278 193.169 253.822 193.02C253.373 192.876 252.969 192.661 252.611 192.375C252.26 192.082 251.98 191.727 251.771 191.311C251.57 190.887 251.469 190.402 251.469 189.855ZM260.834 191.516C260.834 191.06 260.99 190.679 261.303 190.373C261.615 190.061 261.993 189.904 262.436 189.904C262.982 189.904 263.422 190.093 263.754 190.471C264.086 190.848 264.252 191.346 264.252 191.965C264.252 192.577 264.174 193.094 264.018 193.518C263.868 193.947 263.65 194.296 263.363 194.562C263.077 194.829 262.725 195.021 262.309 195.139C261.898 195.262 261.433 195.324 260.912 195.324V194.299C261.257 194.299 261.547 194.263 261.781 194.191C262.016 194.12 262.214 194.022 262.377 193.898C262.527 193.768 262.637 193.625 262.709 193.469C262.781 193.319 262.829 193.163 262.855 193C262.829 193.026 262.774 193.052 262.689 193.078C262.611 193.104 262.527 193.117 262.436 193.117C261.941 193.117 261.55 192.961 261.264 192.648C260.977 192.336 260.834 191.958 260.834 191.516ZM271.918 193V178.996H274.291V193H271.918ZM47.4648 223V213.684H49.6426V214.982C49.9355 214.475 50.3424 214.09 50.8633 213.83C51.3841 213.57 51.9896 213.439 52.6797 213.439C53.3568 213.439 53.9264 213.553 54.3887 213.781C54.8509 214.009 55.2155 214.315 55.4824 214.699C55.7103 215.044 55.8665 215.432 55.9512 215.861C56.0358 216.285 56.0781 216.818 56.0781 217.463V223H53.9004V218.176C53.9004 217.779 53.8646 217.408 53.793 217.062C53.7279 216.711 53.6172 216.415 53.4609 216.174C53.3112 215.926 53.1061 215.731 52.8457 215.588C52.5918 215.438 52.2695 215.363 51.8789 215.363C51.1172 215.363 50.554 215.633 50.1895 216.174C49.8249 216.714 49.6426 217.382 49.6426 218.176V223H47.4648ZM58.1875 218.342C58.1875 217.652 58.2884 217.007 58.4902 216.408C58.6986 215.803 58.9948 215.282 59.3789 214.846C59.7695 214.403 60.2513 214.058 60.8242 213.811C61.3971 213.563 62.0514 213.439 62.7871 213.439C63.3861 213.439 63.9492 213.547 64.4766 213.762C65.0039 213.977 65.4629 214.273 65.8535 214.65C66.2507 215.028 66.5566 215.471 66.7715 215.979C66.9928 216.486 67.1035 217.04 67.1035 217.639C67.1035 217.801 67.1003 217.993 67.0938 218.215C67.0872 218.43 67.0579 218.69 67.0059 218.996H60.4043C60.4043 219.328 60.4499 219.644 60.541 219.943C60.6387 220.236 60.7819 220.493 60.9707 220.715C61.166 220.93 61.4167 221.102 61.7227 221.232C62.0352 221.356 62.4095 221.418 62.8457 221.418C63.1517 221.418 63.4154 221.385 63.6367 221.32C63.8581 221.255 64.0436 221.171 64.1934 221.066C64.3496 220.956 64.4766 220.826 64.5742 220.676C64.6784 220.52 64.763 220.36 64.8281 220.197H67.0254C66.9473 220.594 66.7975 220.979 66.5762 221.35C66.3548 221.714 66.0684 222.036 65.7168 222.316C65.3652 222.596 64.9486 222.821 64.4668 222.99C63.985 223.16 63.4447 223.244 62.8457 223.244C62.0579 223.244 61.3743 223.107 60.7949 222.834C60.2155 222.561 59.7305 222.196 59.3398 221.74C58.9557 221.285 58.666 220.764 58.4707 220.178C58.2819 219.592 58.1875 218.98 58.1875 218.342ZM60.4238 217.385H64.9844C64.9844 216.734 64.7728 216.216 64.3496 215.832C63.9329 215.448 63.3926 215.256 62.7285 215.256C62.0905 215.256 61.5469 215.438 61.0977 215.803C60.6484 216.161 60.4238 216.688 60.4238 217.385ZM68.8125 218.342C68.8125 217.652 68.9134 217.007 69.1152 216.408C69.3236 215.803 69.6198 215.282 70.0039 214.846C70.3945 214.403 70.8763 214.058 71.4492 213.811C72.0221 213.563 72.6764 213.439 73.4121 213.439C74.0111 213.439 74.5742 213.547 75.1016 213.762C75.6289 213.977 76.0879 214.273 76.4785 214.65C76.8757 215.028 77.1816 215.471 77.3965 215.979C77.6178 216.486 77.7285 217.04 77.7285 217.639C77.7285 217.801 77.7253 217.993 77.7188 218.215C77.7122 218.43 77.6829 218.69 77.6309 218.996H71.0293C71.0293 219.328 71.0749 219.644 71.166 219.943C71.2637 220.236 71.4069 220.493 71.5957 220.715C71.791 220.93 72.0417 221.102 72.3477 221.232C72.6602 221.356 73.0345 221.418 73.4707 221.418C73.7767 221.418 74.0404 221.385 74.2617 221.32C74.4831 221.255 74.6686 221.171 74.8184 221.066C74.9746 220.956 75.1016 220.826 75.1992 220.676C75.3034 220.52 75.388 220.36 75.4531 220.197H77.6504C77.5723 220.594 77.4225 220.979 77.2012 221.35C76.9798 221.714 76.6934 222.036 76.3418 222.316C75.9902 222.596 75.5736 222.821 75.0918 222.99C74.61 223.16 74.0697 223.244 73.4707 223.244C72.6829 223.244 71.9993 223.107 71.4199 222.834C70.8405 222.561 70.3555 222.196 69.9648 221.74C69.5807 221.285 69.291 220.764 69.0957 220.178C68.9069 219.592 68.8125 218.98 68.8125 218.342ZM71.0488 217.385H75.6094C75.6094 216.734 75.3978 216.216 74.9746 215.832C74.5579 215.448 74.0176 215.256 73.3535 215.256C72.7155 215.256 72.1719 215.438 71.7227 215.803C71.2734 216.161 71.0488 216.688 71.0488 217.385ZM79.3984 218.342C79.3984 217.691 79.5156 217.069 79.75 216.477C79.9844 215.878 80.3099 215.354 80.7266 214.904C81.1497 214.449 81.6543 214.09 82.2402 213.83C82.8262 213.57 83.4707 213.439 84.1738 213.439C84.7207 213.439 85.2643 213.573 85.8047 213.84C86.3451 214.107 86.7617 214.475 87.0547 214.943V208.996H89.2324V223H87.0547V221.74C86.7617 222.209 86.3451 222.577 85.8047 222.844C85.2643 223.111 84.7207 223.244 84.1738 223.244C83.4642 223.244 82.8164 223.114 82.2305 222.854C81.651 222.593 81.1497 222.235 80.7266 221.779C80.3099 221.324 79.9844 220.803 79.75 220.217C79.5156 219.631 79.3984 219.006 79.3984 218.342ZM81.5762 218.342C81.5762 218.739 81.638 219.12 81.7617 219.484C81.8919 219.842 82.0775 220.155 82.3184 220.422C82.5592 220.689 82.8457 220.904 83.1777 221.066C83.5163 221.223 83.8906 221.301 84.3008 221.301C84.7109 221.301 85.0853 221.223 85.4238 221.066C85.7689 220.904 86.0586 220.689 86.293 220.422C86.5339 220.155 86.7194 219.842 86.8496 219.484C86.9863 219.12 87.0547 218.739 87.0547 218.342C87.0547 217.945 86.9863 217.567 86.8496 217.209C86.7194 216.844 86.5339 216.529 86.293 216.262C86.0586 215.995 85.7689 215.783 85.4238 215.627C85.0853 215.464 84.7109 215.383 84.3008 215.383C83.8906 215.383 83.5163 215.464 83.1777 215.627C82.8457 215.783 82.5592 215.995 82.3184 216.262C82.0775 216.529 81.8919 216.841 81.7617 217.199C81.638 217.557 81.5762 217.938 81.5762 218.342ZM97.1523 223V213.684H99.3301V214.982C99.623 214.475 100.03 214.09 100.551 213.83C101.072 213.57 101.677 213.439 102.367 213.439C103.044 213.439 103.614 213.553 104.076 213.781C104.538 214.009 104.903 214.315 105.17 214.699C105.398 215.044 105.554 215.432 105.639 215.861C105.723 216.285 105.766 216.818 105.766 217.463V223H103.588V218.176C103.588 217.779 103.552 217.408 103.48 217.062C103.415 216.711 103.305 216.415 103.148 216.174C102.999 215.926 102.794 215.731 102.533 215.588C102.279 215.438 101.957 215.363 101.566 215.363C100.805 215.363 100.242 215.633 99.877 216.174C99.5124 216.714 99.3301 217.382 99.3301 218.176V223H97.1523ZM107.836 218.342C107.836 217.691 107.953 217.069 108.188 216.477C108.422 215.878 108.747 215.354 109.164 214.904C109.587 214.449 110.092 214.09 110.678 213.83C111.264 213.57 111.908 213.439 112.611 213.439C113.158 213.439 113.702 213.573 114.242 213.84C114.783 214.107 115.199 214.475 115.492 214.943V213.684H117.67V223H115.492V221.74C115.199 222.209 114.783 222.577 114.242 222.844C113.702 223.111 113.158 223.244 112.611 223.244C111.902 223.244 111.254 223.114 110.668 222.854C110.089 222.593 109.587 222.235 109.164 221.779C108.747 221.324 108.422 220.803 108.188 220.217C107.953 219.631 107.836 219.006 107.836 218.342ZM110.014 218.342C110.014 218.739 110.076 219.12 110.199 219.484C110.329 219.842 110.515 220.155 110.756 220.422C110.997 220.689 111.283 220.904 111.615 221.066C111.954 221.223 112.328 221.301 112.738 221.301C113.148 221.301 113.523 221.223 113.861 221.066C114.206 220.904 114.496 220.689 114.73 220.422C114.971 220.155 115.157 219.842 115.287 219.484C115.424 219.12 115.492 218.739 115.492 218.342C115.492 217.945 115.424 217.567 115.287 217.209C115.157 216.844 114.971 216.529 114.73 216.262C114.496 215.995 114.206 215.783 113.861 215.627C113.523 215.464 113.148 215.383 112.738 215.383C112.328 215.383 111.954 215.464 111.615 215.627C111.283 215.783 110.997 215.995 110.756 216.262C110.515 216.529 110.329 216.841 110.199 217.199C110.076 217.557 110.014 217.938 110.014 218.342ZM120.502 210.275C120.502 209.82 120.658 209.439 120.971 209.133C121.29 208.82 121.667 208.664 122.104 208.664C122.559 208.664 122.943 208.82 123.256 209.133C123.568 209.445 123.725 209.826 123.725 210.275C123.725 210.718 123.568 211.096 123.256 211.408C122.943 211.721 122.559 211.877 122.104 211.877C121.661 211.877 121.283 211.721 120.971 211.408C120.658 211.096 120.502 210.718 120.502 210.275ZM121.029 223V213.684H123.207V223H121.029ZM126.566 223V213.684H128.744V215.178C128.848 214.963 128.998 214.761 129.193 214.572C129.389 214.377 129.613 214.204 129.867 214.055C130.128 213.898 130.408 213.778 130.707 213.693C131.013 213.602 131.319 213.557 131.625 213.557C131.97 213.557 132.257 213.605 132.484 213.703V215.695C132.309 215.656 132.162 215.63 132.045 215.617C131.934 215.604 131.794 215.598 131.625 215.598C130.694 215.598 129.981 215.868 129.486 216.408C128.992 216.949 128.744 217.805 128.744 218.977V223H126.566ZM133.227 218.342C133.227 217.691 133.344 217.069 133.578 216.477C133.812 215.878 134.138 215.354 134.555 214.904C134.978 214.449 135.482 214.09 136.068 213.83C136.654 213.57 137.299 213.439 138.002 213.439C138.549 213.439 139.092 213.573 139.633 213.84C140.173 214.107 140.59 214.475 140.883 214.943V213.684H143.061V223H140.883V221.74C140.59 222.209 140.173 222.577 139.633 222.844C139.092 223.111 138.549 223.244 138.002 223.244C137.292 223.244 136.645 223.114 136.059 222.854C135.479 222.593 134.978 222.235 134.555 221.779C134.138 221.324 133.812 220.803 133.578 220.217C133.344 219.631 133.227 219.006 133.227 218.342ZM135.404 218.342C135.404 218.739 135.466 219.12 135.59 219.484C135.72 219.842 135.906 220.155 136.146 220.422C136.387 220.689 136.674 220.904 137.006 221.066C137.344 221.223 137.719 221.301 138.129 221.301C138.539 221.301 138.913 221.223 139.252 221.066C139.597 220.904 139.887 220.689 140.121 220.422C140.362 220.155 140.548 219.842 140.678 219.484C140.814 219.12 140.883 218.739 140.883 218.342C140.883 217.945 140.814 217.567 140.678 217.209C140.548 216.844 140.362 216.529 140.121 216.262C139.887 215.995 139.597 215.783 139.252 215.627C138.913 215.464 138.539 215.383 138.129 215.383C137.719 215.383 137.344 215.464 137.006 215.627C136.674 215.783 136.387 215.995 136.146 216.262C135.906 216.529 135.72 216.841 135.59 217.199C135.466 217.557 135.404 217.938 135.404 218.342Z" fill="black"/>
<g filter="url(#filter2_d)">
<rect x="886" y="12" width="300" height="300" rx="15" fill="white"/>
<rect x="886.25" y="12.25" width="299.5" height="299.5" rx="14.75" stroke="#E8E8E8" stroke-width="0.5"/>
</g>
<path d="M947.699 193V178.996H950.072V193H947.699ZM952.729 179.758C952.729 179.328 952.878 178.96 953.178 178.654C953.477 178.348 953.842 178.195 954.271 178.195C954.792 178.195 955.209 178.378 955.521 178.742C955.834 179.1 955.99 179.579 955.99 180.178C955.99 181.35 955.714 182.173 955.16 182.648C954.607 183.124 953.822 183.368 952.807 183.381V182.404C953.139 182.404 953.415 182.368 953.637 182.297C953.858 182.219 954.04 182.121 954.184 182.004C954.333 181.887 954.444 181.753 954.516 181.604C954.587 181.454 954.639 181.307 954.672 181.164C954.646 181.19 954.59 181.213 954.506 181.232C954.428 181.252 954.35 181.262 954.271 181.262C953.803 181.262 953.428 181.118 953.148 180.832C952.868 180.546 952.729 180.188 952.729 179.758ZM958.656 193V178.996H960.834V193H958.656ZM963.754 193V178.996H965.932V193H963.754ZM973.148 188.342C973.148 187.691 973.266 187.069 973.5 186.477C973.734 185.878 974.06 185.354 974.477 184.904C974.9 184.449 975.404 184.09 975.99 183.83C976.576 183.57 977.221 183.439 977.924 183.439C978.471 183.439 979.014 183.573 979.555 183.84C980.095 184.107 980.512 184.475 980.805 184.943V183.684H982.982V193.459C982.982 194.247 982.868 194.921 982.641 195.48C982.419 196.04 982.09 196.499 981.654 196.857C981.225 197.222 980.701 197.486 980.082 197.648C979.47 197.818 978.777 197.902 978.002 197.902C977.227 197.902 976.553 197.792 975.98 197.57C975.414 197.349 974.936 197.059 974.545 196.701C974.161 196.343 973.865 195.933 973.656 195.471C973.448 195.008 973.331 194.54 973.305 194.064H975.502C975.554 194.572 975.788 195.015 976.205 195.393C976.622 195.77 977.221 195.959 978.002 195.959C978.881 195.959 979.568 195.76 980.062 195.363C980.557 194.973 980.805 194.338 980.805 193.459V191.74C980.512 192.209 980.095 192.577 979.555 192.844C979.014 193.111 978.471 193.244 977.924 193.244C977.214 193.244 976.566 193.114 975.98 192.854C975.401 192.593 974.9 192.235 974.477 191.779C974.06 191.324 973.734 190.803 973.5 190.217C973.266 189.631 973.148 189.006 973.148 188.342ZM975.326 188.342C975.326 188.739 975.388 189.12 975.512 189.484C975.642 189.842 975.827 190.155 976.068 190.422C976.309 190.689 976.596 190.904 976.928 191.066C977.26 191.223 977.634 191.301 978.051 191.301C978.461 191.301 978.835 191.223 979.174 191.066C979.519 190.904 979.809 190.689 980.043 190.422C980.284 190.155 980.469 189.842 980.6 189.484C980.736 189.12 980.805 188.739 980.805 188.342C980.805 187.945 980.736 187.567 980.6 187.209C980.469 186.844 980.284 186.529 980.043 186.262C979.809 185.995 979.519 185.783 979.174 185.627C978.835 185.464 978.461 185.383 978.051 185.383C977.641 185.383 977.266 185.464 976.928 185.627C976.596 185.783 976.309 185.995 976.068 186.262C975.827 186.529 975.642 186.841 975.512 187.199C975.388 187.557 975.326 187.938 975.326 188.342ZM985.756 180.275C985.756 179.82 985.912 179.439 986.225 179.133C986.544 178.82 986.921 178.664 987.357 178.664C987.813 178.664 988.197 178.82 988.51 179.133C988.822 179.445 988.979 179.826 988.979 180.275C988.979 180.718 988.822 181.096 988.51 181.408C988.197 181.721 987.813 181.877 987.357 181.877C986.915 181.877 986.537 181.721 986.225 181.408C985.912 181.096 985.756 180.718 985.756 180.275ZM986.283 193V183.684H988.461V193H986.283ZM990.375 183.684H992.719L995.277 189.885L997.875 183.684H1000.22L996 193H994.535L990.375 183.684ZM1000.53 188.342C1000.53 187.652 1000.63 187.007 1000.83 186.408C1001.04 185.803 1001.34 185.282 1001.72 184.846C1002.11 184.403 1002.6 184.058 1003.17 183.811C1003.74 183.563 1004.4 183.439 1005.13 183.439C1005.73 183.439 1006.29 183.547 1006.82 183.762C1007.35 183.977 1007.81 184.273 1008.2 184.65C1008.59 185.028 1008.9 185.471 1009.12 185.979C1009.34 186.486 1009.45 187.04 1009.45 187.639C1009.45 187.801 1009.44 187.993 1009.44 188.215C1009.43 188.43 1009.4 188.69 1009.35 188.996H1002.75C1002.75 189.328 1002.79 189.644 1002.88 189.943C1002.98 190.236 1003.13 190.493 1003.31 190.715C1003.51 190.93 1003.76 191.102 1004.07 191.232C1004.38 191.356 1004.75 191.418 1005.19 191.418C1005.5 191.418 1005.76 191.385 1005.98 191.32C1006.2 191.255 1006.39 191.171 1006.54 191.066C1006.69 190.956 1006.82 190.826 1006.92 190.676C1007.02 190.52 1007.11 190.36 1007.17 190.197H1009.37C1009.29 190.594 1009.14 190.979 1008.92 191.35C1008.7 191.714 1008.41 192.036 1008.06 192.316C1007.71 192.596 1007.29 192.821 1006.81 192.99C1006.33 193.16 1005.79 193.244 1005.19 193.244C1004.4 193.244 1003.72 193.107 1003.14 192.834C1002.56 192.561 1002.07 192.196 1001.68 191.74C1001.3 191.285 1001.01 190.764 1000.81 190.178C1000.63 189.592 1000.53 188.98 1000.53 188.342ZM1002.77 187.385H1007.33C1007.33 186.734 1007.12 186.216 1006.69 185.832C1006.28 185.448 1005.74 185.256 1005.07 185.256C1004.43 185.256 1003.89 185.438 1003.44 185.803C1002.99 186.161 1002.77 186.688 1002.77 187.385ZM1016.65 194.064H1018.77C1018.79 194.585 1018.97 195.031 1019.32 195.402C1019.68 195.773 1020.24 195.959 1021 195.959C1021.79 195.959 1022.37 195.767 1022.76 195.383C1023.14 195.005 1023.33 194.357 1023.33 193.439V191.701C1023.04 192.209 1022.63 192.593 1022.11 192.854C1021.59 193.114 1020.99 193.244 1020.3 193.244C1019.62 193.244 1019.05 193.13 1018.59 192.902C1018.13 192.674 1017.76 192.368 1017.49 191.984C1017.27 191.639 1017.11 191.252 1017.03 190.822C1016.94 190.393 1016.9 189.859 1016.9 189.221V183.684H1019.08V188.498C1019.08 188.895 1019.11 189.27 1019.17 189.621C1019.24 189.966 1019.35 190.262 1019.51 190.51C1019.66 190.757 1019.87 190.956 1020.12 191.105C1020.38 191.249 1020.71 191.32 1021.1 191.32C1021.86 191.32 1022.42 191.05 1022.79 190.51C1023.15 189.969 1023.33 189.299 1023.33 188.498V183.684H1025.51V193.439C1025.51 195.028 1025.1 196.167 1024.26 196.857C1023.43 197.554 1022.25 197.902 1020.72 197.902C1020.12 197.902 1019.57 197.798 1019.08 197.59C1018.58 197.382 1018.15 197.102 1017.8 196.75C1017.44 196.398 1017.16 195.988 1016.96 195.52C1016.76 195.051 1016.65 194.566 1016.65 194.064ZM1027.68 188.342C1027.68 187.691 1027.8 187.069 1028.03 186.477C1028.27 185.878 1028.59 185.354 1029.02 184.904C1029.45 184.449 1029.96 184.09 1030.56 183.83C1031.16 183.57 1031.83 183.439 1032.58 183.439C1033.33 183.439 1034.01 183.57 1034.61 183.83C1035.22 184.09 1035.74 184.449 1036.17 184.904C1036.6 185.354 1036.93 185.874 1037.16 186.467C1037.4 187.059 1037.51 187.684 1037.51 188.342C1037.51 189.006 1037.4 189.631 1037.16 190.217C1036.93 190.803 1036.6 191.324 1036.17 191.779C1035.74 192.235 1035.22 192.593 1034.61 192.854C1034.01 193.114 1033.33 193.244 1032.58 193.244C1031.83 193.244 1031.16 193.114 1030.56 192.854C1029.96 192.593 1029.45 192.235 1029.02 191.779C1028.59 191.324 1028.27 190.803 1028.03 190.217C1027.8 189.631 1027.68 189.006 1027.68 188.342ZM1029.86 188.342C1029.86 188.739 1029.92 189.12 1030.04 189.484C1030.17 189.842 1030.36 190.155 1030.6 190.422C1030.84 190.689 1031.13 190.904 1031.46 191.066C1031.8 191.223 1032.17 191.301 1032.58 191.301C1032.99 191.301 1033.37 191.223 1033.71 191.066C1034.05 190.904 1034.34 190.689 1034.57 190.422C1034.82 190.155 1035 189.842 1035.13 189.484C1035.27 189.12 1035.34 188.739 1035.34 188.342C1035.34 187.945 1035.27 187.567 1035.13 187.209C1035 186.844 1034.82 186.529 1034.57 186.262C1034.34 185.995 1034.05 185.783 1033.71 185.627C1033.37 185.464 1032.99 185.383 1032.58 185.383C1032.17 185.383 1031.8 185.464 1031.46 185.627C1031.13 185.783 1030.84 185.995 1030.6 186.262C1030.36 186.529 1030.17 186.841 1030.04 187.199C1029.92 187.557 1029.86 187.938 1029.86 188.342ZM1039.58 189.221V183.684H1041.76V188.498C1041.76 188.895 1041.79 189.27 1041.86 189.621C1041.93 189.966 1042.04 190.262 1042.19 190.51C1042.35 190.757 1042.56 190.956 1042.82 191.105C1043.08 191.249 1043.4 191.32 1043.78 191.32C1044.54 191.32 1045.11 191.05 1045.47 190.51C1045.84 189.969 1046.03 189.299 1046.03 188.498V183.684H1048.21V193H1046.03V191.701C1045.74 192.209 1045.33 192.593 1044.81 192.854C1044.29 193.114 1043.68 193.244 1042.98 193.244C1042.31 193.244 1041.74 193.13 1041.27 192.902C1040.82 192.674 1040.46 192.368 1040.19 191.984C1039.96 191.639 1039.8 191.252 1039.71 190.822C1039.63 190.393 1039.58 189.859 1039.58 189.221ZM1055.43 188.342C1055.43 187.691 1055.55 187.069 1055.79 186.477C1056.02 185.878 1056.35 185.354 1056.76 184.904C1057.18 184.449 1057.69 184.09 1058.28 183.83C1058.86 183.57 1059.51 183.439 1060.21 183.439C1060.76 183.439 1061.3 183.573 1061.84 183.84C1062.38 184.107 1062.8 184.475 1063.09 184.943V183.684H1065.27V193H1063.09V191.74C1062.8 192.209 1062.38 192.577 1061.84 192.844C1061.3 193.111 1060.76 193.244 1060.21 193.244C1059.5 193.244 1058.85 193.114 1058.27 192.854C1057.69 192.593 1057.18 192.235 1056.76 191.779C1056.35 191.324 1056.02 190.803 1055.79 190.217C1055.55 189.631 1055.43 189.006 1055.43 188.342ZM1057.61 188.342C1057.61 188.739 1057.67 189.12 1057.8 189.484C1057.93 189.842 1058.11 190.155 1058.35 190.422C1058.59 190.689 1058.88 190.904 1059.21 191.066C1059.55 191.223 1059.93 191.301 1060.34 191.301C1060.75 191.301 1061.12 191.223 1061.46 191.066C1061.8 190.904 1062.09 190.689 1062.33 190.422C1062.57 190.155 1062.75 189.842 1062.88 189.484C1063.02 189.12 1063.09 188.739 1063.09 188.342C1063.09 187.945 1063.02 187.567 1062.88 187.209C1062.75 186.844 1062.57 186.529 1062.33 186.262C1062.09 185.995 1061.8 185.783 1061.46 185.627C1061.12 185.464 1060.75 185.383 1060.34 185.383C1059.93 185.383 1059.55 185.464 1059.21 185.627C1058.88 185.783 1058.59 185.995 1058.35 186.262C1058.11 186.529 1057.93 186.841 1057.8 187.199C1057.67 187.557 1057.61 187.938 1057.61 188.342ZM1067.12 185.5V183.684H1068.71V180.861H1070.88V183.684H1073.02V185.5H1070.88V189.338C1070.88 189.735 1070.91 190.054 1070.97 190.295C1071.03 190.536 1071.12 190.721 1071.23 190.852C1071.36 190.975 1071.5 191.06 1071.66 191.105C1071.83 191.145 1072.03 191.164 1072.24 191.164C1072.42 191.164 1072.62 191.158 1072.85 191.145C1073.07 191.125 1073.24 191.102 1073.34 191.076V193C1073.17 193.026 1072.93 193.052 1072.64 193.078C1072.35 193.104 1072.04 193.117 1071.72 193.117C1071.46 193.117 1071.15 193.094 1070.8 193.049C1070.46 193.003 1070.13 192.873 1069.81 192.658C1069.5 192.443 1069.23 192.118 1069.02 191.682C1068.81 191.239 1068.71 190.624 1068.71 189.836V185.5H1067.12ZM1079.5 188.342C1079.5 187.691 1079.61 187.069 1079.85 186.477C1080.08 185.878 1080.41 185.354 1080.82 184.904C1081.25 184.449 1081.75 184.09 1082.34 183.83C1082.92 183.57 1083.57 183.439 1084.27 183.439C1084.82 183.439 1085.36 183.573 1085.9 183.84C1086.44 184.107 1086.86 184.475 1087.15 184.943V183.684H1089.33V193H1087.15V191.74C1086.86 192.209 1086.44 192.577 1085.9 192.844C1085.36 193.111 1084.82 193.244 1084.27 193.244C1083.56 193.244 1082.91 193.114 1082.33 192.854C1081.75 192.593 1081.25 192.235 1080.82 191.779C1080.41 191.324 1080.08 190.803 1079.85 190.217C1079.61 189.631 1079.5 189.006 1079.5 188.342ZM1081.67 188.342C1081.67 188.739 1081.74 189.12 1081.86 189.484C1081.99 189.842 1082.18 190.155 1082.42 190.422C1082.66 190.689 1082.94 190.904 1083.28 191.066C1083.61 191.223 1083.99 191.301 1084.4 191.301C1084.81 191.301 1085.18 191.223 1085.52 191.066C1085.87 190.904 1086.16 190.689 1086.39 190.422C1086.63 190.155 1086.82 189.842 1086.95 189.484C1087.08 189.12 1087.15 188.739 1087.15 188.342C1087.15 187.945 1087.08 187.567 1086.95 187.209C1086.82 186.844 1086.63 186.529 1086.39 186.262C1086.16 185.995 1085.87 185.783 1085.52 185.627C1085.18 185.464 1084.81 185.383 1084.4 185.383C1083.99 185.383 1083.61 185.464 1083.28 185.627C1082.94 185.783 1082.66 185.995 1082.42 186.262C1082.18 186.529 1081.99 186.841 1081.86 187.199C1081.74 187.557 1081.67 187.938 1081.67 188.342ZM1097.25 193V183.684H1099.43V185.178C1099.53 184.963 1099.68 184.761 1099.88 184.572C1100.07 184.377 1100.3 184.204 1100.55 184.055C1100.81 183.898 1101.09 183.778 1101.39 183.693C1101.7 183.602 1102 183.557 1102.31 183.557C1102.65 183.557 1102.94 183.605 1103.17 183.703V185.695C1102.99 185.656 1102.85 185.63 1102.73 185.617C1102.62 185.604 1102.48 185.598 1102.31 185.598C1101.38 185.598 1100.66 185.868 1100.17 186.408C1099.68 186.949 1099.43 187.805 1099.43 188.977V193H1097.25ZM1103.91 188.342C1103.91 187.691 1104.03 187.069 1104.26 186.477C1104.5 185.878 1104.82 185.354 1105.24 184.904C1105.66 184.449 1106.17 184.09 1106.75 183.83C1107.34 183.57 1107.98 183.439 1108.69 183.439C1109.23 183.439 1109.78 183.573 1110.32 183.84C1110.86 184.107 1111.27 184.475 1111.57 184.943V183.684H1113.74V193H1111.57V191.74C1111.27 192.209 1110.86 192.577 1110.32 192.844C1109.78 193.111 1109.23 193.244 1108.69 193.244C1107.98 193.244 1107.33 193.114 1106.74 192.854C1106.16 192.593 1105.66 192.235 1105.24 191.779C1104.82 191.324 1104.5 190.803 1104.26 190.217C1104.03 189.631 1103.91 189.006 1103.91 188.342ZM1106.09 188.342C1106.09 188.739 1106.15 189.12 1106.27 189.484C1106.4 189.842 1106.59 190.155 1106.83 190.422C1107.07 190.689 1107.36 190.904 1107.69 191.066C1108.03 191.223 1108.4 191.301 1108.81 191.301C1109.22 191.301 1109.6 191.223 1109.94 191.066C1110.28 190.904 1110.57 190.689 1110.8 190.422C1111.05 190.155 1111.23 189.842 1111.36 189.484C1111.5 189.12 1111.57 188.739 1111.57 188.342C1111.57 187.945 1111.5 187.567 1111.36 187.209C1111.23 186.844 1111.05 186.529 1110.8 186.262C1110.57 185.995 1110.28 185.783 1109.94 185.627C1109.6 185.464 1109.22 185.383 1108.81 185.383C1108.4 185.383 1108.03 185.464 1107.69 185.627C1107.36 185.783 1107.07 185.995 1106.83 186.262C1106.59 186.529 1106.4 186.841 1106.27 187.199C1106.15 187.557 1106.09 187.938 1106.09 188.342ZM1115.6 185.5V183.684H1117.18V180.861H1119.36V183.684H1121.5V185.5H1119.36V189.338C1119.36 189.735 1119.39 190.054 1119.45 190.295C1119.51 190.536 1119.59 190.721 1119.71 190.852C1119.83 190.975 1119.98 191.06 1120.14 191.105C1120.31 191.145 1120.5 191.164 1120.72 191.164C1120.89 191.164 1121.09 191.158 1121.32 191.145C1121.55 191.125 1121.72 191.102 1121.82 191.076V193C1121.64 193.026 1121.41 193.052 1121.12 193.078C1120.82 193.104 1120.52 193.117 1120.2 193.117C1119.93 193.117 1119.63 193.094 1119.28 193.049C1118.94 193.003 1118.6 192.873 1118.29 192.658C1117.97 192.443 1117.71 192.118 1117.49 191.682C1117.29 191.239 1117.18 190.624 1117.18 189.836V185.5H1115.6ZM1122.82 188.342C1122.82 187.652 1122.92 187.007 1123.12 186.408C1123.33 185.803 1123.62 185.282 1124.01 184.846C1124.4 184.403 1124.88 184.058 1125.45 183.811C1126.03 183.563 1126.68 183.439 1127.42 183.439C1128.01 183.439 1128.58 183.547 1129.11 183.762C1129.63 183.977 1130.09 184.273 1130.48 184.65C1130.88 185.028 1131.19 185.471 1131.4 185.979C1131.62 186.486 1131.73 187.04 1131.73 187.639C1131.73 187.801 1131.73 187.993 1131.72 188.215C1131.72 188.43 1131.69 188.69 1131.63 188.996H1125.03C1125.03 189.328 1125.08 189.644 1125.17 189.943C1125.27 190.236 1125.41 190.493 1125.6 190.715C1125.79 190.93 1126.05 191.102 1126.35 191.232C1126.66 191.356 1127.04 191.418 1127.47 191.418C1127.78 191.418 1128.04 191.385 1128.27 191.32C1128.49 191.255 1128.67 191.171 1128.82 191.066C1128.98 190.956 1129.11 190.826 1129.2 190.676C1129.31 190.52 1129.39 190.36 1129.46 190.197H1131.65C1131.58 190.594 1131.43 190.979 1131.21 191.35C1130.98 191.714 1130.7 192.036 1130.35 192.316C1129.99 192.596 1129.58 192.821 1129.1 192.99C1128.61 193.16 1128.07 193.244 1127.47 193.244C1126.69 193.244 1126 193.107 1125.42 192.834C1124.84 192.561 1124.36 192.196 1123.97 191.74C1123.58 191.285 1123.29 190.764 1123.1 190.178C1122.91 189.592 1122.82 188.98 1122.82 188.342ZM1125.05 187.385H1129.61C1129.61 186.734 1129.4 186.216 1128.98 185.832C1128.56 185.448 1128.02 185.256 1127.36 185.256C1126.72 185.256 1126.18 185.438 1125.73 185.803C1125.28 186.161 1125.05 186.688 1125.05 187.385ZM1138.4 188.342C1138.4 187.691 1138.52 187.069 1138.75 186.477C1138.99 185.878 1139.32 185.354 1139.74 184.904C1140.17 184.449 1140.68 184.09 1141.28 183.83C1141.88 183.57 1142.56 183.439 1143.3 183.439C1144.05 183.439 1144.73 183.57 1145.34 183.83C1145.94 184.09 1146.46 184.449 1146.89 184.904C1147.32 185.354 1147.66 185.874 1147.88 186.467C1148.12 187.059 1148.24 187.684 1148.24 188.342C1148.24 189.006 1148.12 189.631 1147.88 190.217C1147.66 190.803 1147.32 191.324 1146.89 191.779C1146.46 192.235 1145.94 192.593 1145.34 192.854C1144.73 193.114 1144.05 193.244 1143.3 193.244C1142.56 193.244 1141.88 193.114 1141.28 192.854C1140.68 192.593 1140.17 192.235 1139.74 191.779C1139.32 191.324 1138.99 190.803 1138.75 190.217C1138.52 189.631 1138.4 189.006 1138.4 188.342ZM1140.58 188.342C1140.58 188.739 1140.64 189.12 1140.77 189.484C1140.9 189.842 1141.08 190.155 1141.32 190.422C1141.56 190.689 1141.85 190.904 1142.18 191.066C1142.52 191.223 1142.89 191.301 1143.3 191.301C1143.71 191.301 1144.09 191.223 1144.43 191.066C1144.77 190.904 1145.06 190.689 1145.3 190.422C1145.54 190.155 1145.72 189.842 1145.85 189.484C1145.99 189.12 1146.06 188.739 1146.06 188.342C1146.06 187.945 1145.99 187.567 1145.85 187.209C1145.72 186.844 1145.54 186.529 1145.3 186.262C1145.06 185.995 1144.77 185.783 1144.43 185.627C1144.09 185.464 1143.71 185.383 1143.3 185.383C1142.89 185.383 1142.52 185.464 1142.18 185.627C1141.85 185.783 1141.56 185.995 1141.32 186.262C1141.08 186.529 1140.9 186.841 1140.77 187.199C1140.64 187.557 1140.58 187.938 1140.58 188.342ZM1149.21 185.5V183.684H1151.12V182.521C1151.12 181.63 1151.24 180.939 1151.48 180.451C1151.73 179.963 1152.03 179.602 1152.38 179.367C1152.74 179.133 1153.11 178.993 1153.49 178.947C1153.88 178.902 1154.21 178.879 1154.48 178.879C1154.76 178.879 1155 178.902 1155.22 178.947C1155.44 178.993 1155.61 179.051 1155.74 179.123V180.959C1155.59 180.92 1155.43 180.887 1155.27 180.861C1155.11 180.835 1154.95 180.822 1154.77 180.822C1154.59 180.822 1154.42 180.829 1154.24 180.842C1154.07 180.855 1153.92 180.91 1153.77 181.008C1153.64 181.099 1153.52 181.245 1153.43 181.447C1153.34 181.643 1153.29 181.919 1153.29 182.277V183.684H1155.74V185.5H1153.29V193H1151.12V185.5H1149.21ZM1025.32 223V208.996H1027.84L1033.37 218.957V208.996H1035.67V223H1033.15L1027.61 213.039V223H1025.32ZM1037.89 215.998C1037.89 215.054 1038.06 214.139 1038.39 213.254C1038.72 212.362 1039.2 211.577 1039.83 210.9C1040.46 210.223 1041.22 209.683 1042.1 209.279C1042.99 208.869 1043.99 208.664 1045.09 208.664C1045.92 208.664 1046.68 208.785 1047.38 209.025C1048.08 209.26 1048.7 209.585 1049.22 210.002C1049.75 210.412 1050.17 210.894 1050.49 211.447C1050.81 212.001 1051 212.583 1051.05 213.195H1048.73C1048.67 212.85 1048.54 212.528 1048.33 212.229C1048.13 211.929 1047.87 211.665 1047.55 211.438C1047.23 211.21 1046.86 211.034 1046.44 210.91C1046.02 210.786 1045.57 210.725 1045.09 210.725C1044.34 210.725 1043.67 210.871 1043.07 211.164C1042.47 211.457 1041.96 211.848 1041.54 212.336C1041.12 212.818 1040.8 213.381 1040.58 214.025C1040.36 214.663 1040.25 215.321 1040.25 215.998C1040.25 216.675 1040.36 217.336 1040.57 217.98C1040.79 218.618 1041.1 219.182 1041.53 219.67C1041.96 220.158 1042.49 220.549 1043.13 220.842C1043.77 221.135 1044.53 221.281 1045.39 221.281C1045.99 221.281 1046.53 221.197 1047 221.027C1047.47 220.852 1047.88 220.614 1048.22 220.314C1048.56 220.008 1048.84 219.66 1049.05 219.27C1049.26 218.879 1049.4 218.469 1049.48 218.039H1046.79V215.979H1053.45V218.039H1051.91C1051.75 218.827 1051.48 219.546 1051.12 220.197C1050.75 220.842 1050.29 221.398 1049.72 221.867C1049.15 222.329 1048.48 222.691 1047.71 222.951C1046.94 223.212 1046.07 223.342 1045.09 223.342C1043.95 223.342 1042.93 223.14 1042.04 222.736C1041.14 222.326 1040.39 221.783 1039.77 221.105C1039.16 220.422 1038.69 219.637 1038.37 218.752C1038.05 217.867 1037.89 216.949 1037.89 215.998ZM1055.36 223V208.996H1057.88L1063.41 218.957V208.996H1065.71V223H1063.19L1057.65 213.039V223H1055.36ZM1072.84 218.322H1075.13C1075.13 218.778 1075.2 219.182 1075.34 219.533C1075.48 219.885 1075.67 220.184 1075.91 220.432C1076.15 220.679 1076.44 220.868 1076.76 220.998C1077.09 221.122 1077.44 221.184 1077.82 221.184C1078.17 221.184 1078.5 221.125 1078.79 221.008C1079.09 220.884 1079.33 220.721 1079.53 220.52C1079.73 220.318 1079.88 220.083 1079.98 219.816C1080.1 219.549 1080.15 219.276 1080.15 218.996C1080.15 218.664 1080.11 218.358 1080.02 218.078C1079.94 217.798 1079.8 217.557 1079.6 217.355C1079.41 217.147 1079.15 216.984 1078.83 216.867C1078.51 216.743 1078.11 216.682 1077.63 216.682H1076.69V214.641H1077.65C1078.48 214.641 1079.04 214.452 1079.35 214.074C1079.66 213.69 1079.81 213.199 1079.81 212.6C1079.81 212.001 1079.63 211.555 1079.26 211.262C1078.9 210.969 1078.42 210.822 1077.84 210.822C1077.01 210.822 1076.43 211.037 1076.1 211.467C1075.77 211.89 1075.61 212.447 1075.61 213.137H1073.31C1073.31 212.486 1073.42 211.893 1073.63 211.359C1073.84 210.826 1074.14 210.367 1074.53 209.982C1074.92 209.592 1075.38 209.292 1075.91 209.084C1076.45 208.869 1077.03 208.762 1077.67 208.762C1078.27 208.762 1078.84 208.853 1079.38 209.035C1079.92 209.211 1080.39 209.471 1080.79 209.816C1081.19 210.155 1081.51 210.562 1081.75 211.037C1081.99 211.506 1082.11 212.027 1082.11 212.6C1082.11 213.4 1081.93 214.055 1081.58 214.562C1081.22 215.07 1080.77 215.441 1080.21 215.676C1080.85 215.93 1081.38 216.32 1081.81 216.848C1082.24 217.375 1082.46 218.085 1082.46 218.977C1082.46 219.615 1082.33 220.194 1082.07 220.715C1081.82 221.236 1081.48 221.685 1081.05 222.062C1080.63 222.434 1080.12 222.723 1079.54 222.932C1078.97 223.14 1078.35 223.244 1077.71 223.244C1077.07 223.244 1076.46 223.133 1075.87 222.912C1075.29 222.691 1074.77 222.372 1074.32 221.955C1073.88 221.532 1073.52 221.018 1073.25 220.412C1072.97 219.807 1072.84 219.11 1072.84 218.322ZM1084.66 218.957C1084.66 218.625 1084.7 218.29 1084.78 217.951C1084.86 217.613 1084.98 217.294 1085.14 216.994C1085.31 216.688 1085.52 216.418 1085.78 216.184C1086.03 215.943 1086.34 215.76 1086.7 215.637C1086.08 215.357 1085.64 214.943 1085.38 214.396C1085.12 213.85 1084.99 213.296 1084.99 212.736C1084.99 212.202 1085.1 211.695 1085.3 211.213C1085.5 210.725 1085.79 210.301 1086.18 209.943C1086.57 209.579 1087.04 209.292 1087.58 209.084C1088.13 208.869 1088.75 208.762 1089.46 208.762C1090.15 208.762 1090.77 208.869 1091.32 209.084C1091.88 209.292 1092.35 209.582 1092.73 209.953C1093.11 210.318 1093.4 210.741 1093.6 211.223C1093.8 211.698 1093.9 212.202 1093.9 212.736C1093.9 213.296 1093.77 213.85 1093.52 214.396C1093.27 214.943 1092.83 215.357 1092.2 215.637C1092.56 215.754 1092.87 215.933 1093.12 216.174C1093.37 216.415 1093.58 216.691 1093.74 217.004C1093.91 217.31 1094.04 217.632 1094.12 217.971C1094.2 218.309 1094.24 218.638 1094.24 218.957C1094.24 219.517 1094.13 220.054 1093.91 220.568C1093.69 221.083 1093.37 221.542 1092.96 221.945C1092.56 222.342 1092.06 222.658 1091.47 222.893C1090.88 223.127 1090.21 223.244 1089.46 223.244C1088.71 223.244 1088.04 223.13 1087.45 222.902C1086.85 222.674 1086.35 222.365 1085.93 221.975C1085.52 221.577 1085.21 221.122 1084.98 220.607C1084.77 220.093 1084.66 219.543 1084.66 218.957ZM1086.96 218.957C1086.96 219.263 1087.01 219.549 1087.12 219.816C1087.24 220.083 1087.41 220.318 1087.62 220.52C1087.84 220.721 1088.1 220.884 1088.41 221.008C1088.72 221.125 1089.07 221.184 1089.46 221.184C1089.84 221.184 1090.19 221.125 1090.49 221.008C1090.8 220.884 1091.07 220.718 1091.27 220.51C1091.49 220.301 1091.65 220.064 1091.76 219.797C1091.88 219.53 1091.94 219.25 1091.94 218.957C1091.94 218.677 1091.88 218.4 1091.77 218.127C1091.67 217.854 1091.51 217.616 1091.29 217.414C1091.08 217.206 1090.83 217.04 1090.52 216.916C1090.22 216.786 1089.86 216.721 1089.46 216.721C1089.06 216.721 1088.7 216.783 1088.38 216.906C1088.07 217.023 1087.81 217.186 1087.59 217.395C1087.38 217.596 1087.22 217.834 1087.11 218.107C1087.01 218.381 1086.96 218.664 1086.96 218.957ZM1087.3 212.844C1087.3 213.124 1087.35 213.387 1087.45 213.635C1087.55 213.876 1087.69 214.09 1087.87 214.279C1088.05 214.468 1088.27 214.618 1088.54 214.729C1088.81 214.833 1089.11 214.885 1089.46 214.885C1089.79 214.885 1090.09 214.829 1090.36 214.719C1090.62 214.602 1090.85 214.449 1091.03 214.26C1091.21 214.071 1091.35 213.856 1091.45 213.615C1091.55 213.368 1091.6 213.111 1091.6 212.844C1091.6 212.577 1091.55 212.323 1091.45 212.082C1091.35 211.841 1091.21 211.63 1091.03 211.447C1090.85 211.258 1090.62 211.109 1090.36 210.998C1090.09 210.881 1089.79 210.822 1089.46 210.822C1089.11 210.822 1088.81 210.878 1088.54 210.988C1088.27 211.092 1088.05 211.239 1087.87 211.428C1087.69 211.61 1087.55 211.825 1087.45 212.072C1087.35 212.32 1087.3 212.577 1087.3 212.844ZM1096.62 218.342H1098.92C1098.92 218.726 1098.98 219.09 1099.1 219.436C1099.21 219.774 1099.39 220.074 1099.61 220.334C1099.84 220.594 1100.11 220.803 1100.43 220.959C1100.75 221.109 1101.11 221.184 1101.52 221.184C1101.91 221.184 1102.28 221.109 1102.6 220.959C1102.93 220.803 1103.21 220.594 1103.44 220.334C1103.68 220.074 1103.85 219.774 1103.97 219.436C1104.09 219.09 1104.15 218.726 1104.15 218.342C1104.15 217.958 1104.09 217.596 1103.97 217.258C1103.85 216.913 1103.68 216.61 1103.44 216.35C1103.21 216.089 1102.93 215.884 1102.6 215.734C1102.28 215.578 1101.91 215.5 1101.52 215.5C1101.01 215.5 1100.55 215.624 1100.15 215.871C1099.75 216.118 1099.42 216.509 1099.15 217.043H1096.86V208.996H1105.36V211.057H1098.92V214.943C1099.07 214.676 1099.26 214.449 1099.5 214.26C1099.74 214.071 1100 213.918 1100.28 213.801C1100.56 213.677 1100.84 213.589 1101.13 213.537C1101.41 213.485 1101.68 213.459 1101.92 213.459C1102.67 213.459 1103.32 213.589 1103.89 213.85C1104.46 214.11 1104.93 214.465 1105.31 214.914C1105.68 215.357 1105.97 215.874 1106.17 216.467C1106.36 217.059 1106.46 217.684 1106.46 218.342C1106.46 219.006 1106.34 219.631 1106.11 220.217C1105.87 220.803 1105.54 221.324 1105.1 221.779C1104.67 222.235 1104.15 222.593 1103.55 222.854C1102.94 223.114 1102.27 223.244 1101.52 223.244C1100.77 223.244 1100.1 223.114 1099.5 222.854C1098.9 222.593 1098.38 222.235 1097.95 221.779C1097.53 221.324 1097.2 220.803 1096.97 220.217C1096.73 219.631 1096.62 219.006 1096.62 218.342ZM1112.87 215.5V213.684H1114.45V210.861H1116.62V213.684H1118.76V215.5H1116.62V219.338C1116.62 219.735 1116.65 220.054 1116.71 220.295C1116.77 220.536 1116.86 220.721 1116.98 220.852C1117.1 220.975 1117.24 221.06 1117.41 221.105C1117.58 221.145 1117.77 221.164 1117.98 221.164C1118.16 221.164 1118.36 221.158 1118.59 221.145C1118.82 221.125 1118.98 221.102 1119.09 221.076V223C1118.91 223.026 1118.68 223.052 1118.38 223.078C1118.09 223.104 1117.78 223.117 1117.46 223.117C1117.2 223.117 1116.89 223.094 1116.55 223.049C1116.2 223.003 1115.87 222.873 1115.55 222.658C1115.24 222.443 1114.97 222.118 1114.76 221.682C1114.55 221.239 1114.45 220.624 1114.45 219.836V215.5H1112.87ZM1120.24 218.342C1120.24 217.691 1120.36 217.069 1120.59 216.477C1120.82 215.878 1121.15 215.354 1121.58 214.904C1122.01 214.449 1122.52 214.09 1123.12 213.83C1123.72 213.57 1124.39 213.439 1125.14 213.439C1125.89 213.439 1126.57 213.57 1127.17 213.83C1127.78 214.09 1128.29 214.449 1128.72 214.904C1129.16 215.354 1129.49 215.874 1129.72 216.467C1129.96 217.059 1130.07 217.684 1130.07 218.342C1130.07 219.006 1129.96 219.631 1129.72 220.217C1129.49 220.803 1129.16 221.324 1128.72 221.779C1128.29 222.235 1127.78 222.593 1127.17 222.854C1126.57 223.114 1125.89 223.244 1125.14 223.244C1124.39 223.244 1123.72 223.114 1123.12 222.854C1122.52 222.593 1122.01 222.235 1121.58 221.779C1121.15 221.324 1120.82 220.803 1120.59 220.217C1120.36 219.631 1120.24 219.006 1120.24 218.342ZM1122.42 218.342C1122.42 218.739 1122.48 219.12 1122.6 219.484C1122.73 219.842 1122.92 220.155 1123.16 220.422C1123.4 220.689 1123.69 220.904 1124.02 221.066C1124.36 221.223 1124.73 221.301 1125.14 221.301C1125.55 221.301 1125.93 221.223 1126.26 221.066C1126.61 220.904 1126.9 220.689 1127.13 220.422C1127.37 220.155 1127.56 219.842 1127.69 219.484C1127.83 219.12 1127.89 218.739 1127.89 218.342C1127.89 217.945 1127.83 217.567 1127.69 217.209C1127.56 216.844 1127.37 216.529 1127.13 216.262C1126.9 215.995 1126.61 215.783 1126.26 215.627C1125.93 215.464 1125.55 215.383 1125.14 215.383C1124.73 215.383 1124.36 215.464 1124.02 215.627C1123.69 215.783 1123.4 215.995 1123.16 216.262C1122.92 216.529 1122.73 216.841 1122.6 217.199C1122.48 217.557 1122.42 217.938 1122.42 218.342ZM1137.46 218.42H1139.76C1139.76 219.338 1140.01 220.044 1140.52 220.539C1141.03 221.034 1141.68 221.281 1142.48 221.281C1142.8 221.281 1143.1 221.232 1143.38 221.135C1143.66 221.031 1143.91 220.887 1144.12 220.705C1144.32 220.516 1144.49 220.292 1144.6 220.031C1144.72 219.771 1144.78 219.481 1144.78 219.162C1144.78 218.804 1144.71 218.505 1144.56 218.264C1144.43 218.023 1144.25 217.824 1144.03 217.668C1143.81 217.505 1143.57 217.372 1143.31 217.268C1143.05 217.157 1142.8 217.062 1142.56 216.984C1141.92 216.757 1141.33 216.525 1140.77 216.291C1140.21 216.057 1139.71 215.777 1139.29 215.451C1138.87 215.126 1138.55 214.729 1138.3 214.26C1138.06 213.791 1137.94 213.205 1137.94 212.502C1137.94 212.007 1138.03 211.555 1138.2 211.145C1138.37 210.728 1138.61 210.36 1138.91 210.041C1139.21 209.722 1139.56 209.455 1139.96 209.24C1140.38 209.025 1140.81 208.872 1141.28 208.781V206.604H1143.32V208.762C1143.82 208.866 1144.27 209.042 1144.68 209.289C1145.1 209.536 1145.46 209.849 1145.77 210.227C1146.07 210.598 1146.31 211.021 1146.48 211.496C1146.65 211.965 1146.74 212.479 1146.74 213.039H1144.45C1144.45 212.349 1144.25 211.792 1143.85 211.369C1143.46 210.939 1142.96 210.725 1142.35 210.725C1141.77 210.725 1141.28 210.871 1140.86 211.164C1140.45 211.457 1140.25 211.903 1140.25 212.502C1140.25 212.782 1140.3 213.033 1140.41 213.254C1140.52 213.469 1140.68 213.658 1140.87 213.82C1141.07 213.983 1141.28 214.123 1141.52 214.24C1141.76 214.357 1142.01 214.465 1142.28 214.562C1142.83 214.764 1143.38 214.976 1143.95 215.197C1144.52 215.412 1145.04 215.682 1145.5 216.008C1145.97 216.333 1146.35 216.73 1146.64 217.199C1146.94 217.668 1147.08 218.234 1147.08 218.898C1147.08 219.523 1146.99 220.087 1146.79 220.588C1146.6 221.089 1146.34 221.525 1145.99 221.896C1145.65 222.261 1145.25 222.557 1144.8 222.785C1144.35 223.007 1143.86 223.166 1143.32 223.264V225.402H1141.28V223.244C1140.75 223.153 1140.25 222.977 1139.79 222.717C1139.33 222.45 1138.93 222.115 1138.58 221.711C1138.23 221.301 1137.96 220.819 1137.76 220.266C1137.56 219.712 1137.46 219.097 1137.46 218.42ZM1149.27 213.137V211.32C1149.91 211.32 1150.43 211.278 1150.83 211.193C1151.24 211.102 1151.55 210.969 1151.77 210.793C1152 210.611 1152.15 210.373 1152.23 210.08C1152.32 209.787 1152.36 209.426 1152.36 208.996H1154.54V223H1152.15V213.137H1149.27Z" fill="black"/>
<path d="M1118.5 147C1139.21 147 1156 130.211 1156 109.5C1156 88.7893 1139.21 72 1118.5 72C1097.79 72 1081 88.7893 1081 109.5C1081 130.211 1097.79 147 1118.5 147Z" fill="#CFD6E2"/>
<mask id="mask1" mask-type="alpha" maskUnits="userSpaceOnUse" x="1081" y="72" width="75" height="75">
<path d="M1118.5 147C1139.21 147 1156 130.211 1156 109.5C1156 88.7893 1139.21 72 1118.5 72C1097.79 72 1081 88.7893 1081 109.5C1081 130.211 1097.79 147 1118.5 147Z" fill="white"/>
</mask>
<g mask="url(#mask1)">
<path d="M1121.22 84.4262C1120.22 80.0512 1124.96 76.694 1129.84 78.9987C1141.34 84.4262 1134.67 92.5512 1130.54 91.6762C1126.42 90.8012 1122.22 88.8012 1121.22 84.4262Z" fill="url(#paint4_linear)"/>
<path d="M1124 112C1118.63 114.58 1117.85 114.442 1106 104.75C1088.12 90.125 1105 76.75 1123.12 83.875C1142.75 92.5 1136.18 106.151 1124 112Z" fill="url(#paint5_linear)"/>
<path fill-rule="evenodd" clip-rule="evenodd" d="M1124.5 122.25C1122.67 126.25 1120.33 128.25 1118.5 128.25C1116.67 128.25 1114.33 126.25 1112.5 122.25V117.25C1112.5 117.25 1111.68 117.274 1111.13 117.25C1105.28 116.999 1103.32 107.593 1104.24 98.1844C1104.91 91.294 1110.75 100.75 1120.25 94.125C1119.88 101.375 1123 100.625 1124.38 99.75C1130.63 96.875 1130.75 108.625 1124.57 107.714C1124.58 107.84 1124.55 112.685 1124.5 122.25Z" fill="url(#paint6_linear)"/>
<path d="M1112.5 117.25C1114.75 117.083 1117.55 115.825 1120.91 113.475C1119.88 117.016 1117.08 119.108 1112.5 119.75L1112.5 117.25Z" fill="#FF9768"/>
<path fill-rule="evenodd" clip-rule="evenodd" d="M1110.43 123.704C1110.43 123.704 1110.81 121.1 1111.69 120.877C1112.58 120.654 1117.75 120.627 1117.75 121.627C1117.75 121.81 1117.93 123.778 1118.52 123.778C1119.11 123.778 1119.26 121.81 1119.26 121.627C1119.27 120.627 1124.41 120.666 1125.32 120.877C1126.24 121.088 1126.58 123.707 1126.58 123.707C1126.58 123.707 1140.08 130.064 1141.5 132.778C1142.72 135.111 1143.64 140.528 1144.25 149.028H1092.75C1093.36 140.528 1094.28 135.111 1095.5 132.778C1096.92 130.066 1110.43 123.704 1110.43 123.704Z" fill="#1CE777"/>
<path fill-rule="evenodd" clip-rule="evenodd" d="M1118.5 131.75C1119.05 131.75 1119.5 131.302 1119.5 130.75C1119.5 130.198 1119.05 129.75 1118.5 129.75C1117.95 129.75 1117.5 130.198 1117.5 130.75C1117.5 131.302 1117.95 131.75 1118.5 131.75ZM1118.5 136.75C1119.05 136.75 1119.5 136.302 1119.5 135.75C1119.5 135.198 1119.05 134.75 1118.5 134.75C1117.95 134.75 1117.5 135.198 1117.5 135.75C1117.5 136.302 1117.95 136.75 1118.5 136.75ZM1119.5 140.75C1119.5 141.302 1119.05 141.75 1118.5 141.75C1117.95 141.75 1117.5 141.302 1117.5 140.75C1117.5 140.198 1117.95 139.75 1118.5 139.75C1119.05 139.75 1119.5 140.198 1119.5 140.75Z" fill="#1CE777"/>
<path d="M1121.15 91.857C1117.15 101.857 1119.4 106.732 1122.52 112.607C1125.65 118.482 1121.77 123.982 1121.77 123.982C1121.77 123.982 1126.27 121.107 1126.27 114.732C1126.27 108.357 1121.77 104.357 1125.52 99.107C1129.27 93.857 1125.15 81.857 1121.15 91.857Z" fill="url(#paint7_linear)"/>
</g>
<path fill-rule="evenodd" clip-rule="evenodd" d="M326 150H326.103H326.103C333.493 150 339.175 150 343.7 150.41C348.273 150.825 351.86 151.671 355 153.483C358.952 155.765 362.235 159.048 364.517 163C366.329 166.14 367.175 169.727 367.59 174.3C368 178.825 368 184.507 368 191.897V191.897V192V270C368 277.514 368.002 283.015 368.394 287.339C368.783 291.635 369.545 294.571 370.947 297C372.878 300.344 375.656 303.122 379 305.053C381.429 306.455 384.365 307.217 388.661 307.606C392.985 307.998 398.486 308 406 308H502C513.37 308 521.697 307.996 528.068 307.139C534.382 306.29 538.475 304.638 541.556 301.556C544.638 298.475 546.29 294.382 547.139 288.068C547.996 281.697 548 273.37 548 262V188.5C548 187.395 548.895 186.5 550 186.5C551.105 186.5 552 187.395 552 188.5V262V262.158V262.158C552 273.338 552 281.933 551.103 288.601C550.195 295.358 548.333 300.437 544.385 304.385C540.437 308.333 535.358 310.195 528.601 311.103C521.933 312 513.338 312 502.158 312H502H406H405.897C398.507 312 392.825 312 388.3 311.59C383.727 311.175 380.14 310.329 377 308.517C373.048 306.235 369.765 302.952 367.483 299C365.671 295.86 364.825 292.273 364.41 287.7C364 283.175 364 277.493 364 270.103V270.103V270V192C364 184.486 363.998 178.985 363.606 174.661C363.217 170.365 362.455 167.429 361.053 165C359.122 161.656 356.344 158.878 353 156.947C350.571 155.545 347.635 154.783 343.339 154.394C339.015 154.002 333.514 154 326 154V150Z" fill="#0383EF"/>
<path d="M542 194L550 186L558 194" stroke="#0383EF" stroke-width="4" stroke-linecap="round" stroke-linejoin="round"/>
<circle r="7" transform="matrix(-1 0 0 1 319 152)" stroke="#0383EF" stroke-width="4" stroke-linecap="round" stroke-linejoin="round"/>
<path fill-rule="evenodd" clip-rule="evenodd" d="M878 158H877.897H877.897C870.507 158 864.825 158 860.3 158.41C855.727 158.825 852.14 159.671 849 161.483C845.048 163.765 841.765 167.048 839.483 171C837.671 174.14 836.825 177.727 836.41 182.3C836 186.825 836 192.507 836 199.897V199.897V200V278C836 285.514 835.998 291.015 835.606 295.339C835.217 299.635 834.455 302.571 833.053 305C831.122 308.344 828.344 311.122 825 313.053C822.571 314.455 819.635 315.217 815.339 315.606C811.015 315.998 805.514 316 798 316H702C690.63 316 682.303 315.996 675.932 315.139C669.618 314.29 665.525 312.638 662.444 309.556C659.362 306.475 657.71 302.382 656.861 296.068C656.004 289.697 656 281.37 656 270V196.5C656 195.395 655.105 194.5 654 194.5C652.895 194.5 652 195.395 652 196.5V270V270.158V270.158C652 281.338 652 289.933 652.897 296.601C653.805 303.358 655.667 308.437 659.615 312.385C663.563 316.333 668.642 318.195 675.399 319.103C682.067 320 690.662 320 701.842 320H702H798H798.103C805.493 320 811.175 320 815.7 319.59C820.273 319.175 823.86 318.329 827 316.517C830.952 314.235 834.235 310.952 836.517 307C838.329 303.86 839.175 300.273 839.59 295.7C840 291.175 840 285.493 840 278.103V278.103V278V200C840 192.486 840.002 186.985 840.394 182.661C840.783 178.365 841.545 175.429 842.947 173C844.878 169.656 847.656 166.878 851 164.947C853.429 163.545 856.365 162.783 860.661 162.394C864.985 162.002 870.486 162 878 162V158Z" fill="#0383EF"/>
<path d="M662 202L654 194L646 202" stroke="#0383EF" stroke-width="4" stroke-linecap="round" stroke-linejoin="round"/>
<circle cx="885" cy="160" r="7" stroke="#0383EF" stroke-width="4" stroke-linecap="round" stroke-linejoin="round"/>
<defs>
<filter id="filter0_d" x="424" y="85" width="354" height="117" filterUnits="userSpaceOnUse" color-interpolation-filters="sRGB">
<feFlood flood-opacity="0" result="BackgroundImageFix"/>
<feColorMatrix in="SourceAlpha" type="matrix" values="0 0 0 0 0 0 0 0 0 0 0 0 0 0 0 0 0 0 127 0"/>
<feOffset dy="4"/>
<feGaussianBlur stdDeviation="8"/>
<feColorMatrix type="matrix" values="0 0 0 0 0 0 0 0 0 0 0 0 0 0 0 0 0 0 0.1 0"/>
<feBlend mode="normal" in2="BackgroundImageFix" result="effect1_dropShadow"/>
<feBlend mode="normal" in="SourceGraphic" in2="effect1_dropShadow" result="shape"/>
</filter>
<filter id="filter1_d" x="0" y="0" width="332" height="332" filterUnits="userSpaceOnUse" color-interpolation-filters="sRGB">
<feFlood flood-opacity="0" result="BackgroundImageFix"/>
<feColorMatrix in="SourceAlpha" type="matrix" values="0 0 0 0 0 0 0 0 0 0 0 0 0 0 0 0 0 0 127 0"/>
<feOffset dy="4"/>
<feGaussianBlur stdDeviation="8"/>
<feColorMatrix type="matrix" values="0 0 0 0 0 0 0 0 0 0 0 0 0 0 0 0 0 0 0.1 0"/>
<feBlend mode="normal" in2="BackgroundImageFix" result="effect1_dropShadow"/>
<feBlend mode="normal" in="SourceGraphic" in2="effect1_dropShadow" result="shape"/>
</filter>
<filter id="filter2_d" x="870" y="0" width="332" height="332" filterUnits="userSpaceOnUse" color-interpolation-filters="sRGB">
<feFlood flood-opacity="0" result="BackgroundImageFix"/>
<feColorMatrix in="SourceAlpha" type="matrix" values="0 0 0 0 0 0 0 0 0 0 0 0 0 0 0 0 0 0 127 0"/>
<feOffset dy="4"/>
<feGaussianBlur stdDeviation="8"/>
<feColorMatrix type="matrix" values="0 0 0 0 0 0 0 0 0 0 0 0 0 0 0 0 0 0 0.1 0"/>
<feBlend mode="normal" in2="BackgroundImageFix" result="effect1_dropShadow"/>
<feBlend mode="normal" in="SourceGraphic" in2="effect1_dropShadow" result="shape"/>
</filter>
<linearGradient id="paint0_linear" x1="70" y1="89.865" x2="70" y2="129.25" gradientUnits="userSpaceOnUse">
<stop stop-color="#E6864E"/>
<stop offset="1" stop-color="#EB965E"/>
</linearGradient>
<linearGradient id="paint1_linear" x1="85.65" y1="112.589" x2="84.1205" y2="118.392" gradientUnits="userSpaceOnUse">
<stop stop-color="#E07A3F"/>
<stop offset="1" stop-color="#EB9154"/>
</linearGradient>
<linearGradient id="paint2_linear" x1="53.5" y1="122.5" x2="53.5" y2="147.827" gradientUnits="userSpaceOnUse">
<stop stop-color="#1D0024"/>
<stop offset="1" stop-color="#100014"/>
</linearGradient>
<linearGradient id="paint3_linear" x1="68.5" y1="79.5" x2="68.5" y2="109.501" gradientUnits="userSpaceOnUse">
<stop stop-color="#1D0024"/>
<stop offset="1" stop-color="#100014"/>
</linearGradient>
<linearGradient id="paint4_linear" x1="1136.25" y1="78.25" x2="1136.25" y2="91.7415" gradientUnits="userSpaceOnUse">
<stop stop-color="#1D0024"/>
<stop offset="1" stop-color="#100014"/>
</linearGradient>
<linearGradient id="paint5_linear" x1="1098.39" y1="81.9019" x2="1098.39" y2="113.421" gradientUnits="userSpaceOnUse">
<stop stop-color="#1D0024"/>
<stop offset="1" stop-color="#100014"/>
</linearGradient>
<linearGradient id="paint6_linear" x1="1104.03" y1="94.125" x2="1104.03" y2="128.25" gradientUnits="userSpaceOnUse">
<stop stop-color="#F7B186"/>
<stop offset="1" stop-color="#FFC299"/>
</linearGradient>
<linearGradient id="paint7_linear" x1="1127" y1="88" x2="1127" y2="123.982" gradientUnits="userSpaceOnUse">
<stop stop-color="#1D0024"/>
<stop offset="1" stop-color="#100014"/>
</linearGradient>
</defs>
</svg>
