<svg width="428" height="64" viewBox="0 0 428 64" fill="none" xmlns="http://www.w3.org/2000/svg">
<path d="M0.292969 2.16406V0.195312H11.1797V2.16406H6.82031V17H4.62891V2.16406H0.292969ZM13.3359 17V0.195312H15.4219V8.02344C15.7422 7.35156 16.2266 6.81641 16.875 6.41797C17.5234 6.01953 18.3281 5.82031 19.2891 5.82031C19.9922 5.82031 20.6133 5.94141 21.1523 6.18359C21.6992 6.41797 22.1562 6.77734 22.5234 7.26172C22.8281 7.67578 23.043 8.14062 23.168 8.65625C23.3008 9.16406 23.3672 9.80078 23.3672 10.5664V17H21.2812V11.2109C21.2812 10.7188 21.2305 10.2539 21.1289 9.81641C21.0352 9.37109 20.8789 8.99219 20.6602 8.67969C20.4492 8.36719 20.168 8.12109 19.8164 7.94141C19.4648 7.75391 19.0391 7.66016 18.5391 7.66016C18.0078 7.66016 17.5469 7.76562 17.1562 7.97656C16.7656 8.1875 16.4414 8.46484 16.1836 8.80859C15.9336 9.15234 15.7422 9.54688 15.6094 9.99219C15.4844 10.4375 15.4219 10.9023 15.4219 11.3867V17H13.3359ZM26.0625 11.5039C26.0625 10.6914 26.1875 9.94141 26.4375 9.25391C26.6875 8.55859 27.0391 7.95703 27.4922 7.44922C27.9453 6.93359 28.4961 6.53516 29.1445 6.25391C29.793 5.96484 30.5195 5.82031 31.3242 5.82031C32.0742 5.82031 32.7656 5.94531 33.3984 6.19531C34.0312 6.4375 34.5742 6.78516 35.0273 7.23828C35.4805 7.68359 35.8359 8.20703 36.0938 8.80859C36.3516 9.40234 36.4805 10.043 36.4805 10.7305C36.4805 10.8867 36.4766 11.0781 36.4688 11.3047C36.4609 11.5312 36.4336 11.7969 36.3867 12.1016H28.1953C28.1953 12.5625 28.2578 13 28.3828 13.4141C28.5156 13.8203 28.7148 14.1797 28.9805 14.4922C29.2461 14.8047 29.5859 15.0547 30 15.2422C30.4141 15.4219 30.9102 15.5117 31.4883 15.5117C32.3164 15.5117 32.9414 15.3398 33.3633 14.9961C33.793 14.6523 34.0938 14.25 34.2656 13.7891H36.3867C36.293 14.25 36.1133 14.6875 35.8477 15.1016C35.582 15.5156 35.2422 15.8828 34.8281 16.2031C34.4219 16.5234 33.9336 16.7812 33.3633 16.9766C32.8008 17.1719 32.1758 17.2695 31.4883 17.2695C30.5742 17.2695 29.7773 17.1094 29.0977 16.7891C28.418 16.4688 27.8516 16.043 27.3984 15.5117C26.9531 14.9805 26.6172 14.3672 26.3906 13.6719C26.1719 12.9766 26.0625 12.2539 26.0625 11.5039ZM28.2188 10.5195H34.4648C34.4648 9.62109 34.1758 8.91016 33.5977 8.38672C33.0273 7.85547 32.2852 7.58984 31.3711 7.58984C30.5039 7.58984 29.7695 7.83984 29.168 8.33984C28.5664 8.83203 28.25 9.55859 28.2188 10.5195ZM44.7188 11.5508C44.7188 10.7852 44.8555 10.0547 45.1289 9.35938C45.4023 8.66406 45.7852 8.05078 46.2773 7.51953C46.7773 6.98828 47.3594 6.57422 48.0234 6.27734C48.6875 5.97266 49.418 5.82031 50.2148 5.82031C51.1602 5.82031 51.9648 6.02344 52.6289 6.42969C53.293 6.83594 53.793 7.35156 54.1289 7.97656V6.10156H56.2148V22.9062H54.1289V15.1016C53.793 15.7266 53.293 16.2461 52.6289 16.6602C51.9648 17.0664 51.1602 17.2695 50.2148 17.2695C49.418 17.2695 48.6836 17.1133 48.0117 16.8008C47.3398 16.4883 46.7578 16.0742 46.2656 15.5586C45.7812 15.0352 45.4023 14.4297 45.1289 13.7422C44.8555 13.0469 44.7188 12.3164 44.7188 11.5508ZM46.8047 11.5508C46.8047 12.0664 46.8867 12.5547 47.0508 13.0156C47.2227 13.4766 47.4688 13.8867 47.7891 14.2461C48.1094 14.5977 48.4922 14.8789 48.9375 15.0898C49.3906 15.293 49.8945 15.3945 50.4492 15.3945C50.9961 15.3945 51.4961 15.2969 51.9492 15.1016C52.4102 14.8984 52.8008 14.6211 53.1211 14.2695C53.4414 13.9102 53.6875 13.5 53.8594 13.0391C54.0391 12.5781 54.1289 12.082 54.1289 11.5508C54.1289 11.0195 54.0391 10.5195 53.8594 10.0508C53.6875 9.58203 53.4414 9.17578 53.1211 8.83203C52.8008 8.48828 52.4102 8.21094 51.9492 8C51.4961 7.78906 50.9961 7.68359 50.4492 7.68359C49.8867 7.68359 49.3828 7.78906 48.9375 8C48.4922 8.21094 48.1094 8.49219 47.7891 8.84375C47.4688 9.19531 47.2227 9.60938 47.0508 10.0859C46.8867 10.5547 46.8047 11.043 46.8047 11.5508ZM59.7305 12.5352V6.10156H61.8164V11.8672C61.8164 12.3828 61.8633 12.8555 61.957 13.2852C62.0586 13.7148 62.2148 14.0859 62.4258 14.3984C62.6445 14.7109 62.9258 14.9609 63.2695 15.1484C63.6133 15.3281 64.0352 15.418 64.5352 15.418C65.0664 15.418 65.5312 15.3203 65.9297 15.125C66.3281 14.9219 66.6523 14.6484 66.9023 14.3047C67.1602 13.9609 67.3516 13.5664 67.4766 13.1211C67.6094 12.668 67.6758 12.1914 67.6758 11.6914V6.10156H69.7617V17H67.6758V15.0547C67.3555 15.7266 66.8672 16.2656 66.2109 16.6719C65.5547 17.0703 64.7461 17.2695 63.7852 17.2695C63.0977 17.2695 62.4766 17.1523 61.9219 16.918C61.375 16.6836 60.918 16.3281 60.5508 15.8516C60.2461 15.4375 60.0312 14.9727 59.9062 14.457C59.7891 13.9414 59.7305 13.3008 59.7305 12.5352ZM73.2773 1.97656C73.2773 1.51562 73.4414 1.11719 73.7695 0.78125C74.0977 0.445312 74.4961 0.277344 74.9648 0.277344C75.4258 0.277344 75.8203 0.445312 76.1484 0.78125C76.4766 1.11719 76.6406 1.51562 76.6406 1.97656C76.6406 2.4375 76.4766 2.82812 76.1484 3.14844C75.8203 3.46875 75.4258 3.62891 74.9648 3.62891C74.5039 3.62891 74.1055 3.46875 73.7695 3.14844C73.4414 2.82812 73.2773 2.4375 73.2773 1.97656ZM73.9336 17V6.10156H75.9961V17H73.9336ZM79.3125 11.5508C79.3125 10.8164 79.4258 10.1055 79.6523 9.41797C79.8867 8.73047 80.2305 8.12109 80.6836 7.58984C81.1445 7.05078 81.7227 6.62109 82.418 6.30078C83.1133 5.98047 83.9258 5.82031 84.8555 5.82031C85.668 5.82031 86.3789 5.94141 86.9883 6.18359C87.5977 6.41797 88.1094 6.73438 88.5234 7.13281C88.9453 7.53125 89.2656 7.98438 89.4844 8.49219C89.7109 8.99219 89.8477 9.51562 89.8945 10.0625H87.8086C87.7305 9.39062 87.4531 8.82812 86.9766 8.375C86.5078 7.91406 85.8164 7.68359 84.9023 7.68359C84.293 7.68359 83.7695 7.78906 83.332 8C82.8945 8.21094 82.5312 8.49609 82.2422 8.85547C81.9531 9.21484 81.7383 9.62891 81.5977 10.0977C81.4648 10.5586 81.3984 11.043 81.3984 11.5508C81.3984 12.0664 81.4648 12.5547 81.5977 13.0156C81.7383 13.4766 81.9531 13.8867 82.2422 14.2461C82.5312 14.5977 82.8984 14.8789 83.3438 15.0898C83.7891 15.293 84.3242 15.3945 84.9492 15.3945C85.8164 15.3945 86.4688 15.2031 86.9062 14.8203C87.3516 14.4297 87.6602 13.9102 87.832 13.2617H89.918C89.8398 13.793 89.6797 14.3008 89.4375 14.7852C89.2031 15.2695 88.8711 15.6953 88.4414 16.0625C88.0195 16.4297 87.5117 16.7227 86.918 16.9414C86.332 17.1602 85.6523 17.2695 84.8789 17.2695C83.9336 17.2695 83.1133 17.1094 82.418 16.7891C81.7227 16.4688 81.1445 16.043 80.6836 15.5117C80.2305 14.9805 79.8867 14.3711 79.6523 13.6836C79.4258 12.9961 79.3125 12.2852 79.3125 11.5508ZM92.8594 17V0.195312H94.9453V11.0703L99.5039 6.10156H102.141L97.1719 11.5508L102.141 17H99.5039L94.9453 12.0547V17H92.8594ZM102.844 11.5039C102.844 10.6914 102.969 9.94141 103.219 9.25391C103.469 8.55859 103.82 7.95703 104.273 7.44922C104.727 6.93359 105.277 6.53516 105.926 6.25391C106.574 5.96484 107.301 5.82031 108.105 5.82031C108.855 5.82031 109.547 5.94531 110.18 6.19531C110.812 6.4375 111.355 6.78516 111.809 7.23828C112.262 7.68359 112.617 8.20703 112.875 8.80859C113.133 9.40234 113.262 10.043 113.262 10.7305C113.262 10.8867 113.258 11.0781 113.25 11.3047C113.242 11.5312 113.215 11.7969 113.168 12.1016H104.977C104.977 12.5625 105.039 13 105.164 13.4141C105.297 13.8203 105.496 14.1797 105.762 14.4922C106.027 14.8047 106.367 15.0547 106.781 15.2422C107.195 15.4219 107.691 15.5117 108.27 15.5117C109.098 15.5117 109.723 15.3398 110.145 14.9961C110.574 14.6523 110.875 14.25 111.047 13.7891H113.168C113.074 14.25 112.895 14.6875 112.629 15.1016C112.363 15.5156 112.023 15.8828 111.609 16.2031C111.203 16.5234 110.715 16.7812 110.145 16.9766C109.582 17.1719 108.957 17.2695 108.27 17.2695C107.355 17.2695 106.559 17.1094 105.879 16.7891C105.199 16.4688 104.633 16.043 104.18 15.5117C103.734 14.9805 103.398 14.3672 103.172 13.6719C102.953 12.9766 102.844 12.2539 102.844 11.5039ZM105 10.5195H111.246C111.246 9.62109 110.957 8.91016 110.379 8.38672C109.809 7.85547 109.066 7.58984 108.152 7.58984C107.285 7.58984 106.551 7.83984 105.949 8.33984C105.348 8.83203 105.031 9.55859 105 10.5195ZM116.297 17V6.10156H118.383V8.23438C118.672 7.54688 119.152 6.99219 119.824 6.57031C120.496 6.14844 121.23 5.9375 122.027 5.9375C122.426 5.9375 122.762 5.99219 123.035 6.10156V8.02344C122.809 7.97656 122.629 7.94531 122.496 7.92969C122.363 7.91406 122.223 7.90625 122.074 7.90625C120.809 7.90625 119.875 8.30078 119.273 9.08984C118.68 9.87109 118.383 10.9141 118.383 12.2188V17H116.297ZM121.582 15.4648C121.582 15.0039 121.742 14.6055 122.062 14.2695C122.383 13.9336 122.805 13.7656 123.328 13.7656C123.906 13.7656 124.379 13.9883 124.746 14.4336C125.113 14.8789 125.297 15.543 125.297 16.4258C125.297 17.5977 124.965 18.4492 124.301 18.9805C123.637 19.5195 122.77 19.7891 121.699 19.7891V18.7578C122.176 18.7578 122.543 18.6875 122.801 18.5469C123.059 18.4141 123.266 18.2344 123.422 18.0078C123.664 17.6562 123.785 17.3047 123.785 16.9531C123.738 17 123.66 17.043 123.551 17.082C123.449 17.1211 123.32 17.1406 123.164 17.1406C122.703 17.1406 122.324 16.9766 122.027 16.6484C121.73 16.3203 121.582 15.9258 121.582 15.4648ZM134.602 17V6.10156H136.688V8.04688C136.914 7.42188 137.297 6.89453 137.836 6.46484C138.383 6.03516 139.113 5.82031 140.027 5.82031C140.91 5.82031 141.645 6.02734 142.23 6.44141C142.824 6.85547 143.215 7.42188 143.402 8.14062C143.645 7.51562 144.066 6.97266 144.668 6.51172C145.27 6.05078 146.074 5.82031 147.082 5.82031C147.738 5.82031 148.301 5.93359 148.77 6.16016C149.246 6.37891 149.629 6.67969 149.918 7.0625C150.215 7.44531 150.434 7.90234 150.574 8.43359C150.723 8.95703 150.797 9.51562 150.797 10.1094V17H148.711V10.7305C148.711 9.72266 148.516 8.96094 148.125 8.44531C147.734 7.92188 147.16 7.66016 146.402 7.66016C145.59 7.66016 144.941 7.97266 144.457 8.59766C143.98 9.22266 143.742 10.1758 143.742 11.457V17H141.656V10.8594C141.656 9.75781 141.461 8.94922 141.07 8.43359C140.68 7.91797 140.121 7.66016 139.395 7.66016C138.582 7.66016 137.926 7.96875 137.426 8.58594C136.934 9.20312 136.688 10.1602 136.688 11.457V17H134.602ZM153.492 11.5508C153.492 10.7852 153.629 10.0547 153.902 9.35938C154.176 8.66406 154.559 8.05078 155.051 7.51953C155.551 6.98828 156.156 6.57422 156.867 6.27734C157.578 5.97266 158.363 5.82031 159.223 5.82031C160.09 5.82031 160.875 5.97266 161.578 6.27734C162.281 6.57422 162.883 6.98828 163.383 7.51953C163.891 8.05078 164.281 8.66406 164.555 9.35938C164.828 10.0547 164.965 10.7852 164.965 11.5508C164.965 12.3164 164.828 13.0469 164.555 13.7422C164.281 14.4297 163.895 15.0391 163.395 15.5703C162.902 16.0938 162.301 16.5078 161.59 16.8125C160.879 17.1172 160.09 17.2695 159.223 17.2695C158.34 17.2695 157.547 17.1172 156.844 16.8125C156.148 16.5078 155.551 16.0938 155.051 15.5703C154.559 15.0391 154.176 14.4297 153.902 13.7422C153.629 13.0469 153.492 12.3164 153.492 11.5508ZM155.555 11.5508C155.555 12.082 155.641 12.5781 155.812 13.0391C155.992 13.5 156.242 13.9062 156.562 14.2578C156.883 14.6016 157.266 14.8789 157.711 15.0898C158.156 15.293 158.66 15.3945 159.223 15.3945C159.785 15.3945 160.289 15.293 160.734 15.0898C161.188 14.8789 161.574 14.6016 161.895 14.2578C162.215 13.9062 162.461 13.5 162.633 13.0391C162.812 12.5781 162.902 12.082 162.902 11.5508C162.902 11.0195 162.812 10.5234 162.633 10.0625C162.461 9.60156 162.215 9.19531 161.895 8.84375C161.574 8.49219 161.188 8.21094 160.734 8C160.289 7.78906 159.785 7.68359 159.223 7.68359C158.66 7.68359 158.156 7.78906 157.711 8C157.266 8.21094 156.883 8.49219 156.562 8.84375C156.242 9.19531 155.992 9.60547 155.812 10.0742C155.641 10.5352 155.555 11.0273 155.555 11.5508ZM167.812 17V6.10156H169.898V8.23438C170.188 7.54688 170.668 6.99219 171.34 6.57031C172.012 6.14844 172.746 5.9375 173.543 5.9375C173.941 5.9375 174.277 5.99219 174.551 6.10156V8.02344C174.324 7.97656 174.145 7.94531 174.012 7.92969C173.879 7.91406 173.738 7.90625 173.59 7.90625C172.324 7.90625 171.391 8.30078 170.789 9.08984C170.195 9.87109 169.898 10.9141 169.898 12.2188V17H167.812ZM175.5 11.5039C175.5 10.6914 175.625 9.94141 175.875 9.25391C176.125 8.55859 176.477 7.95703 176.93 7.44922C177.383 6.93359 177.934 6.53516 178.582 6.25391C179.23 5.96484 179.957 5.82031 180.762 5.82031C181.512 5.82031 182.203 5.94531 182.836 6.19531C183.469 6.4375 184.012 6.78516 184.465 7.23828C184.918 7.68359 185.273 8.20703 185.531 8.80859C185.789 9.40234 185.918 10.043 185.918 10.7305C185.918 10.8867 185.914 11.0781 185.906 11.3047C185.898 11.5312 185.871 11.7969 185.824 12.1016H177.633C177.633 12.5625 177.695 13 177.82 13.4141C177.953 13.8203 178.152 14.1797 178.418 14.4922C178.684 14.8047 179.023 15.0547 179.438 15.2422C179.852 15.4219 180.348 15.5117 180.926 15.5117C181.754 15.5117 182.379 15.3398 182.801 14.9961C183.23 14.6523 183.531 14.25 183.703 13.7891H185.824C185.73 14.25 185.551 14.6875 185.285 15.1016C185.02 15.5156 184.68 15.8828 184.266 16.2031C183.859 16.5234 183.371 16.7812 182.801 16.9766C182.238 17.1719 181.613 17.2695 180.926 17.2695C180.012 17.2695 179.215 17.1094 178.535 16.7891C177.855 16.4688 177.289 16.043 176.836 15.5117C176.391 14.9805 176.055 14.3672 175.828 13.6719C175.609 12.9766 175.5 12.2539 175.5 11.5039ZM177.656 10.5195H183.902C183.902 9.62109 183.613 8.91016 183.035 8.38672C182.465 7.85547 181.723 7.58984 180.809 7.58984C179.941 7.58984 179.207 7.83984 178.605 8.33984C178.004 8.83203 177.688 9.55859 177.656 10.5195ZM194.109 13.332H196.148C196.148 14.1602 196.391 14.7461 196.875 15.0898C197.367 15.4336 197.988 15.6055 198.738 15.6055C199.395 15.6055 199.918 15.4844 200.309 15.2422C200.707 14.9922 200.906 14.6016 200.906 14.0703C200.906 13.7812 200.84 13.5508 200.707 13.3789C200.582 13.1992 200.379 13.043 200.098 12.9102C199.816 12.7695 199.453 12.6367 199.008 12.5117C198.57 12.3867 198.051 12.2188 197.449 12.0078C197.051 11.8828 196.672 11.7461 196.312 11.5977C195.961 11.4414 195.648 11.2461 195.375 11.0117C195.109 10.7773 194.895 10.5 194.73 10.1797C194.574 9.85938 194.496 9.46875 194.496 9.00781C194.496 8.46094 194.602 7.98828 194.812 7.58984C195.031 7.19141 195.324 6.85938 195.691 6.59375C196.059 6.32812 196.477 6.13281 196.945 6.00781C197.422 5.88281 197.926 5.82031 198.457 5.82031C199.082 5.82031 199.656 5.91016 200.18 6.08984C200.711 6.26172 201.168 6.51172 201.551 6.83984C201.934 7.16797 202.23 7.55469 202.441 8C202.66 8.44531 202.77 8.94141 202.77 9.48828H200.754C200.754 8.84766 200.566 8.35547 200.191 8.01172C199.816 7.66797 199.27 7.49609 198.551 7.49609C197.957 7.49609 197.469 7.62109 197.086 7.87109C196.703 8.11328 196.512 8.47656 196.512 8.96094C196.512 9.23438 196.578 9.46094 196.711 9.64062C196.852 9.8125 197.055 9.96484 197.32 10.0977C197.594 10.2227 197.922 10.3438 198.305 10.4609C198.688 10.5703 199.137 10.7031 199.652 10.8594C200.035 10.9844 200.422 11.125 200.812 11.2812C201.211 11.4297 201.559 11.6211 201.855 11.8555C202.16 12.082 202.406 12.3672 202.594 12.7109C202.789 13.0547 202.887 13.4844 202.887 14C202.887 14.5469 202.777 15.0234 202.559 15.4297C202.348 15.8359 202.055 16.1758 201.68 16.4492C201.305 16.7227 200.859 16.9258 200.344 17.0586C199.836 17.1992 199.293 17.2695 198.715 17.2695C198.074 17.2695 197.473 17.1875 196.91 17.0234C196.355 16.8672 195.867 16.625 195.445 16.2969C195.031 15.9688 194.703 15.5586 194.461 15.0664C194.227 14.5664 194.109 13.9883 194.109 13.332ZM205.031 11.5039C205.031 10.6914 205.156 9.94141 205.406 9.25391C205.656 8.55859 206.008 7.95703 206.461 7.44922C206.914 6.93359 207.465 6.53516 208.113 6.25391C208.762 5.96484 209.488 5.82031 210.293 5.82031C211.043 5.82031 211.734 5.94531 212.367 6.19531C213 6.4375 213.543 6.78516 213.996 7.23828C214.449 7.68359 214.805 8.20703 215.062 8.80859C215.32 9.40234 215.449 10.043 215.449 10.7305C215.449 10.8867 215.445 11.0781 215.438 11.3047C215.43 11.5312 215.402 11.7969 215.355 12.1016H207.164C207.164 12.5625 207.227 13 207.352 13.4141C207.484 13.8203 207.684 14.1797 207.949 14.4922C208.215 14.8047 208.555 15.0547 208.969 15.2422C209.383 15.4219 209.879 15.5117 210.457 15.5117C211.285 15.5117 211.91 15.3398 212.332 14.9961C212.762 14.6523 213.062 14.25 213.234 13.7891H215.355C215.262 14.25 215.082 14.6875 214.816 15.1016C214.551 15.5156 214.211 15.8828 213.797 16.2031C213.391 16.5234 212.902 16.7812 212.332 16.9766C211.77 17.1719 211.145 17.2695 210.457 17.2695C209.543 17.2695 208.746 17.1094 208.066 16.7891C207.387 16.4688 206.82 16.043 206.367 15.5117C205.922 14.9805 205.586 14.3672 205.359 13.6719C205.141 12.9766 205.031 12.2539 205.031 11.5039ZM207.188 10.5195H213.434C213.434 9.62109 213.145 8.91016 212.566 8.38672C211.996 7.85547 211.254 7.58984 210.34 7.58984C209.473 7.58984 208.738 7.83984 208.137 8.33984C207.535 8.83203 207.219 9.55859 207.188 10.5195ZM217.641 11.5508C217.641 10.8164 217.754 10.1055 217.98 9.41797C218.215 8.73047 218.559 8.12109 219.012 7.58984C219.473 7.05078 220.051 6.62109 220.746 6.30078C221.441 5.98047 222.254 5.82031 223.184 5.82031C223.996 5.82031 224.707 5.94141 225.316 6.18359C225.926 6.41797 226.438 6.73438 226.852 7.13281C227.273 7.53125 227.594 7.98438 227.812 8.49219C228.039 8.99219 228.176 9.51562 228.223 10.0625H226.137C226.059 9.39062 225.781 8.82812 225.305 8.375C224.836 7.91406 224.145 7.68359 223.23 7.68359C222.621 7.68359 222.098 7.78906 221.66 8C221.223 8.21094 220.859 8.49609 220.57 8.85547C220.281 9.21484 220.066 9.62891 219.926 10.0977C219.793 10.5586 219.727 11.043 219.727 11.5508C219.727 12.0664 219.793 12.5547 219.926 13.0156C220.066 13.4766 220.281 13.8867 220.57 14.2461C220.859 14.5977 221.227 14.8789 221.672 15.0898C222.117 15.293 222.652 15.3945 223.277 15.3945C224.145 15.3945 224.797 15.2031 225.234 14.8203C225.68 14.4297 225.988 13.9102 226.16 13.2617H228.246C228.168 13.793 228.008 14.3008 227.766 14.7852C227.531 15.2695 227.199 15.6953 226.77 16.0625C226.348 16.4297 225.84 16.7227 225.246 16.9414C224.66 17.1602 223.98 17.2695 223.207 17.2695C222.262 17.2695 221.441 17.1094 220.746 16.7891C220.051 16.4688 219.473 16.043 219.012 15.5117C218.559 14.9805 218.215 14.3711 217.98 13.6836C217.754 12.9961 217.641 12.2852 217.641 11.5508ZM230.965 12.5352V6.10156H233.051V11.8672C233.051 12.3828 233.098 12.8555 233.191 13.2852C233.293 13.7148 233.449 14.0859 233.66 14.3984C233.879 14.7109 234.16 14.9609 234.504 15.1484C234.848 15.3281 235.27 15.418 235.77 15.418C236.301 15.418 236.766 15.3203 237.164 15.125C237.562 14.9219 237.887 14.6484 238.137 14.3047C238.395 13.9609 238.586 13.5664 238.711 13.1211C238.844 12.668 238.91 12.1914 238.91 11.6914V6.10156H240.996V17H238.91V15.0547C238.59 15.7266 238.102 16.2656 237.445 16.6719C236.789 17.0703 235.98 17.2695 235.02 17.2695C234.332 17.2695 233.711 17.1523 233.156 16.918C232.609 16.6836 232.152 16.3281 231.785 15.8516C231.48 15.4375 231.266 14.9727 231.141 14.457C231.023 13.9414 230.965 13.3008 230.965 12.5352ZM244.758 17V6.10156H246.844V8.23438C247.133 7.54688 247.613 6.99219 248.285 6.57031C248.957 6.14844 249.691 5.9375 250.488 5.9375C250.887 5.9375 251.223 5.99219 251.496 6.10156V8.02344C251.27 7.97656 251.09 7.94531 250.957 7.92969C250.824 7.91406 250.684 7.90625 250.535 7.90625C249.27 7.90625 248.336 8.30078 247.734 9.08984C247.141 9.87109 246.844 10.9141 246.844 12.2188V17H244.758ZM252.445 11.5039C252.445 10.6914 252.57 9.94141 252.82 9.25391C253.07 8.55859 253.422 7.95703 253.875 7.44922C254.328 6.93359 254.879 6.53516 255.527 6.25391C256.176 5.96484 256.902 5.82031 257.707 5.82031C258.457 5.82031 259.148 5.94531 259.781 6.19531C260.414 6.4375 260.957 6.78516 261.41 7.23828C261.863 7.68359 262.219 8.20703 262.477 8.80859C262.734 9.40234 262.863 10.043 262.863 10.7305C262.863 10.8867 262.859 11.0781 262.852 11.3047C262.844 11.5312 262.816 11.7969 262.77 12.1016H254.578C254.578 12.5625 254.641 13 254.766 13.4141C254.898 13.8203 255.098 14.1797 255.363 14.4922C255.629 14.8047 255.969 15.0547 256.383 15.2422C256.797 15.4219 257.293 15.5117 257.871 15.5117C258.699 15.5117 259.324 15.3398 259.746 14.9961C260.176 14.6523 260.477 14.25 260.648 13.7891H262.77C262.676 14.25 262.496 14.6875 262.23 15.1016C261.965 15.5156 261.625 15.8828 261.211 16.2031C260.805 16.5234 260.316 16.7812 259.746 16.9766C259.184 17.1719 258.559 17.2695 257.871 17.2695C256.957 17.2695 256.16 17.1094 255.48 16.7891C254.801 16.4688 254.234 16.043 253.781 15.5117C253.336 14.9805 253 14.3672 252.773 13.6719C252.555 12.9766 252.445 12.2539 252.445 11.5039ZM254.602 10.5195H260.848C260.848 9.62109 260.559 8.91016 259.98 8.38672C259.41 7.85547 258.668 7.58984 257.754 7.58984C256.887 7.58984 256.152 7.83984 255.551 8.33984C254.949 8.83203 254.633 9.55859 254.602 10.5195ZM271.078 11.5508C271.078 10.7852 271.215 10.0547 271.488 9.35938C271.762 8.66406 272.145 8.05078 272.637 7.51953C273.137 6.98828 273.719 6.57422 274.383 6.27734C275.047 5.97266 275.777 5.82031 276.574 5.82031C277.504 5.82031 278.305 6.02344 278.977 6.42969C279.648 6.83594 280.152 7.35156 280.488 7.97656V6.10156H282.551V17H280.488V15.1016C280.152 15.7266 279.648 16.2461 278.977 16.6602C278.305 17.0664 277.496 17.2695 276.551 17.2695C275.754 17.2695 275.023 17.1172 274.359 16.8125C273.695 16.5078 273.117 16.0938 272.625 15.5703C272.141 15.0391 271.762 14.4297 271.488 13.7422C271.215 13.0469 271.078 12.3164 271.078 11.5508ZM273.141 11.5508C273.141 12.082 273.227 12.5781 273.398 13.0391C273.578 13.5 273.828 13.9062 274.148 14.2578C274.469 14.6016 274.852 14.8789 275.297 15.0898C275.742 15.293 276.246 15.3945 276.809 15.3945C277.371 15.3945 277.875 15.293 278.32 15.0898C278.773 14.8789 279.16 14.6016 279.48 14.2578C279.801 13.9062 280.047 13.5 280.219 13.0391C280.398 12.5781 280.488 12.082 280.488 11.5508C280.488 11.0195 280.398 10.5234 280.219 10.0625C280.047 9.60156 279.801 9.19531 279.48 8.84375C279.16 8.49219 278.773 8.21094 278.32 8C277.875 7.78906 277.371 7.68359 276.809 7.68359C276.246 7.68359 275.742 7.78906 275.297 8C274.852 8.21094 274.469 8.49219 274.148 8.84375C273.828 9.19531 273.578 9.60547 273.398 10.0742C273.227 10.5352 273.141 11.0273 273.141 11.5508ZM286.289 17V6.10156H288.375V8.02344C288.695 7.35156 289.18 6.81641 289.828 6.41797C290.477 6.01953 291.281 5.82031 292.242 5.82031C292.945 5.82031 293.566 5.94141 294.105 6.18359C294.652 6.41797 295.109 6.77734 295.477 7.26172C295.781 7.67578 295.996 8.14062 296.121 8.65625C296.254 9.16406 296.32 9.80078 296.32 10.5664V17H294.234V11.2109C294.234 10.7188 294.184 10.2539 294.082 9.81641C293.988 9.37109 293.832 8.99219 293.613 8.67969C293.402 8.36719 293.121 8.12109 292.77 7.94141C292.418 7.75391 291.992 7.66016 291.492 7.66016C290.961 7.66016 290.5 7.76562 290.109 7.97656C289.719 8.1875 289.395 8.46484 289.137 8.80859C288.887 9.15234 288.695 9.54688 288.562 9.99219C288.438 10.4375 288.375 10.9023 288.375 11.3867V17H286.289ZM298.969 11.5508C298.969 10.7852 299.105 10.0547 299.379 9.35938C299.652 8.66406 300.035 8.05078 300.527 7.51953C301.027 6.98828 301.609 6.57422 302.273 6.27734C302.938 5.97266 303.668 5.82031 304.465 5.82031C305.395 5.82031 306.195 6.02344 306.867 6.42969C307.539 6.83594 308.043 7.35156 308.379 7.97656V0.195312H310.441V17H308.379V15.1016C308.043 15.7266 307.539 16.2461 306.867 16.6602C306.195 17.0664 305.387 17.2695 304.441 17.2695C303.645 17.2695 302.914 17.1172 302.25 16.8125C301.586 16.5078 301.008 16.0938 300.516 15.5703C300.031 15.0391 299.652 14.4297 299.379 13.7422C299.105 13.0469 298.969 12.3164 298.969 11.5508ZM301.031 11.5508C301.031 12.082 301.117 12.5781 301.289 13.0391C301.469 13.5 301.719 13.9062 302.039 14.2578C302.359 14.6016 302.742 14.8789 303.188 15.0898C303.633 15.293 304.137 15.3945 304.699 15.3945C305.262 15.3945 305.766 15.293 306.211 15.0898C306.664 14.8789 307.051 14.6016 307.371 14.2578C307.691 13.9062 307.938 13.5 308.109 13.0391C308.289 12.5781 308.379 12.082 308.379 11.5508C308.379 11.0195 308.289 10.5234 308.109 10.0625C307.938 9.60156 307.691 9.19531 307.371 8.84375C307.051 8.49219 306.664 8.21094 306.211 8C305.766 7.78906 305.262 7.68359 304.699 7.68359C304.137 7.68359 303.633 7.78906 303.188 8C302.742 8.21094 302.359 8.49219 302.039 8.84375C301.719 9.19531 301.469 9.60547 301.289 10.0742C301.117 10.5352 301.031 11.0273 301.031 11.5508ZM318.879 7.85938V6.10156H321.234V4.20312C321.234 3.22656 321.363 2.46094 321.621 1.90625C321.887 1.34375 322.207 0.925781 322.582 0.652344C322.965 0.378906 323.359 0.210938 323.766 0.148438C324.172 0.0859375 324.52 0.0546875 324.809 0.0546875C325.238 0.0546875 325.578 0.0820312 325.828 0.136719C326.078 0.191406 326.281 0.261719 326.438 0.347656V2.11719C326.242 2.05469 326.051 2.00781 325.863 1.97656C325.684 1.94531 325.434 1.92969 325.113 1.92969C324.918 1.92969 324.715 1.94531 324.504 1.97656C324.293 2.00781 324.098 2.09375 323.918 2.23438C323.746 2.36719 323.602 2.57422 323.484 2.85547C323.375 3.13672 323.32 3.51562 323.32 3.99219V6.10156H326.438V7.85938H323.32V17H321.234V7.85938H318.879ZM327.445 11.5508C327.445 10.7852 327.582 10.0547 327.855 9.35938C328.129 8.66406 328.512 8.05078 329.004 7.51953C329.504 6.98828 330.086 6.57422 330.75 6.27734C331.414 5.97266 332.145 5.82031 332.941 5.82031C333.871 5.82031 334.672 6.02344 335.344 6.42969C336.016 6.83594 336.52 7.35156 336.855 7.97656V6.10156H338.918V17H336.855V15.1016C336.52 15.7266 336.016 16.2461 335.344 16.6602C334.672 17.0664 333.863 17.2695 332.918 17.2695C332.121 17.2695 331.391 17.1172 330.727 16.8125C330.062 16.5078 329.484 16.0938 328.992 15.5703C328.508 15.0391 328.129 14.4297 327.855 13.7422C327.582 13.0469 327.445 12.3164 327.445 11.5508ZM329.508 11.5508C329.508 12.082 329.594 12.5781 329.766 13.0391C329.945 13.5 330.195 13.9062 330.516 14.2578C330.836 14.6016 331.219 14.8789 331.664 15.0898C332.109 15.293 332.613 15.3945 333.176 15.3945C333.738 15.3945 334.242 15.293 334.688 15.0898C335.141 14.8789 335.527 14.6016 335.848 14.2578C336.168 13.9062 336.414 13.5 336.586 13.0391C336.766 12.5781 336.855 12.082 336.855 11.5508C336.855 11.0195 336.766 10.5234 336.586 10.0625C336.414 9.60156 336.168 9.19531 335.848 8.84375C335.527 8.49219 335.141 8.21094 334.688 8C334.242 7.78906 333.738 7.68359 333.176 7.68359C332.613 7.68359 332.109 7.78906 331.664 8C331.219 8.21094 330.836 8.49219 330.516 8.84375C330.195 9.19531 329.945 9.60547 329.766 10.0742C329.594 10.5352 329.508 11.0273 329.508 11.5508ZM342.41 1.97656C342.41 1.51562 342.574 1.11719 342.902 0.78125C343.23 0.445312 343.629 0.277344 344.098 0.277344C344.559 0.277344 344.953 0.445312 345.281 0.78125C345.609 1.11719 345.773 1.51562 345.773 1.97656C345.773 2.4375 345.609 2.82812 345.281 3.14844C344.953 3.46875 344.559 3.62891 344.098 3.62891C343.637 3.62891 343.238 3.46875 342.902 3.14844C342.574 2.82812 342.41 2.4375 342.41 1.97656ZM343.066 17V6.10156H345.129V17H343.066ZM349.289 17V6.10156H351.375V8.23438C351.664 7.54688 352.145 6.99219 352.816 6.57031C353.488 6.14844 354.223 5.9375 355.02 5.9375C355.418 5.9375 355.754 5.99219 356.027 6.10156V8.02344C355.801 7.97656 355.621 7.94531 355.488 7.92969C355.355 7.91406 355.215 7.90625 355.066 7.90625C353.801 7.90625 352.867 8.30078 352.266 9.08984C351.672 9.87109 351.375 10.9141 351.375 12.2188V17H349.289ZM356.977 11.5039C356.977 10.6914 357.102 9.94141 357.352 9.25391C357.602 8.55859 357.953 7.95703 358.406 7.44922C358.859 6.93359 359.41 6.53516 360.059 6.25391C360.707 5.96484 361.434 5.82031 362.238 5.82031C362.988 5.82031 363.68 5.94531 364.312 6.19531C364.945 6.4375 365.488 6.78516 365.941 7.23828C366.395 7.68359 366.75 8.20703 367.008 8.80859C367.266 9.40234 367.395 10.043 367.395 10.7305C367.395 10.8867 367.391 11.0781 367.383 11.3047C367.375 11.5312 367.348 11.7969 367.301 12.1016H359.109C359.109 12.5625 359.172 13 359.297 13.4141C359.43 13.8203 359.629 14.1797 359.895 14.4922C360.16 14.8047 360.5 15.0547 360.914 15.2422C361.328 15.4219 361.824 15.5117 362.402 15.5117C363.23 15.5117 363.855 15.3398 364.277 14.9961C364.707 14.6523 365.008 14.25 365.18 13.7891H367.301C367.207 14.25 367.027 14.6875 366.762 15.1016C366.496 15.5156 366.156 15.8828 365.742 16.2031C365.336 16.5234 364.848 16.7812 364.277 16.9766C363.715 17.1719 363.09 17.2695 362.402 17.2695C361.488 17.2695 360.691 17.1094 360.012 16.7891C359.332 16.4688 358.766 16.043 358.312 15.5117C357.867 14.9805 357.531 14.3672 357.305 13.6719C357.086 12.9766 356.977 12.2539 356.977 11.5039ZM359.133 10.5195H365.379C365.379 9.62109 365.09 8.91016 364.512 8.38672C363.941 7.85547 363.199 7.58984 362.285 7.58984C361.418 7.58984 360.684 7.83984 360.082 8.33984C359.48 8.83203 359.164 9.55859 359.133 10.5195ZM370.43 17V6.10156H372.516V8.23438C372.805 7.54688 373.285 6.99219 373.957 6.57031C374.629 6.14844 375.363 5.9375 376.16 5.9375C376.559 5.9375 376.895 5.99219 377.168 6.10156V8.02344C376.941 7.97656 376.762 7.94531 376.629 7.92969C376.496 7.91406 376.355 7.90625 376.207 7.90625C374.941 7.90625 374.008 8.30078 373.406 9.08984C372.812 9.87109 372.516 10.9141 372.516 12.2188V17H370.43ZM383.484 6.10156H385.723L388.43 13.7891L391.172 6.10156H393.234L395.941 13.7891L398.684 6.10156H400.91L396.691 17H395.25L392.203 8.38672L389.156 17H387.715L383.484 6.10156ZM401.766 11.5508C401.766 10.7852 401.902 10.0547 402.176 9.35938C402.449 8.66406 402.832 8.05078 403.324 7.51953C403.824 6.98828 404.406 6.57422 405.07 6.27734C405.734 5.97266 406.465 5.82031 407.262 5.82031C408.191 5.82031 408.992 6.02344 409.664 6.42969C410.336 6.83594 410.84 7.35156 411.176 7.97656V6.10156H413.238V17H411.176V15.1016C410.84 15.7266 410.336 16.2461 409.664 16.6602C408.992 17.0664 408.184 17.2695 407.238 17.2695C406.441 17.2695 405.711 17.1172 405.047 16.8125C404.383 16.5078 403.805 16.0938 403.312 15.5703C402.828 15.0391 402.449 14.4297 402.176 13.7422C401.902 13.0469 401.766 12.3164 401.766 11.5508ZM403.828 11.5508C403.828 12.082 403.914 12.5781 404.086 13.0391C404.266 13.5 404.516 13.9062 404.836 14.2578C405.156 14.6016 405.539 14.8789 405.984 15.0898C406.43 15.293 406.934 15.3945 407.496 15.3945C408.059 15.3945 408.562 15.293 409.008 15.0898C409.461 14.8789 409.848 14.6016 410.168 14.2578C410.488 13.9062 410.734 13.5 410.906 13.0391C411.086 12.5781 411.176 12.082 411.176 11.5508C411.176 11.0195 411.086 10.5234 410.906 10.0625C410.734 9.60156 410.488 9.19531 410.168 8.84375C409.848 8.49219 409.461 8.21094 409.008 8C408.562 7.78906 408.059 7.68359 407.496 7.68359C406.934 7.68359 406.43 7.78906 405.984 8C405.539 8.21094 405.156 8.49219 404.836 8.84375C404.516 9.19531 404.266 9.60547 404.086 10.0742C403.914 10.5352 403.828 11.0273 403.828 11.5508ZM416.777 18.418H418.816C418.848 19.2852 419.09 19.9805 419.543 20.5039C420.004 21.0352 420.789 21.3008 421.898 21.3008C422.922 21.3008 423.688 21.0312 424.195 20.4922C424.711 19.9531 424.969 19.0469 424.969 17.7734V15.0547C424.633 15.7266 424.145 16.2656 423.504 16.6719C422.863 17.0703 422.055 17.2695 421.078 17.2695C420.328 17.2695 419.684 17.1484 419.145 16.9062C418.605 16.6641 418.168 16.3203 417.832 15.875C417.527 15.4609 417.316 14.9922 417.199 14.4688C417.082 13.9453 417.023 13.2773 417.023 12.4648V6.10156H419.109V11.8203C419.109 12.3359 419.152 12.8125 419.238 13.25C419.332 13.6875 419.48 14.0664 419.684 14.3867C419.895 14.707 420.172 14.9609 420.516 15.1484C420.859 15.3281 421.293 15.418 421.816 15.418C422.363 15.418 422.836 15.3203 423.234 15.125C423.633 14.9219 423.961 14.6484 424.219 14.3047C424.477 13.9609 424.664 13.5664 424.781 13.1211C424.906 12.668 424.969 12.1914 424.969 11.6914V6.10156H427.055V17.7734C427.055 18.7344 426.93 19.5508 426.68 20.2227C426.43 20.9023 426.082 21.457 425.637 21.8867C425.191 22.3242 424.652 22.6406 424.02 22.8359C423.387 23.0391 422.688 23.1406 421.922 23.1406C421.023 23.1406 420.254 23.0195 419.613 22.7773C418.973 22.543 418.449 22.2109 418.043 21.7812C417.637 21.3594 417.328 20.8594 417.117 20.2812C416.906 19.7109 416.793 19.0898 416.777 18.418ZM0.480469 47.8594V46.1016H2.49609V42.4336H4.58203V46.1016H7.41797V47.8594H4.58203V52.875C4.58203 53.4062 4.625 53.8281 4.71094 54.1406C4.80469 54.4453 4.92969 54.6836 5.08594 54.8555C5.25 55.0195 5.4375 55.125 5.64844 55.1719C5.86719 55.2188 6.11328 55.2422 6.38672 55.2422C6.61328 55.2422 6.86328 55.2344 7.13672 55.2188C7.41797 55.2031 7.64062 55.1797 7.80469 55.1484V57C7.59375 57.0312 7.31641 57.0625 6.97266 57.0938C6.62891 57.125 6.27344 57.1406 5.90625 57.1406C5.57031 57.1406 5.20312 57.1094 4.80469 57.0469C4.41406 56.9844 4.04688 56.8281 3.70312 56.5781C3.35938 56.3281 3.07031 55.9492 2.83594 55.4414C2.60938 54.9258 2.49609 54.2227 2.49609 53.332V47.8594H0.480469ZM9.14062 51.5508C9.14062 50.7852 9.27734 50.0547 9.55078 49.3594C9.82422 48.6641 10.207 48.0508 10.6992 47.5195C11.1992 46.9883 11.8047 46.5742 12.5156 46.2773C13.2266 45.9727 14.0117 45.8203 14.8711 45.8203C15.7383 45.8203 16.5234 45.9727 17.2266 46.2773C17.9297 46.5742 18.5312 46.9883 19.0312 47.5195C19.5391 48.0508 19.9297 48.6641 20.2031 49.3594C20.4766 50.0547 20.6133 50.7852 20.6133 51.5508C20.6133 52.3164 20.4766 53.0469 20.2031 53.7422C19.9297 54.4297 19.543 55.0391 19.043 55.5703C18.5508 56.0938 17.9492 56.5078 17.2383 56.8125C16.5273 57.1172 15.7383 57.2695 14.8711 57.2695C13.9883 57.2695 13.1953 57.1172 12.4922 56.8125C11.7969 56.5078 11.1992 56.0938 10.6992 55.5703C10.207 55.0391 9.82422 54.4297 9.55078 53.7422C9.27734 53.0469 9.14062 52.3164 9.14062 51.5508ZM11.2031 51.5508C11.2031 52.082 11.2891 52.5781 11.4609 53.0391C11.6406 53.5 11.8906 53.9062 12.2109 54.2578C12.5312 54.6016 12.9141 54.8789 13.3594 55.0898C13.8047 55.293 14.3086 55.3945 14.8711 55.3945C15.4336 55.3945 15.9375 55.293 16.3828 55.0898C16.8359 54.8789 17.2227 54.6016 17.543 54.2578C17.8633 53.9062 18.1094 53.5 18.2812 53.0391C18.4609 52.5781 18.5508 52.082 18.5508 51.5508C18.5508 51.0195 18.4609 50.5234 18.2812 50.0625C18.1094 49.6016 17.8633 49.1953 17.543 48.8438C17.2227 48.4922 16.8359 48.2109 16.3828 48C15.9375 47.7891 15.4336 47.6836 14.8711 47.6836C14.3086 47.6836 13.8047 47.7891 13.3594 48C12.9141 48.2109 12.5312 48.4922 12.2109 48.8438C11.8906 49.1953 11.6406 49.6055 11.4609 50.0742C11.2891 50.5352 11.2031 51.0273 11.2031 51.5508ZM28.6875 51.5039C28.6875 50.6914 28.8125 49.9414 29.0625 49.2539C29.3125 48.5586 29.6641 47.957 30.1172 47.4492C30.5703 46.9336 31.1211 46.5352 31.7695 46.2539C32.418 45.9648 33.1445 45.8203 33.9492 45.8203C34.6992 45.8203 35.3906 45.9453 36.0234 46.1953C36.6562 46.4375 37.1992 46.7852 37.6523 47.2383C38.1055 47.6836 38.4609 48.207 38.7188 48.8086C38.9766 49.4023 39.1055 50.043 39.1055 50.7305C39.1055 50.8867 39.1016 51.0781 39.0938 51.3047C39.0859 51.5312 39.0586 51.7969 39.0117 52.1016H30.8203C30.8203 52.5625 30.8828 53 31.0078 53.4141C31.1406 53.8203 31.3398 54.1797 31.6055 54.4922C31.8711 54.8047 32.2109 55.0547 32.625 55.2422C33.0391 55.4219 33.5352 55.5117 34.1133 55.5117C34.9414 55.5117 35.5664 55.3398 35.9883 54.9961C36.418 54.6523 36.7188 54.25 36.8906 53.7891H39.0117C38.918 54.25 38.7383 54.6875 38.4727 55.1016C38.207 55.5156 37.8672 55.8828 37.4531 56.2031C37.0469 56.5234 36.5586 56.7812 35.9883 56.9766C35.4258 57.1719 34.8008 57.2695 34.1133 57.2695C33.1992 57.2695 32.4023 57.1094 31.7227 56.7891C31.043 56.4688 30.4766 56.043 30.0234 55.5117C29.5781 54.9805 29.2422 54.3672 29.0156 53.6719C28.7969 52.9766 28.6875 52.2539 28.6875 51.5039ZM30.8438 50.5195H37.0898C37.0898 49.6211 36.8008 48.9102 36.2227 48.3867C35.6523 47.8555 34.9102 47.5898 33.9961 47.5898C33.1289 47.5898 32.3945 47.8398 31.793 48.3398C31.1914 48.832 30.875 49.5586 30.8438 50.5195ZM40.3477 57L44.0391 51.5039L40.3945 46.1016H42.7969L45.2461 49.8984L47.6836 46.1016H50.0859L46.4414 51.5039L50.1328 57H47.7422L45.2461 53.1328L42.75 57H40.3477ZM51.2578 51.5508C51.2578 50.8164 51.3711 50.1055 51.5977 49.418C51.832 48.7305 52.1758 48.1211 52.6289 47.5898C53.0898 47.0508 53.668 46.6211 54.3633 46.3008C55.0586 45.9805 55.8711 45.8203 56.8008 45.8203C57.6133 45.8203 58.3242 45.9414 58.9336 46.1836C59.543 46.418 60.0547 46.7344 60.4688 47.1328C60.8906 47.5312 61.2109 47.9844 61.4297 48.4922C61.6562 48.9922 61.793 49.5156 61.8398 50.0625H59.7539C59.6758 49.3906 59.3984 48.8281 58.9219 48.375C58.4531 47.9141 57.7617 47.6836 56.8477 47.6836C56.2383 47.6836 55.7148 47.7891 55.2773 48C54.8398 48.2109 54.4766 48.4961 54.1875 48.8555C53.8984 49.2148 53.6836 49.6289 53.543 50.0977C53.4102 50.5586 53.3438 51.043 53.3438 51.5508C53.3438 52.0664 53.4102 52.5547 53.543 53.0156C53.6836 53.4766 53.8984 53.8867 54.1875 54.2461C54.4766 54.5977 54.8438 54.8789 55.2891 55.0898C55.7344 55.293 56.2695 55.3945 56.8945 55.3945C57.7617 55.3945 58.4141 55.2031 58.8516 54.8203C59.2969 54.4297 59.6055 53.9102 59.7773 53.2617H61.8633C61.7852 53.793 61.625 54.3008 61.3828 54.7852C61.1484 55.2695 60.8164 55.6953 60.3867 56.0625C59.9648 56.4297 59.457 56.7227 58.8633 56.9414C58.2773 57.1602 57.5977 57.2695 56.8242 57.2695C55.8789 57.2695 55.0586 57.1094 54.3633 56.7891C53.668 56.4688 53.0898 56.043 52.6289 55.5117C52.1758 54.9805 51.832 54.3711 51.5977 53.6836C51.3711 52.9961 51.2578 52.2852 51.2578 51.5508ZM64.8047 57V40.1953H66.8906V48.0234C67.2109 47.3516 67.6953 46.8164 68.3438 46.418C68.9922 46.0195 69.7969 45.8203 70.7578 45.8203C71.4609 45.8203 72.082 45.9414 72.6211 46.1836C73.168 46.418 73.625 46.7773 73.9922 47.2617C74.2969 47.6758 74.5117 48.1406 74.6367 48.6562C74.7695 49.1641 74.8359 49.8008 74.8359 50.5664V57H72.75V51.2109C72.75 50.7188 72.6992 50.2539 72.5977 49.8164C72.5039 49.3711 72.3477 48.9922 72.1289 48.6797C71.918 48.3672 71.6367 48.1211 71.2852 47.9414C70.9336 47.7539 70.5078 47.6602 70.0078 47.6602C69.4766 47.6602 69.0156 47.7656 68.625 47.9766C68.2344 48.1875 67.9102 48.4648 67.6523 48.8086C67.4023 49.1523 67.2109 49.5469 67.0781 49.9922C66.9531 50.4375 66.8906 50.9023 66.8906 51.3867V57H64.8047ZM77.4844 51.5508C77.4844 50.7852 77.6211 50.0547 77.8945 49.3594C78.168 48.6641 78.5508 48.0508 79.043 47.5195C79.543 46.9883 80.125 46.5742 80.7891 46.2773C81.4531 45.9727 82.1836 45.8203 82.9805 45.8203C83.9102 45.8203 84.7109 46.0234 85.3828 46.4297C86.0547 46.8359 86.5586 47.3516 86.8945 47.9766V46.1016H88.957V57H86.8945V55.1016C86.5586 55.7266 86.0547 56.2461 85.3828 56.6602C84.7109 57.0664 83.9023 57.2695 82.957 57.2695C82.1602 57.2695 81.4297 57.1172 80.7656 56.8125C80.1016 56.5078 79.5234 56.0938 79.0312 55.5703C78.5469 55.0391 78.168 54.4297 77.8945 53.7422C77.6211 53.0469 77.4844 52.3164 77.4844 51.5508ZM79.5469 51.5508C79.5469 52.082 79.6328 52.5781 79.8047 53.0391C79.9844 53.5 80.2344 53.9062 80.5547 54.2578C80.875 54.6016 81.2578 54.8789 81.7031 55.0898C82.1484 55.293 82.6523 55.3945 83.2148 55.3945C83.7773 55.3945 84.2812 55.293 84.7266 55.0898C85.1797 54.8789 85.5664 54.6016 85.8867 54.2578C86.207 53.9062 86.4531 53.5 86.625 53.0391C86.8047 52.5781 86.8945 52.082 86.8945 51.5508C86.8945 51.0195 86.8047 50.5234 86.625 50.0625C86.4531 49.6016 86.207 49.1953 85.8867 48.8438C85.5664 48.4922 85.1797 48.2109 84.7266 48C84.2812 47.7891 83.7773 47.6836 83.2148 47.6836C82.6523 47.6836 82.1484 47.7891 81.7031 48C81.2578 48.2109 80.875 48.4922 80.5547 48.8438C80.2344 49.1953 79.9844 49.6055 79.8047 50.0742C79.6328 50.5352 79.5469 51.0273 79.5469 51.5508ZM92.6953 57V46.1016H94.7812V48.0234C95.1016 47.3516 95.5859 46.8164 96.2344 46.418C96.8828 46.0195 97.6875 45.8203 98.6484 45.8203C99.3516 45.8203 99.9727 45.9414 100.512 46.1836C101.059 46.418 101.516 46.7773 101.883 47.2617C102.188 47.6758 102.402 48.1406 102.527 48.6562C102.66 49.1641 102.727 49.8008 102.727 50.5664V57H100.641V51.2109C100.641 50.7188 100.59 50.2539 100.488 49.8164C100.395 49.3711 100.238 48.9922 100.02 48.6797C99.8086 48.3672 99.5273 48.1211 99.1758 47.9414C98.8242 47.7539 98.3984 47.6602 97.8984 47.6602C97.3672 47.6602 96.9062 47.7656 96.5156 47.9766C96.125 48.1875 95.8008 48.4648 95.543 48.8086C95.293 49.1523 95.1016 49.5469 94.9688 49.9922C94.8438 50.4375 94.7812 50.9023 94.7812 51.3867V57H92.6953ZM105.375 51.5508C105.375 50.7852 105.512 50.0547 105.785 49.3594C106.059 48.6641 106.441 48.0508 106.934 47.5195C107.434 46.9883 108.016 46.5742 108.68 46.2773C109.344 45.9727 110.074 45.8203 110.871 45.8203C111.801 45.8203 112.602 46.0234 113.273 46.4297C113.945 46.8359 114.449 47.3516 114.785 47.9766V46.1016H116.848V57.6914C116.848 58.668 116.711 59.5 116.438 60.1875C116.164 60.875 115.777 61.4375 115.277 61.875C114.785 62.3203 114.195 62.6406 113.508 62.8359C112.82 63.0391 112.062 63.1406 111.234 63.1406C110.195 63.1406 109.316 63 108.598 62.7188C107.887 62.4453 107.312 62.082 106.875 61.6289C106.438 61.1836 106.113 60.6758 105.902 60.1055C105.691 59.543 105.562 58.9727 105.516 58.3945H107.625C107.656 58.7773 107.742 59.1445 107.883 59.4961C108.031 59.8477 108.242 60.1562 108.516 60.4219C108.789 60.6875 109.141 60.8984 109.57 61.0547C110.008 61.2188 110.539 61.3008 111.164 61.3008C111.711 61.3008 112.203 61.2305 112.641 61.0898C113.078 60.957 113.457 60.7461 113.777 60.457C114.098 60.168 114.344 59.793 114.516 59.332C114.695 58.8789 114.785 58.332 114.785 57.6914V55.1016C114.449 55.7266 113.945 56.2461 113.273 56.6602C112.602 57.0664 111.793 57.2695 110.848 57.2695C110.051 57.2695 109.32 57.1172 108.656 56.8125C107.992 56.5078 107.414 56.0938 106.922 55.5703C106.438 55.0391 106.059 54.4297 105.785 53.7422C105.512 53.0469 105.375 52.3164 105.375 51.5508ZM107.438 51.5508C107.438 52.082 107.523 52.5781 107.695 53.0391C107.875 53.5 108.125 53.9062 108.445 54.2578C108.766 54.6016 109.148 54.8789 109.594 55.0898C110.047 55.293 110.551 55.3945 111.105 55.3945C111.668 55.3945 112.172 55.293 112.617 55.0898C113.07 54.8789 113.457 54.6016 113.777 54.2578C114.098 53.9062 114.344 53.5 114.516 53.0391C114.695 52.5781 114.785 52.082 114.785 51.5508C114.785 51.0195 114.695 50.5234 114.516 50.0625C114.344 49.6016 114.098 49.1953 113.777 48.8438C113.457 48.4922 113.07 48.2109 112.617 48C112.172 47.7891 111.668 47.6836 111.105 47.6836C110.543 47.6836 110.039 47.7891 109.594 48C109.148 48.2109 108.766 48.4922 108.445 48.8438C108.125 49.1953 107.875 49.6055 107.695 50.0742C107.523 50.5352 107.438 51.0273 107.438 51.5508ZM119.695 51.5039C119.695 50.6914 119.82 49.9414 120.07 49.2539C120.32 48.5586 120.672 47.957 121.125 47.4492C121.578 46.9336 122.129 46.5352 122.777 46.2539C123.426 45.9648 124.152 45.8203 124.957 45.8203C125.707 45.8203 126.398 45.9453 127.031 46.1953C127.664 46.4375 128.207 46.7852 128.66 47.2383C129.113 47.6836 129.469 48.207 129.727 48.8086C129.984 49.4023 130.113 50.043 130.113 50.7305C130.113 50.8867 130.109 51.0781 130.102 51.3047C130.094 51.5312 130.066 51.7969 130.02 52.1016H121.828C121.828 52.5625 121.891 53 122.016 53.4141C122.148 53.8203 122.348 54.1797 122.613 54.4922C122.879 54.8047 123.219 55.0547 123.633 55.2422C124.047 55.4219 124.543 55.5117 125.121 55.5117C125.949 55.5117 126.574 55.3398 126.996 54.9961C127.426 54.6523 127.727 54.25 127.898 53.7891H130.02C129.926 54.25 129.746 54.6875 129.48 55.1016C129.215 55.5156 128.875 55.8828 128.461 56.2031C128.055 56.5234 127.566 56.7812 126.996 56.9766C126.434 57.1719 125.809 57.2695 125.121 57.2695C124.207 57.2695 123.41 57.1094 122.73 56.7891C122.051 56.4688 121.484 56.043 121.031 55.5117C120.586 54.9805 120.25 54.3672 120.023 53.6719C119.805 52.9766 119.695 52.2539 119.695 51.5039ZM121.852 50.5195H128.098C128.098 49.6211 127.809 48.9102 127.23 48.3867C126.66 47.8555 125.918 47.5898 125.004 47.5898C124.137 47.5898 123.402 47.8398 122.801 48.3398C122.199 48.832 121.883 49.5586 121.852 50.5195ZM138.375 51.5508C138.375 50.8164 138.488 50.1055 138.715 49.418C138.949 48.7305 139.293 48.1211 139.746 47.5898C140.207 47.0508 140.785 46.6211 141.48 46.3008C142.176 45.9805 142.988 45.8203 143.918 45.8203C144.73 45.8203 145.441 45.9414 146.051 46.1836C146.66 46.418 147.172 46.7344 147.586 47.1328C148.008 47.5312 148.328 47.9844 148.547 48.4922C148.773 48.9922 148.91 49.5156 148.957 50.0625H146.871C146.793 49.3906 146.516 48.8281 146.039 48.375C145.57 47.9141 144.879 47.6836 143.965 47.6836C143.355 47.6836 142.832 47.7891 142.395 48C141.957 48.2109 141.594 48.4961 141.305 48.8555C141.016 49.2148 140.801 49.6289 140.66 50.0977C140.527 50.5586 140.461 51.043 140.461 51.5508C140.461 52.0664 140.527 52.5547 140.66 53.0156C140.801 53.4766 141.016 53.8867 141.305 54.2461C141.594 54.5977 141.961 54.8789 142.406 55.0898C142.852 55.293 143.387 55.3945 144.012 55.3945C144.879 55.3945 145.531 55.2031 145.969 54.8203C146.414 54.4297 146.723 53.9102 146.895 53.2617H148.98C148.902 53.793 148.742 54.3008 148.5 54.7852C148.266 55.2695 147.934 55.6953 147.504 56.0625C147.082 56.4297 146.574 56.7227 145.98 56.9414C145.395 57.1602 144.715 57.2695 143.941 57.2695C142.996 57.2695 142.176 57.1094 141.48 56.7891C140.785 56.4688 140.207 56.043 139.746 55.5117C139.293 54.9805 138.949 54.3711 138.715 53.6836C138.488 52.9961 138.375 52.2852 138.375 51.5508ZM151.699 52.5352V46.1016H153.785V51.8672C153.785 52.3828 153.832 52.8555 153.926 53.2852C154.027 53.7148 154.184 54.0859 154.395 54.3984C154.613 54.7109 154.895 54.9609 155.238 55.1484C155.582 55.3281 156.004 55.418 156.504 55.418C157.035 55.418 157.5 55.3203 157.898 55.125C158.297 54.9219 158.621 54.6484 158.871 54.3047C159.129 53.9609 159.32 53.5664 159.445 53.1211C159.578 52.668 159.645 52.1914 159.645 51.6914V46.1016H161.73V57H159.645V55.0547C159.324 55.7266 158.836 56.2656 158.18 56.6719C157.523 57.0703 156.715 57.2695 155.754 57.2695C155.066 57.2695 154.445 57.1523 153.891 56.918C153.344 56.6836 152.887 56.3281 152.52 55.8516C152.215 55.4375 152 54.9727 151.875 54.457C151.758 53.9414 151.699 53.3008 151.699 52.5352ZM165.492 57V46.1016H167.578V48.2344C167.867 47.5469 168.348 46.9922 169.02 46.5703C169.691 46.1484 170.426 45.9375 171.223 45.9375C171.621 45.9375 171.957 45.9922 172.23 46.1016V48.0234C172.004 47.9766 171.824 47.9453 171.691 47.9297C171.559 47.9141 171.418 47.9062 171.27 47.9062C170.004 47.9062 169.07 48.3008 168.469 49.0898C167.875 49.8711 167.578 50.9141 167.578 52.2188V57H165.492ZM174.258 57V46.1016H176.344V48.2344C176.633 47.5469 177.113 46.9922 177.785 46.5703C178.457 46.1484 179.191 45.9375 179.988 45.9375C180.387 45.9375 180.723 45.9922 180.996 46.1016V48.0234C180.77 47.9766 180.59 47.9453 180.457 47.9297C180.324 47.9141 180.184 47.9062 180.035 47.9062C178.77 47.9062 177.836 48.3008 177.234 49.0898C176.641 49.8711 176.344 50.9141 176.344 52.2188V57H174.258ZM181.945 51.5039C181.945 50.6914 182.07 49.9414 182.32 49.2539C182.57 48.5586 182.922 47.957 183.375 47.4492C183.828 46.9336 184.379 46.5352 185.027 46.2539C185.676 45.9648 186.402 45.8203 187.207 45.8203C187.957 45.8203 188.648 45.9453 189.281 46.1953C189.914 46.4375 190.457 46.7852 190.91 47.2383C191.363 47.6836 191.719 48.207 191.977 48.8086C192.234 49.4023 192.363 50.043 192.363 50.7305C192.363 50.8867 192.359 51.0781 192.352 51.3047C192.344 51.5312 192.316 51.7969 192.27 52.1016H184.078C184.078 52.5625 184.141 53 184.266 53.4141C184.398 53.8203 184.598 54.1797 184.863 54.4922C185.129 54.8047 185.469 55.0547 185.883 55.2422C186.297 55.4219 186.793 55.5117 187.371 55.5117C188.199 55.5117 188.824 55.3398 189.246 54.9961C189.676 54.6523 189.977 54.25 190.148 53.7891H192.27C192.176 54.25 191.996 54.6875 191.73 55.1016C191.465 55.5156 191.125 55.8828 190.711 56.2031C190.305 56.5234 189.816 56.7812 189.246 56.9766C188.684 57.1719 188.059 57.2695 187.371 57.2695C186.457 57.2695 185.66 57.1094 184.98 56.7891C184.301 56.4688 183.734 56.043 183.281 55.5117C182.836 54.9805 182.5 54.3672 182.273 53.6719C182.055 52.9766 181.945 52.2539 181.945 51.5039ZM184.102 50.5195H190.348C190.348 49.6211 190.059 48.9102 189.48 48.3867C188.91 47.8555 188.168 47.5898 187.254 47.5898C186.387 47.5898 185.652 47.8398 185.051 48.3398C184.449 48.832 184.133 49.5586 184.102 50.5195ZM195.398 57V46.1016H197.484V48.0234C197.805 47.3516 198.289 46.8164 198.938 46.418C199.586 46.0195 200.391 45.8203 201.352 45.8203C202.055 45.8203 202.676 45.9414 203.215 46.1836C203.762 46.418 204.219 46.7773 204.586 47.2617C204.891 47.6758 205.105 48.1406 205.23 48.6562C205.363 49.1641 205.43 49.8008 205.43 50.5664V57H203.344V51.2109C203.344 50.7188 203.293 50.2539 203.191 49.8164C203.098 49.3711 202.941 48.9922 202.723 48.6797C202.512 48.3672 202.23 48.1211 201.879 47.9414C201.527 47.7539 201.102 47.6602 200.602 47.6602C200.07 47.6602 199.609 47.7656 199.219 47.9766C198.828 48.1875 198.504 48.4648 198.246 48.8086C197.996 49.1523 197.805 49.5469 197.672 49.9922C197.547 50.4375 197.484 50.9023 197.484 51.3867V57H195.398ZM208.125 51.5508C208.125 50.8164 208.238 50.1055 208.465 49.418C208.699 48.7305 209.043 48.1211 209.496 47.5898C209.957 47.0508 210.535 46.6211 211.23 46.3008C211.926 45.9805 212.738 45.8203 213.668 45.8203C214.48 45.8203 215.191 45.9414 215.801 46.1836C216.41 46.418 216.922 46.7344 217.336 47.1328C217.758 47.5312 218.078 47.9844 218.297 48.4922C218.523 48.9922 218.66 49.5156 218.707 50.0625H216.621C216.543 49.3906 216.266 48.8281 215.789 48.375C215.32 47.9141 214.629 47.6836 213.715 47.6836C213.105 47.6836 212.582 47.7891 212.145 48C211.707 48.2109 211.344 48.4961 211.055 48.8555C210.766 49.2148 210.551 49.6289 210.41 50.0977C210.277 50.5586 210.211 51.043 210.211 51.5508C210.211 52.0664 210.277 52.5547 210.41 53.0156C210.551 53.4766 210.766 53.8867 211.055 54.2461C211.344 54.5977 211.711 54.8789 212.156 55.0898C212.602 55.293 213.137 55.3945 213.762 55.3945C214.629 55.3945 215.281 55.2031 215.719 54.8203C216.164 54.4297 216.473 53.9102 216.645 53.2617H218.73C218.652 53.793 218.492 54.3008 218.25 54.7852C218.016 55.2695 217.684 55.6953 217.254 56.0625C216.832 56.4297 216.324 56.7227 215.73 56.9414C215.145 57.1602 214.465 57.2695 213.691 57.2695C212.746 57.2695 211.926 57.1094 211.23 56.7891C210.535 56.4688 209.957 56.043 209.496 55.5117C209.043 54.9805 208.699 54.3711 208.465 53.6836C208.238 52.9961 208.125 52.2852 208.125 51.5508ZM221.426 41.9766C221.426 41.5156 221.59 41.1172 221.918 40.7812C222.246 40.4453 222.645 40.2773 223.113 40.2773C223.574 40.2773 223.969 40.4453 224.297 40.7812C224.625 41.1172 224.789 41.5156 224.789 41.9766C224.789 42.4375 224.625 42.8281 224.297 43.1484C223.969 43.4688 223.574 43.6289 223.113 43.6289C222.652 43.6289 222.254 43.4688 221.918 43.1484C221.59 42.8281 221.426 42.4375 221.426 41.9766ZM222.082 57V46.1016H224.145V57H222.082ZM227.461 51.5039C227.461 50.6914 227.586 49.9414 227.836 49.2539C228.086 48.5586 228.438 47.957 228.891 47.4492C229.344 46.9336 229.895 46.5352 230.543 46.2539C231.191 45.9648 231.918 45.8203 232.723 45.8203C233.473 45.8203 234.164 45.9453 234.797 46.1953C235.43 46.4375 235.973 46.7852 236.426 47.2383C236.879 47.6836 237.234 48.207 237.492 48.8086C237.75 49.4023 237.879 50.043 237.879 50.7305C237.879 50.8867 237.875 51.0781 237.867 51.3047C237.859 51.5312 237.832 51.7969 237.785 52.1016H229.594C229.594 52.5625 229.656 53 229.781 53.4141C229.914 53.8203 230.113 54.1797 230.379 54.4922C230.645 54.8047 230.984 55.0547 231.398 55.2422C231.812 55.4219 232.309 55.5117 232.887 55.5117C233.715 55.5117 234.34 55.3398 234.762 54.9961C235.191 54.6523 235.492 54.25 235.664 53.7891H237.785C237.691 54.25 237.512 54.6875 237.246 55.1016C236.98 55.5156 236.641 55.8828 236.227 56.2031C235.82 56.5234 235.332 56.7812 234.762 56.9766C234.199 57.1719 233.574 57.2695 232.887 57.2695C231.973 57.2695 231.176 57.1094 230.496 56.7891C229.816 56.4688 229.25 56.043 228.797 55.5117C228.352 54.9805 228.016 54.3672 227.789 53.6719C227.57 52.9766 227.461 52.2539 227.461 51.5039ZM229.617 50.5195H235.863C235.863 49.6211 235.574 48.9102 234.996 48.3867C234.426 47.8555 233.684 47.5898 232.77 47.5898C231.902 47.5898 231.168 47.8398 230.566 48.3398C229.965 48.832 229.648 49.5586 229.617 50.5195ZM240 53.332H242.039C242.039 54.1602 242.281 54.7461 242.766 55.0898C243.258 55.4336 243.879 55.6055 244.629 55.6055C245.285 55.6055 245.809 55.4844 246.199 55.2422C246.598 54.9922 246.797 54.6016 246.797 54.0703C246.797 53.7812 246.73 53.5508 246.598 53.3789C246.473 53.1992 246.27 53.043 245.988 52.9102C245.707 52.7695 245.344 52.6367 244.898 52.5117C244.461 52.3867 243.941 52.2188 243.34 52.0078C242.941 51.8828 242.562 51.7461 242.203 51.5977C241.852 51.4414 241.539 51.2461 241.266 51.0117C241 50.7773 240.785 50.5 240.621 50.1797C240.465 49.8594 240.387 49.4688 240.387 49.0078C240.387 48.4609 240.492 47.9883 240.703 47.5898C240.922 47.1914 241.215 46.8594 241.582 46.5938C241.949 46.3281 242.367 46.1328 242.836 46.0078C243.312 45.8828 243.816 45.8203 244.348 45.8203C244.973 45.8203 245.547 45.9102 246.07 46.0898C246.602 46.2617 247.059 46.5117 247.441 46.8398C247.824 47.168 248.121 47.5547 248.332 48C248.551 48.4453 248.66 48.9414 248.66 49.4883H246.645C246.645 48.8477 246.457 48.3555 246.082 48.0117C245.707 47.668 245.16 47.4961 244.441 47.4961C243.848 47.4961 243.359 47.6211 242.977 47.8711C242.594 48.1133 242.402 48.4766 242.402 48.9609C242.402 49.2344 242.469 49.4609 242.602 49.6406C242.742 49.8125 242.945 49.9648 243.211 50.0977C243.484 50.2227 243.812 50.3438 244.195 50.4609C244.578 50.5703 245.027 50.7031 245.543 50.8594C245.926 50.9844 246.312 51.125 246.703 51.2812C247.102 51.4297 247.449 51.6211 247.746 51.8555C248.051 52.082 248.297 52.3672 248.484 52.7109C248.68 53.0547 248.777 53.4844 248.777 54C248.777 54.5469 248.668 55.0234 248.449 55.4297C248.238 55.8359 247.945 56.1758 247.57 56.4492C247.195 56.7227 246.75 56.9258 246.234 57.0586C245.727 57.1992 245.184 57.2695 244.605 57.2695C243.965 57.2695 243.363 57.1875 242.801 57.0234C242.246 56.8672 241.758 56.625 241.336 56.2969C240.922 55.9688 240.594 55.5586 240.352 55.0664C240.117 54.5664 240 53.9883 240 53.332ZM256.945 51.5508C256.945 50.7852 257.082 50.0547 257.355 49.3594C257.629 48.6641 258.012 48.0508 258.504 47.5195C259.004 46.9883 259.586 46.5742 260.25 46.2773C260.914 45.9727 261.645 45.8203 262.441 45.8203C263.371 45.8203 264.172 46.0234 264.844 46.4297C265.516 46.8359 266.02 47.3516 266.355 47.9766V46.1016H268.418V57H266.355V55.1016C266.02 55.7266 265.516 56.2461 264.844 56.6602C264.172 57.0664 263.363 57.2695 262.418 57.2695C261.621 57.2695 260.891 57.1172 260.227 56.8125C259.562 56.5078 258.984 56.0938 258.492 55.5703C258.008 55.0391 257.629 54.4297 257.355 53.7422C257.082 53.0469 256.945 52.3164 256.945 51.5508ZM259.008 51.5508C259.008 52.082 259.094 52.5781 259.266 53.0391C259.445 53.5 259.695 53.9062 260.016 54.2578C260.336 54.6016 260.719 54.8789 261.164 55.0898C261.609 55.293 262.113 55.3945 262.676 55.3945C263.238 55.3945 263.742 55.293 264.188 55.0898C264.641 54.8789 265.027 54.6016 265.348 54.2578C265.668 53.9062 265.914 53.5 266.086 53.0391C266.266 52.5781 266.355 52.082 266.355 51.5508C266.355 51.0195 266.266 50.5234 266.086 50.0625C265.914 49.6016 265.668 49.1953 265.348 48.8438C265.027 48.4922 264.641 48.2109 264.188 48C263.742 47.7891 263.238 47.6836 262.676 47.6836C262.113 47.6836 261.609 47.7891 261.164 48C260.719 48.2109 260.336 48.4922 260.016 48.8438C259.695 49.1953 259.445 49.6055 259.266 50.0742C259.094 50.5352 259.008 51.0273 259.008 51.5508ZM271.312 51.5508C271.312 50.8164 271.426 50.1055 271.652 49.418C271.887 48.7305 272.23 48.1211 272.684 47.5898C273.145 47.0508 273.723 46.6211 274.418 46.3008C275.113 45.9805 275.926 45.8203 276.855 45.8203C277.668 45.8203 278.379 45.9414 278.988 46.1836C279.598 46.418 280.109 46.7344 280.523 47.1328C280.945 47.5312 281.266 47.9844 281.484 48.4922C281.711 48.9922 281.848 49.5156 281.895 50.0625H279.809C279.73 49.3906 279.453 48.8281 278.977 48.375C278.508 47.9141 277.816 47.6836 276.902 47.6836C276.293 47.6836 275.77 47.7891 275.332 48C274.895 48.2109 274.531 48.4961 274.242 48.8555C273.953 49.2148 273.738 49.6289 273.598 50.0977C273.465 50.5586 273.398 51.043 273.398 51.5508C273.398 52.0664 273.465 52.5547 273.598 53.0156C273.738 53.4766 273.953 53.8867 274.242 54.2461C274.531 54.5977 274.898 54.8789 275.344 55.0898C275.789 55.293 276.324 55.3945 276.949 55.3945C277.816 55.3945 278.469 55.2031 278.906 54.8203C279.352 54.4297 279.66 53.9102 279.832 53.2617H281.918C281.84 53.793 281.68 54.3008 281.438 54.7852C281.203 55.2695 280.871 55.6953 280.441 56.0625C280.02 56.4297 279.512 56.7227 278.918 56.9414C278.332 57.1602 277.652 57.2695 276.879 57.2695C275.934 57.2695 275.113 57.1094 274.418 56.7891C273.723 56.4688 273.145 56.043 272.684 55.5117C272.23 54.9805 271.887 54.3711 271.652 53.6836C271.426 52.9961 271.312 52.2852 271.312 51.5508ZM284.859 57V46.1016H286.945V48.2344C287.234 47.5469 287.715 46.9922 288.387 46.5703C289.059 46.1484 289.793 45.9375 290.59 45.9375C290.988 45.9375 291.324 45.9922 291.598 46.1016V48.0234C291.371 47.9766 291.191 47.9453 291.059 47.9297C290.926 47.9141 290.785 47.9062 290.637 47.9062C289.371 47.9062 288.438 48.3008 287.836 49.0898C287.242 49.8711 286.945 50.9141 286.945 52.2188V57H284.859ZM292.172 51.5508C292.172 50.7852 292.309 50.0547 292.582 49.3594C292.855 48.6641 293.238 48.0508 293.73 47.5195C294.23 46.9883 294.836 46.5742 295.547 46.2773C296.258 45.9727 297.043 45.8203 297.902 45.8203C298.77 45.8203 299.555 45.9727 300.258 46.2773C300.961 46.5742 301.562 46.9883 302.062 47.5195C302.57 48.0508 302.961 48.6641 303.234 49.3594C303.508 50.0547 303.645 50.7852 303.645 51.5508C303.645 52.3164 303.508 53.0469 303.234 53.7422C302.961 54.4297 302.574 55.0391 302.074 55.5703C301.582 56.0938 300.98 56.5078 300.27 56.8125C299.559 57.1172 298.77 57.2695 297.902 57.2695C297.02 57.2695 296.227 57.1172 295.523 56.8125C294.828 56.5078 294.23 56.0938 293.73 55.5703C293.238 55.0391 292.855 54.4297 292.582 53.7422C292.309 53.0469 292.172 52.3164 292.172 51.5508ZM294.234 51.5508C294.234 52.082 294.32 52.5781 294.492 53.0391C294.672 53.5 294.922 53.9062 295.242 54.2578C295.562 54.6016 295.945 54.8789 296.391 55.0898C296.836 55.293 297.34 55.3945 297.902 55.3945C298.465 55.3945 298.969 55.293 299.414 55.0898C299.867 54.8789 300.254 54.6016 300.574 54.2578C300.895 53.9062 301.141 53.5 301.312 53.0391C301.492 52.5781 301.582 52.082 301.582 51.5508C301.582 51.0195 301.492 50.5234 301.312 50.0625C301.141 49.6016 300.895 49.1953 300.574 48.8438C300.254 48.4922 299.867 48.2109 299.414 48C298.969 47.7891 298.465 47.6836 297.902 47.6836C297.34 47.6836 296.836 47.7891 296.391 48C295.945 48.2109 295.562 48.4922 295.242 48.8438C294.922 49.1953 294.672 49.6055 294.492 50.0742C294.32 50.5352 294.234 51.0273 294.234 51.5508ZM305.578 53.332H307.617C307.617 54.1602 307.859 54.7461 308.344 55.0898C308.836 55.4336 309.457 55.6055 310.207 55.6055C310.863 55.6055 311.387 55.4844 311.777 55.2422C312.176 54.9922 312.375 54.6016 312.375 54.0703C312.375 53.7812 312.309 53.5508 312.176 53.3789C312.051 53.1992 311.848 53.043 311.566 52.9102C311.285 52.7695 310.922 52.6367 310.477 52.5117C310.039 52.3867 309.52 52.2188 308.918 52.0078C308.52 51.8828 308.141 51.7461 307.781 51.5977C307.43 51.4414 307.117 51.2461 306.844 51.0117C306.578 50.7773 306.363 50.5 306.199 50.1797C306.043 49.8594 305.965 49.4688 305.965 49.0078C305.965 48.4609 306.07 47.9883 306.281 47.5898C306.5 47.1914 306.793 46.8594 307.16 46.5938C307.527 46.3281 307.945 46.1328 308.414 46.0078C308.891 45.8828 309.395 45.8203 309.926 45.8203C310.551 45.8203 311.125 45.9102 311.648 46.0898C312.18 46.2617 312.637 46.5117 313.02 46.8398C313.402 47.168 313.699 47.5547 313.91 48C314.129 48.4453 314.238 48.9414 314.238 49.4883H312.223C312.223 48.8477 312.035 48.3555 311.66 48.0117C311.285 47.668 310.738 47.4961 310.02 47.4961C309.426 47.4961 308.938 47.6211 308.555 47.8711C308.172 48.1133 307.98 48.4766 307.98 48.9609C307.98 49.2344 308.047 49.4609 308.18 49.6406C308.32 49.8125 308.523 49.9648 308.789 50.0977C309.062 50.2227 309.391 50.3438 309.773 50.4609C310.156 50.5703 310.605 50.7031 311.121 50.8594C311.504 50.9844 311.891 51.125 312.281 51.2812C312.68 51.4297 313.027 51.6211 313.324 51.8555C313.629 52.082 313.875 52.3672 314.062 52.7109C314.258 53.0547 314.355 53.4844 314.355 54C314.355 54.5469 314.246 55.0234 314.027 55.4297C313.816 55.8359 313.523 56.1758 313.148 56.4492C312.773 56.7227 312.328 56.9258 311.812 57.0586C311.305 57.1992 310.762 57.2695 310.184 57.2695C309.543 57.2695 308.941 57.1875 308.379 57.0234C307.824 56.8672 307.336 56.625 306.914 56.2969C306.5 55.9688 306.172 55.5586 305.93 55.0664C305.695 54.5664 305.578 53.9883 305.578 53.332ZM316.43 53.332H318.469C318.469 54.1602 318.711 54.7461 319.195 55.0898C319.688 55.4336 320.309 55.6055 321.059 55.6055C321.715 55.6055 322.238 55.4844 322.629 55.2422C323.027 54.9922 323.227 54.6016 323.227 54.0703C323.227 53.7812 323.16 53.5508 323.027 53.3789C322.902 53.1992 322.699 53.043 322.418 52.9102C322.137 52.7695 321.773 52.6367 321.328 52.5117C320.891 52.3867 320.371 52.2188 319.77 52.0078C319.371 51.8828 318.992 51.7461 318.633 51.5977C318.281 51.4414 317.969 51.2461 317.695 51.0117C317.43 50.7773 317.215 50.5 317.051 50.1797C316.895 49.8594 316.816 49.4688 316.816 49.0078C316.816 48.4609 316.922 47.9883 317.133 47.5898C317.352 47.1914 317.645 46.8594 318.012 46.5938C318.379 46.3281 318.797 46.1328 319.266 46.0078C319.742 45.8828 320.246 45.8203 320.777 45.8203C321.402 45.8203 321.977 45.9102 322.5 46.0898C323.031 46.2617 323.488 46.5117 323.871 46.8398C324.254 47.168 324.551 47.5547 324.762 48C324.98 48.4453 325.09 48.9414 325.09 49.4883H323.074C323.074 48.8477 322.887 48.3555 322.512 48.0117C322.137 47.668 321.59 47.4961 320.871 47.4961C320.277 47.4961 319.789 47.6211 319.406 47.8711C319.023 48.1133 318.832 48.4766 318.832 48.9609C318.832 49.2344 318.898 49.4609 319.031 49.6406C319.172 49.8125 319.375 49.9648 319.641 50.0977C319.914 50.2227 320.242 50.3438 320.625 50.4609C321.008 50.5703 321.457 50.7031 321.973 50.8594C322.355 50.9844 322.742 51.125 323.133 51.2812C323.531 51.4297 323.879 51.6211 324.176 51.8555C324.48 52.082 324.727 52.3672 324.914 52.7109C325.109 53.0547 325.207 53.4844 325.207 54C325.207 54.5469 325.098 55.0234 324.879 55.4297C324.668 55.8359 324.375 56.1758 324 56.4492C323.625 56.7227 323.18 56.9258 322.664 57.0586C322.156 57.1992 321.613 57.2695 321.035 57.2695C320.395 57.2695 319.793 57.1875 319.23 57.0234C318.676 56.8672 318.188 56.625 317.766 56.2969C317.352 55.9688 317.023 55.5586 316.781 55.0664C316.547 54.5664 316.43 53.9883 316.43 53.332ZM334.266 57V40.1953H336.352V47.9766C336.688 47.3516 337.188 46.8359 337.852 46.4297C338.516 46.0234 339.32 45.8203 340.266 45.8203C341.047 45.8203 341.773 45.9727 342.445 46.2773C343.117 46.5742 343.699 46.9883 344.191 47.5195C344.691 48.0508 345.078 48.6641 345.352 49.3594C345.625 50.0547 345.762 50.7852 345.762 51.5508C345.762 52.3164 345.625 53.0469 345.352 53.7422C345.078 54.4297 344.695 55.0352 344.203 55.5586C343.719 56.0742 343.141 56.4883 342.469 56.8008C341.797 57.1133 341.062 57.2695 340.266 57.2695C339.32 57.2695 338.516 57.0664 337.852 56.6602C337.188 56.2461 336.688 55.7266 336.352 55.1016V57H334.266ZM336.352 51.5508C336.352 52.082 336.438 52.5781 336.609 53.0391C336.789 53.5 337.039 53.9102 337.359 54.2695C337.68 54.6211 338.062 54.8984 338.508 55.1016C338.953 55.2969 339.457 55.3945 340.02 55.3945C340.582 55.3945 341.086 55.293 341.531 55.0898C341.984 54.8789 342.371 54.5977 342.691 54.2461C343.012 53.8867 343.254 53.4766 343.418 53.0156C343.59 52.5547 343.676 52.0664 343.676 51.5508C343.676 51.0352 343.59 50.543 343.418 50.0742C343.254 49.6055 343.012 49.1953 342.691 48.8438C342.371 48.4922 341.984 48.2109 341.531 48C341.086 47.7891 340.582 47.6836 340.02 47.6836C339.457 47.6836 338.953 47.7891 338.508 48C338.062 48.2109 337.68 48.4883 337.359 48.832C337.039 49.1758 336.789 49.5859 336.609 50.0625C336.438 50.5312 336.352 51.0273 336.352 51.5508ZM347.742 51.5508C347.742 50.7852 347.879 50.0547 348.152 49.3594C348.426 48.6641 348.809 48.0508 349.301 47.5195C349.801 46.9883 350.406 46.5742 351.117 46.2773C351.828 45.9727 352.613 45.8203 353.473 45.8203C354.34 45.8203 355.125 45.9727 355.828 46.2773C356.531 46.5742 357.133 46.9883 357.633 47.5195C358.141 48.0508 358.531 48.6641 358.805 49.3594C359.078 50.0547 359.215 50.7852 359.215 51.5508C359.215 52.3164 359.078 53.0469 358.805 53.7422C358.531 54.4297 358.145 55.0391 357.645 55.5703C357.152 56.0938 356.551 56.5078 355.84 56.8125C355.129 57.1172 354.34 57.2695 353.473 57.2695C352.59 57.2695 351.797 57.1172 351.094 56.8125C350.398 56.5078 349.801 56.0938 349.301 55.5703C348.809 55.0391 348.426 54.4297 348.152 53.7422C347.879 53.0469 347.742 52.3164 347.742 51.5508ZM349.805 51.5508C349.805 52.082 349.891 52.5781 350.062 53.0391C350.242 53.5 350.492 53.9062 350.812 54.2578C351.133 54.6016 351.516 54.8789 351.961 55.0898C352.406 55.293 352.91 55.3945 353.473 55.3945C354.035 55.3945 354.539 55.293 354.984 55.0898C355.438 54.8789 355.824 54.6016 356.145 54.2578C356.465 53.9062 356.711 53.5 356.883 53.0391C357.062 52.5781 357.152 52.082 357.152 51.5508C357.152 51.0195 357.062 50.5234 356.883 50.0625C356.711 49.6016 356.465 49.1953 356.145 48.8438C355.824 48.4922 355.438 48.2109 354.984 48C354.539 47.7891 354.035 47.6836 353.473 47.6836C352.91 47.6836 352.406 47.7891 351.961 48C351.516 48.2109 351.133 48.4922 350.812 48.8438C350.492 49.1953 350.242 49.6055 350.062 50.0742C349.891 50.5352 349.805 51.0273 349.805 51.5508ZM362.062 57V46.1016H364.148V48.2344C364.438 47.5469 364.918 46.9922 365.59 46.5703C366.262 46.1484 366.996 45.9375 367.793 45.9375C368.191 45.9375 368.527 45.9922 368.801 46.1016V48.0234C368.574 47.9766 368.395 47.9453 368.262 47.9297C368.129 47.9141 367.988 47.9062 367.84 47.9062C366.574 47.9062 365.641 48.3008 365.039 49.0898C364.445 49.8711 364.148 50.9141 364.148 52.2188V57H362.062ZM369.703 51.5508C369.703 50.7852 369.84 50.0547 370.113 49.3594C370.387 48.6641 370.77 48.0508 371.262 47.5195C371.762 46.9883 372.344 46.5742 373.008 46.2773C373.672 45.9727 374.402 45.8203 375.199 45.8203C376.129 45.8203 376.93 46.0234 377.602 46.4297C378.273 46.8359 378.777 47.3516 379.113 47.9766V40.1953H381.176V57H379.113V55.1016C378.777 55.7266 378.273 56.2461 377.602 56.6602C376.93 57.0664 376.121 57.2695 375.176 57.2695C374.379 57.2695 373.648 57.1172 372.984 56.8125C372.32 56.5078 371.742 56.0938 371.25 55.5703C370.766 55.0391 370.387 54.4297 370.113 53.7422C369.84 53.0469 369.703 52.3164 369.703 51.5508ZM371.766 51.5508C371.766 52.082 371.852 52.5781 372.023 53.0391C372.203 53.5 372.453 53.9062 372.773 54.2578C373.094 54.6016 373.477 54.8789 373.922 55.0898C374.367 55.293 374.871 55.3945 375.434 55.3945C375.996 55.3945 376.5 55.293 376.945 55.0898C377.398 54.8789 377.785 54.6016 378.105 54.2578C378.426 53.9062 378.672 53.5 378.844 53.0391C379.023 52.5781 379.113 52.082 379.113 51.5508C379.113 51.0195 379.023 50.5234 378.844 50.0625C378.672 49.6016 378.426 49.1953 378.105 48.8438C377.785 48.4922 377.398 48.2109 376.945 48C376.5 47.7891 375.996 47.6836 375.434 47.6836C374.871 47.6836 374.367 47.7891 373.922 48C373.477 48.2109 373.094 48.4922 372.773 48.8438C372.453 49.1953 372.203 49.6055 372.023 50.0742C371.852 50.5352 371.766 51.0273 371.766 51.5508ZM384.07 51.5039C384.07 50.6914 384.195 49.9414 384.445 49.2539C384.695 48.5586 385.047 47.957 385.5 47.4492C385.953 46.9336 386.504 46.5352 387.152 46.2539C387.801 45.9648 388.527 45.8203 389.332 45.8203C390.082 45.8203 390.773 45.9453 391.406 46.1953C392.039 46.4375 392.582 46.7852 393.035 47.2383C393.488 47.6836 393.844 48.207 394.102 48.8086C394.359 49.4023 394.488 50.043 394.488 50.7305C394.488 50.8867 394.484 51.0781 394.477 51.3047C394.469 51.5312 394.441 51.7969 394.395 52.1016H386.203C386.203 52.5625 386.266 53 386.391 53.4141C386.523 53.8203 386.723 54.1797 386.988 54.4922C387.254 54.8047 387.594 55.0547 388.008 55.2422C388.422 55.4219 388.918 55.5117 389.496 55.5117C390.324 55.5117 390.949 55.3398 391.371 54.9961C391.801 54.6523 392.102 54.25 392.273 53.7891H394.395C394.301 54.25 394.121 54.6875 393.855 55.1016C393.59 55.5156 393.25 55.8828 392.836 56.2031C392.43 56.5234 391.941 56.7812 391.371 56.9766C390.809 57.1719 390.184 57.2695 389.496 57.2695C388.582 57.2695 387.785 57.1094 387.105 56.7891C386.426 56.4688 385.859 56.043 385.406 55.5117C384.961 54.9805 384.625 54.3672 384.398 53.6719C384.18 52.9766 384.07 52.2539 384.07 51.5039ZM386.227 50.5195H392.473C392.473 49.6211 392.184 48.9102 391.605 48.3867C391.035 47.8555 390.293 47.5898 389.379 47.5898C388.512 47.5898 387.777 47.8398 387.176 48.3398C386.574 48.832 386.258 49.5586 386.227 50.5195ZM397.523 57V46.1016H399.609V48.2344C399.898 47.5469 400.379 46.9922 401.051 46.5703C401.723 46.1484 402.457 45.9375 403.254 45.9375C403.652 45.9375 403.988 45.9922 404.262 46.1016V48.0234C404.035 47.9766 403.855 47.9453 403.723 47.9297C403.59 47.9141 403.449 47.9062 403.301 47.9062C402.035 47.9062 401.102 48.3008 400.5 49.0898C399.906 49.8711 399.609 50.9141 399.609 52.2188V57H397.523ZM405.141 53.332H407.18C407.18 54.1602 407.422 54.7461 407.906 55.0898C408.398 55.4336 409.02 55.6055 409.77 55.6055C410.426 55.6055 410.949 55.4844 411.34 55.2422C411.738 54.9922 411.938 54.6016 411.938 54.0703C411.938 53.7812 411.871 53.5508 411.738 53.3789C411.613 53.1992 411.41 53.043 411.129 52.9102C410.848 52.7695 410.484 52.6367 410.039 52.5117C409.602 52.3867 409.082 52.2188 408.48 52.0078C408.082 51.8828 407.703 51.7461 407.344 51.5977C406.992 51.4414 406.68 51.2461 406.406 51.0117C406.141 50.7773 405.926 50.5 405.762 50.1797C405.605 49.8594 405.527 49.4688 405.527 49.0078C405.527 48.4609 405.633 47.9883 405.844 47.5898C406.062 47.1914 406.355 46.8594 406.723 46.5938C407.09 46.3281 407.508 46.1328 407.977 46.0078C408.453 45.8828 408.957 45.8203 409.488 45.8203C410.113 45.8203 410.688 45.9102 411.211 46.0898C411.742 46.2617 412.199 46.5117 412.582 46.8398C412.965 47.168 413.262 47.5547 413.473 48C413.691 48.4453 413.801 48.9414 413.801 49.4883H411.785C411.785 48.8477 411.598 48.3555 411.223 48.0117C410.848 47.668 410.301 47.4961 409.582 47.4961C408.988 47.4961 408.5 47.6211 408.117 47.8711C407.734 48.1133 407.543 48.4766 407.543 48.9609C407.543 49.2344 407.609 49.4609 407.742 49.6406C407.883 49.8125 408.086 49.9648 408.352 50.0977C408.625 50.2227 408.953 50.3438 409.336 50.4609C409.719 50.5703 410.168 50.7031 410.684 50.8594C411.066 50.9844 411.453 51.125 411.844 51.2812C412.242 51.4297 412.59 51.6211 412.887 51.8555C413.191 52.082 413.438 52.3672 413.625 52.7109C413.82 53.0547 413.918 53.4844 413.918 54C413.918 54.5469 413.809 55.0234 413.59 55.4297C413.379 55.8359 413.086 56.1758 412.711 56.4492C412.336 56.7227 411.891 56.9258 411.375 57.0586C410.867 57.1992 410.324 57.2695 409.746 57.2695C409.105 57.2695 408.504 57.1875 407.941 57.0234C407.387 56.8672 406.898 56.625 406.477 56.2969C406.062 55.9688 405.734 55.5586 405.492 55.0664C405.258 54.5664 405.141 53.9883 405.141 53.332ZM416.191 55.4414C416.191 54.9805 416.352 54.5859 416.672 54.2578C416.992 53.9297 417.383 53.7656 417.844 53.7656C418.305 53.7656 418.703 53.9297 419.039 54.2578C419.383 54.5781 419.555 54.9727 419.555 55.4414C419.555 55.9023 419.383 56.2969 419.039 56.625C418.703 56.9531 418.305 57.1172 417.844 57.1172C417.383 57.1172 416.992 56.957 416.672 56.6367C416.352 56.3164 416.191 55.918 416.191 55.4414Z" fill="black"/>
</svg>
