<svg width="261" height="47" viewBox="0 0 261 47" fill="none" xmlns="http://www.w3.org/2000/svg">
<path d="M4.58594 2.10938V0.796875H11.8438V2.10938H8.9375V12H7.47656V2.10938H4.58594ZM13.2812 12V0.796875H14.6719V6.01562C14.8854 5.56771 15.2083 5.21094 15.6406 4.94531C16.0729 4.67969 16.6094 4.54688 17.25 4.54688C17.7188 4.54688 18.1328 4.6276 18.4922 4.78906C18.8568 4.94531 19.1615 5.1849 19.4062 5.50781C19.6094 5.78385 19.7526 6.09375 19.8359 6.4375C19.9245 6.77604 19.9688 7.20052 19.9688 7.71094V12H18.5781V8.14062C18.5781 7.8125 18.5443 7.5026 18.4766 7.21094C18.4141 6.91406 18.3099 6.66146 18.1641 6.45312C18.0234 6.24479 17.8359 6.08073 17.6016 5.96094C17.3672 5.83594 17.0833 5.77344 16.75 5.77344C16.3958 5.77344 16.0885 5.84375 15.8281 5.98438C15.5677 6.125 15.3516 6.3099 15.1797 6.53906C15.013 6.76823 14.8854 7.03125 14.7969 7.32812C14.7135 7.625 14.6719 7.9349 14.6719 8.25781V12H13.2812ZM21.7656 8.33594C21.7656 7.79427 21.849 7.29427 22.0156 6.83594C22.1823 6.3724 22.4167 5.97135 22.7188 5.63281C23.0208 5.28906 23.388 5.02344 23.8203 4.83594C24.2526 4.64323 24.737 4.54688 25.2734 4.54688C25.7734 4.54688 26.2344 4.63021 26.6562 4.79688C27.0781 4.95833 27.4401 5.1901 27.7422 5.49219C28.0443 5.78906 28.2812 6.13802 28.4531 6.53906C28.625 6.9349 28.7109 7.36198 28.7109 7.82031C28.7109 7.92448 28.7083 8.05208 28.7031 8.20312C28.6979 8.35417 28.6797 8.53125 28.6484 8.73438H23.1875C23.1875 9.04167 23.2292 9.33333 23.3125 9.60938C23.401 9.88021 23.5339 10.1198 23.7109 10.3281C23.888 10.5365 24.1146 10.7031 24.3906 10.8281C24.6667 10.9479 24.9974 11.0078 25.3828 11.0078C25.9349 11.0078 26.3516 10.8932 26.6328 10.6641C26.9193 10.4349 27.1198 10.1667 27.2344 9.85938H28.6484C28.5859 10.1667 28.4661 10.4583 28.2891 10.7344C28.112 11.0104 27.8854 11.2552 27.6094 11.4688C27.3385 11.6823 27.013 11.8542 26.6328 11.9844C26.2578 12.1146 25.8411 12.1797 25.3828 12.1797C24.7734 12.1797 24.2422 12.0729 23.7891 11.8594C23.3359 11.6458 22.9583 11.362 22.6562 11.0078C22.3594 10.6536 22.1354 10.2448 21.9844 9.78125C21.8385 9.31771 21.7656 8.83594 21.7656 8.33594ZM23.2031 7.67969H27.3672C27.3672 7.08073 27.1745 6.60677 26.7891 6.25781C26.4089 5.90365 25.9141 5.72656 25.3047 5.72656C24.7266 5.72656 24.237 5.89323 23.8359 6.22656C23.4349 6.55469 23.224 7.03906 23.2031 7.67969ZM34.2031 8.36719C34.2031 7.85677 34.2943 7.36979 34.4766 6.90625C34.6589 6.44271 34.9141 6.03385 35.2422 5.67969C35.5755 5.32552 35.9635 5.04948 36.4062 4.85156C36.849 4.64844 37.3359 4.54688 37.8672 4.54688C38.4974 4.54688 39.0339 4.68229 39.4766 4.95312C39.9193 5.22396 40.2526 5.56771 40.4766 5.98438V4.73438H41.8672V15.9375H40.4766V10.7344C40.2526 11.151 39.9193 11.4974 39.4766 11.7734C39.0339 12.0443 38.4974 12.1797 37.8672 12.1797C37.3359 12.1797 36.8464 12.0755 36.3984 11.8672C35.9505 11.6589 35.5625 11.3828 35.2344 11.0391C34.9115 10.6901 34.6589 10.2865 34.4766 9.82812C34.2943 9.36458 34.2031 8.8776 34.2031 8.36719ZM35.5938 8.36719C35.5938 8.71094 35.6484 9.03646 35.7578 9.34375C35.8724 9.65104 36.0365 9.92448 36.25 10.1641C36.4635 10.3984 36.7188 10.5859 37.0156 10.7266C37.3177 10.862 37.6536 10.9297 38.0234 10.9297C38.388 10.9297 38.7214 10.8646 39.0234 10.7344C39.3307 10.599 39.5911 10.4141 39.8047 10.1797C40.0182 9.9401 40.1823 9.66667 40.2969 9.35938C40.4167 9.05208 40.4766 8.72135 40.4766 8.36719C40.4766 8.01302 40.4167 7.67969 40.2969 7.36719C40.1823 7.05469 40.0182 6.78385 39.8047 6.55469C39.5911 6.32552 39.3307 6.14062 39.0234 6C38.7214 5.85938 38.388 5.78906 38.0234 5.78906C37.6484 5.78906 37.3125 5.85938 37.0156 6C36.7188 6.14062 36.4635 6.32812 36.25 6.5625C36.0365 6.79688 35.8724 7.07292 35.7578 7.39062C35.6484 7.70312 35.5938 8.02865 35.5938 8.36719ZM44.2109 9.02344V4.73438H45.6016V8.57812C45.6016 8.92188 45.6328 9.23698 45.6953 9.52344C45.763 9.8099 45.8672 10.0573 46.0078 10.2656C46.1536 10.474 46.3411 10.6406 46.5703 10.7656C46.7995 10.8854 47.0807 10.9453 47.4141 10.9453C47.7682 10.9453 48.0781 10.8802 48.3438 10.75C48.6094 10.6146 48.8255 10.4323 48.9922 10.2031C49.1641 9.97396 49.2917 9.71094 49.375 9.41406C49.4635 9.11198 49.5078 8.79427 49.5078 8.46094V4.73438H50.8984V12H49.5078V10.7031C49.2943 11.151 48.9688 11.5104 48.5312 11.7812C48.0938 12.0469 47.5547 12.1797 46.9141 12.1797C46.4557 12.1797 46.0417 12.1016 45.6719 11.9453C45.3073 11.7891 45.0026 11.5521 44.7578 11.2344C44.5547 10.9583 44.4115 10.6484 44.3281 10.3047C44.25 9.96094 44.2109 9.53385 44.2109 9.02344ZM53.2422 1.98438C53.2422 1.67708 53.3516 1.41146 53.5703 1.1875C53.7891 0.963542 54.0547 0.851562 54.3672 0.851562C54.6745 0.851562 54.9375 0.963542 55.1562 1.1875C55.375 1.41146 55.4844 1.67708 55.4844 1.98438C55.4844 2.29167 55.375 2.55208 55.1562 2.76562C54.9375 2.97917 54.6745 3.08594 54.3672 3.08594C54.0599 3.08594 53.7943 2.97917 53.5703 2.76562C53.3516 2.55208 53.2422 2.29167 53.2422 1.98438ZM53.6797 12V4.73438H55.0547V12H53.6797ZM57.2656 8.36719C57.2656 7.8776 57.3411 7.40365 57.4922 6.94531C57.6484 6.48698 57.8776 6.08073 58.1797 5.72656C58.487 5.36719 58.8724 5.08073 59.3359 4.86719C59.7995 4.65365 60.3411 4.54688 60.9609 4.54688C61.5026 4.54688 61.9766 4.6276 62.3828 4.78906C62.7891 4.94531 63.1302 5.15625 63.4062 5.42188C63.6875 5.6875 63.901 5.98958 64.0469 6.32812C64.1979 6.66146 64.2891 7.01042 64.3203 7.375H62.9297C62.8776 6.92708 62.6927 6.55208 62.375 6.25C62.0625 5.94271 61.6016 5.78906 60.9922 5.78906C60.5859 5.78906 60.237 5.85938 59.9453 6C59.6536 6.14062 59.4115 6.33073 59.2188 6.57031C59.026 6.8099 58.8828 7.08594 58.7891 7.39844C58.7005 7.70573 58.6562 8.02865 58.6562 8.36719C58.6562 8.71094 58.7005 9.03646 58.7891 9.34375C58.8828 9.65104 59.026 9.92448 59.2188 10.1641C59.4115 10.3984 59.6562 10.5859 59.9531 10.7266C60.25 10.862 60.6068 10.9297 61.0234 10.9297C61.6016 10.9297 62.0365 10.8021 62.3281 10.5469C62.625 10.2865 62.8307 9.9401 62.9453 9.50781H64.3359C64.2839 9.86198 64.1771 10.2005 64.0156 10.5234C63.8594 10.8464 63.638 11.1302 63.3516 11.375C63.0703 11.6198 62.7318 11.8151 62.3359 11.9609C61.9453 12.1068 61.4922 12.1797 60.9766 12.1797C60.3464 12.1797 59.7995 12.0729 59.3359 11.8594C58.8724 11.6458 58.487 11.362 58.1797 11.0078C57.8776 10.6536 57.6484 10.2474 57.4922 9.78906C57.3411 9.33073 57.2656 8.85677 57.2656 8.36719ZM66.2969 12V0.796875H67.6875V8.04688L70.7266 4.73438H72.4844L69.1719 8.36719L72.4844 12H70.7266L67.6875 8.70312V12H66.2969ZM73.6016 10.9766C73.6016 10.6693 73.7083 10.4036 73.9219 10.1797C74.1354 9.95573 74.4167 9.84375 74.7656 9.84375C75.151 9.84375 75.4661 9.99219 75.7109 10.2891C75.9557 10.5859 76.0781 11.0286 76.0781 11.6172C76.0781 12.3984 75.8568 12.9661 75.4141 13.3203C74.9714 13.6797 74.3932 13.8594 73.6797 13.8594V13.1719C73.9974 13.1719 74.2422 13.125 74.4141 13.0312C74.5859 12.9427 74.724 12.8229 74.8281 12.6719C74.9896 12.4375 75.0703 12.2031 75.0703 11.9688C75.0391 12 74.987 12.0286 74.9141 12.0547C74.8464 12.0807 74.7604 12.0938 74.6562 12.0938C74.349 12.0938 74.0964 11.9844 73.8984 11.7656C73.7005 11.5469 73.6016 11.2839 73.6016 10.9766ZM81.6719 9.55469H83.0312C83.0312 10.1068 83.1927 10.4974 83.5156 10.7266C83.8438 10.9557 84.2578 11.0703 84.7578 11.0703C85.1953 11.0703 85.5443 10.9896 85.8047 10.8281C86.0703 10.6615 86.2031 10.401 86.2031 10.0469C86.2031 9.85417 86.1589 9.70052 86.0703 9.58594C85.987 9.46615 85.8516 9.36198 85.6641 9.27344C85.4766 9.17969 85.2344 9.09115 84.9375 9.00781C84.6458 8.92448 84.2995 8.8125 83.8984 8.67188C83.6328 8.58854 83.3802 8.4974 83.1406 8.39844C82.9062 8.29427 82.6979 8.16406 82.5156 8.00781C82.3385 7.85156 82.1953 7.66667 82.0859 7.45312C81.9818 7.23958 81.9297 6.97917 81.9297 6.67188C81.9297 6.30729 82 5.99219 82.1406 5.72656C82.2865 5.46094 82.4818 5.23958 82.7266 5.0625C82.9714 4.88542 83.25 4.75521 83.5625 4.67188C83.8802 4.58854 84.2161 4.54688 84.5703 4.54688C84.987 4.54688 85.3698 4.60677 85.7188 4.72656C86.0729 4.84115 86.3776 5.00781 86.6328 5.22656C86.888 5.44531 87.0859 5.70312 87.2266 6C87.3724 6.29688 87.4453 6.6276 87.4453 6.99219H86.1016C86.1016 6.5651 85.9766 6.23698 85.7266 6.00781C85.4766 5.77865 85.112 5.66406 84.6328 5.66406C84.237 5.66406 83.9115 5.7474 83.6562 5.91406C83.401 6.07552 83.2734 6.31771 83.2734 6.64062C83.2734 6.82292 83.3177 6.97396 83.4062 7.09375C83.5 7.20833 83.6354 7.3099 83.8125 7.39844C83.9948 7.48177 84.2135 7.5625 84.4688 7.64062C84.724 7.71354 85.0234 7.80208 85.3672 7.90625C85.6224 7.98958 85.8802 8.08333 86.1406 8.1875C86.4062 8.28646 86.638 8.41406 86.8359 8.57031C87.0391 8.72135 87.2031 8.91146 87.3281 9.14062C87.4583 9.36979 87.5234 9.65625 87.5234 10C87.5234 10.3646 87.4505 10.6823 87.3047 10.9531C87.1641 11.224 86.9688 11.4505 86.7188 11.6328C86.4688 11.8151 86.1719 11.9505 85.8281 12.0391C85.4896 12.1328 85.1276 12.1797 84.7422 12.1797C84.3151 12.1797 83.9141 12.125 83.5391 12.0156C83.1693 11.9115 82.8438 11.75 82.5625 11.5312C82.2865 11.3125 82.0677 11.0391 81.9062 10.7109C81.75 10.3776 81.6719 9.99219 81.6719 9.55469ZM88.9531 8.33594C88.9531 7.79427 89.0365 7.29427 89.2031 6.83594C89.3698 6.3724 89.6042 5.97135 89.9062 5.63281C90.2083 5.28906 90.5755 5.02344 91.0078 4.83594C91.4401 4.64323 91.9245 4.54688 92.4609 4.54688C92.9609 4.54688 93.4219 4.63021 93.8438 4.79688C94.2656 4.95833 94.6276 5.1901 94.9297 5.49219C95.2318 5.78906 95.4688 6.13802 95.6406 6.53906C95.8125 6.9349 95.8984 7.36198 95.8984 7.82031C95.8984 7.92448 95.8958 8.05208 95.8906 8.20312C95.8854 8.35417 95.8672 8.53125 95.8359 8.73438H90.375C90.375 9.04167 90.4167 9.33333 90.5 9.60938C90.5885 9.88021 90.7214 10.1198 90.8984 10.3281C91.0755 10.5365 91.3021 10.7031 91.5781 10.8281C91.8542 10.9479 92.1849 11.0078 92.5703 11.0078C93.1224 11.0078 93.5391 10.8932 93.8203 10.6641C94.1068 10.4349 94.3073 10.1667 94.4219 9.85938H95.8359C95.7734 10.1667 95.6536 10.4583 95.4766 10.7344C95.2995 11.0104 95.0729 11.2552 94.7969 11.4688C94.526 11.6823 94.2005 11.8542 93.8203 11.9844C93.4453 12.1146 93.0286 12.1797 92.5703 12.1797C91.9609 12.1797 91.4297 12.0729 90.9766 11.8594C90.5234 11.6458 90.1458 11.362 89.8438 11.0078C89.5469 10.6536 89.3229 10.2448 89.1719 9.78125C89.026 9.31771 88.9531 8.83594 88.9531 8.33594ZM90.3906 7.67969H94.5547C94.5547 7.08073 94.362 6.60677 93.9766 6.25781C93.5964 5.90365 93.1016 5.72656 92.4922 5.72656C91.9141 5.72656 91.4245 5.89323 91.0234 6.22656C90.6224 6.55469 90.4115 7.03906 90.3906 7.67969ZM97.3594 8.36719C97.3594 7.8776 97.4349 7.40365 97.5859 6.94531C97.7422 6.48698 97.9714 6.08073 98.2734 5.72656C98.5807 5.36719 98.9661 5.08073 99.4297 4.86719C99.8932 4.65365 100.435 4.54688 101.055 4.54688C101.596 4.54688 102.07 4.6276 102.477 4.78906C102.883 4.94531 103.224 5.15625 103.5 5.42188C103.781 5.6875 103.995 5.98958 104.141 6.32812C104.292 6.66146 104.383 7.01042 104.414 7.375H103.023C102.971 6.92708 102.786 6.55208 102.469 6.25C102.156 5.94271 101.695 5.78906 101.086 5.78906C100.68 5.78906 100.331 5.85938 100.039 6C99.7474 6.14062 99.5052 6.33073 99.3125 6.57031C99.1198 6.8099 98.9766 7.08594 98.8828 7.39844C98.7943 7.70573 98.75 8.02865 98.75 8.36719C98.75 8.71094 98.7943 9.03646 98.8828 9.34375C98.9766 9.65104 99.1198 9.92448 99.3125 10.1641C99.5052 10.3984 99.75 10.5859 100.047 10.7266C100.344 10.862 100.701 10.9297 101.117 10.9297C101.695 10.9297 102.13 10.8021 102.422 10.5469C102.719 10.2865 102.924 9.9401 103.039 9.50781H104.43C104.378 9.86198 104.271 10.2005 104.109 10.5234C103.953 10.8464 103.732 11.1302 103.445 11.375C103.164 11.6198 102.826 11.8151 102.43 11.9609C102.039 12.1068 101.586 12.1797 101.07 12.1797C100.44 12.1797 99.8932 12.0729 99.4297 11.8594C98.9661 11.6458 98.5807 11.362 98.2734 11.0078C97.9714 10.6536 97.7422 10.2474 97.5859 9.78906C97.4349 9.33073 97.3594 8.85677 97.3594 8.36719ZM106.242 9.02344V4.73438H107.633V8.57812C107.633 8.92188 107.664 9.23698 107.727 9.52344C107.794 9.8099 107.898 10.0573 108.039 10.2656C108.185 10.474 108.372 10.6406 108.602 10.7656C108.831 10.8854 109.112 10.9453 109.445 10.9453C109.799 10.9453 110.109 10.8802 110.375 10.75C110.641 10.6146 110.857 10.4323 111.023 10.2031C111.195 9.97396 111.323 9.71094 111.406 9.41406C111.495 9.11198 111.539 8.79427 111.539 8.46094V4.73438H112.93V12H111.539V10.7031C111.326 11.151 111 11.5104 110.562 11.7812C110.125 12.0469 109.586 12.1797 108.945 12.1797C108.487 12.1797 108.073 12.1016 107.703 11.9453C107.339 11.7891 107.034 11.5521 106.789 11.2344C106.586 10.9583 106.443 10.6484 106.359 10.3047C106.281 9.96094 106.242 9.53385 106.242 9.02344ZM115.438 12V4.73438H116.828V6.15625C117.021 5.69792 117.341 5.32812 117.789 5.04688C118.237 4.76562 118.727 4.625 119.258 4.625C119.523 4.625 119.747 4.66146 119.93 4.73438V6.01562C119.779 5.98438 119.659 5.96354 119.57 5.95312C119.482 5.94271 119.388 5.9375 119.289 5.9375C118.445 5.9375 117.823 6.20052 117.422 6.72656C117.026 7.2474 116.828 7.94271 116.828 8.8125V12H115.438ZM120.562 8.33594C120.562 7.79427 120.646 7.29427 120.812 6.83594C120.979 6.3724 121.214 5.97135 121.516 5.63281C121.818 5.28906 122.185 5.02344 122.617 4.83594C123.049 4.64323 123.534 4.54688 124.07 4.54688C124.57 4.54688 125.031 4.63021 125.453 4.79688C125.875 4.95833 126.237 5.1901 126.539 5.49219C126.841 5.78906 127.078 6.13802 127.25 6.53906C127.422 6.9349 127.508 7.36198 127.508 7.82031C127.508 7.92448 127.505 8.05208 127.5 8.20312C127.495 8.35417 127.477 8.53125 127.445 8.73438H121.984C121.984 9.04167 122.026 9.33333 122.109 9.60938C122.198 9.88021 122.331 10.1198 122.508 10.3281C122.685 10.5365 122.911 10.7031 123.188 10.8281C123.464 10.9479 123.794 11.0078 124.18 11.0078C124.732 11.0078 125.148 10.8932 125.43 10.6641C125.716 10.4349 125.917 10.1667 126.031 9.85938H127.445C127.383 10.1667 127.263 10.4583 127.086 10.7344C126.909 11.0104 126.682 11.2552 126.406 11.4688C126.135 11.6823 125.81 11.8542 125.43 11.9844C125.055 12.1146 124.638 12.1797 124.18 12.1797C123.57 12.1797 123.039 12.0729 122.586 11.8594C122.133 11.6458 121.755 11.362 121.453 11.0078C121.156 10.6536 120.932 10.2448 120.781 9.78125C120.635 9.31771 120.562 8.83594 120.562 8.33594ZM122 7.67969H126.164C126.164 7.08073 125.971 6.60677 125.586 6.25781C125.206 5.90365 124.711 5.72656 124.102 5.72656C123.523 5.72656 123.034 5.89323 122.633 6.22656C122.232 6.55469 122.021 7.03906 122 7.67969ZM132.984 8.36719C132.984 7.85677 133.076 7.36979 133.258 6.90625C133.44 6.44271 133.695 6.03385 134.023 5.67969C134.357 5.32552 134.745 5.04948 135.188 4.85156C135.63 4.64844 136.117 4.54688 136.648 4.54688C137.268 4.54688 137.802 4.68229 138.25 4.95312C138.698 5.22396 139.034 5.56771 139.258 5.98438V4.73438H140.633V12H139.258V10.7344C139.034 11.151 138.698 11.4974 138.25 11.7734C137.802 12.0443 137.263 12.1797 136.633 12.1797C136.102 12.1797 135.615 12.0781 135.172 11.875C134.729 11.6719 134.344 11.3958 134.016 11.0469C133.693 10.6927 133.44 10.2865 133.258 9.82812C133.076 9.36458 132.984 8.8776 132.984 8.36719ZM134.359 8.36719C134.359 8.72135 134.417 9.05208 134.531 9.35938C134.651 9.66667 134.818 9.9375 135.031 10.1719C135.245 10.401 135.5 10.5859 135.797 10.7266C136.094 10.862 136.43 10.9297 136.805 10.9297C137.18 10.9297 137.516 10.862 137.812 10.7266C138.115 10.5859 138.372 10.401 138.586 10.1719C138.799 9.9375 138.964 9.66667 139.078 9.35938C139.198 9.05208 139.258 8.72135 139.258 8.36719C139.258 8.01302 139.198 7.68229 139.078 7.375C138.964 7.06771 138.799 6.79688 138.586 6.5625C138.372 6.32812 138.115 6.14062 137.812 6C137.516 5.85938 137.18 5.78906 136.805 5.78906C136.43 5.78906 136.094 5.85938 135.797 6C135.5 6.14062 135.245 6.32812 135.031 6.5625C134.818 6.79688 134.651 7.07031 134.531 7.38281C134.417 7.6901 134.359 8.01823 134.359 8.36719ZM143.125 12V4.73438H144.516V6.01562C144.729 5.56771 145.052 5.21094 145.484 4.94531C145.917 4.67969 146.453 4.54688 147.094 4.54688C147.562 4.54688 147.977 4.6276 148.336 4.78906C148.701 4.94531 149.005 5.1849 149.25 5.50781C149.453 5.78385 149.596 6.09375 149.68 6.4375C149.768 6.77604 149.812 7.20052 149.812 7.71094V12H148.422V8.14062C148.422 7.8125 148.388 7.5026 148.32 7.21094C148.258 6.91406 148.154 6.66146 148.008 6.45312C147.867 6.24479 147.68 6.08073 147.445 5.96094C147.211 5.83594 146.927 5.77344 146.594 5.77344C146.24 5.77344 145.932 5.84375 145.672 5.98438C145.411 6.125 145.195 6.3099 145.023 6.53906C144.857 6.76823 144.729 7.03125 144.641 7.32812C144.557 7.625 144.516 7.9349 144.516 8.25781V12H143.125ZM151.578 8.36719C151.578 7.85677 151.669 7.36979 151.852 6.90625C152.034 6.44271 152.289 6.03385 152.617 5.67969C152.951 5.32552 153.339 5.04948 153.781 4.85156C154.224 4.64844 154.711 4.54688 155.242 4.54688C155.862 4.54688 156.396 4.68229 156.844 4.95312C157.292 5.22396 157.628 5.56771 157.852 5.98438V0.796875H159.227V12H157.852V10.7344C157.628 11.151 157.292 11.4974 156.844 11.7734C156.396 12.0443 155.857 12.1797 155.227 12.1797C154.695 12.1797 154.208 12.0781 153.766 11.875C153.323 11.6719 152.938 11.3958 152.609 11.0469C152.286 10.6927 152.034 10.2865 151.852 9.82812C151.669 9.36458 151.578 8.8776 151.578 8.36719ZM152.953 8.36719C152.953 8.72135 153.01 9.05208 153.125 9.35938C153.245 9.66667 153.411 9.9375 153.625 10.1719C153.839 10.401 154.094 10.5859 154.391 10.7266C154.688 10.862 155.023 10.9297 155.398 10.9297C155.773 10.9297 156.109 10.862 156.406 10.7266C156.708 10.5859 156.966 10.401 157.18 10.1719C157.393 9.9375 157.557 9.66667 157.672 9.35938C157.792 9.05208 157.852 8.72135 157.852 8.36719C157.852 8.01302 157.792 7.68229 157.672 7.375C157.557 7.06771 157.393 6.79688 157.18 6.5625C156.966 6.32812 156.708 6.14062 156.406 6C156.109 5.85938 155.773 5.78906 155.398 5.78906C155.023 5.78906 154.688 5.85938 154.391 6C154.094 6.14062 153.839 6.32812 153.625 6.5625C153.411 6.79688 153.245 7.07031 153.125 7.38281C153.01 7.6901 152.953 8.01823 152.953 8.36719ZM164.852 5.90625V4.73438H166.422V3.46875C166.422 2.81771 166.508 2.30729 166.68 1.9375C166.857 1.5625 167.07 1.28385 167.32 1.10156C167.576 0.919271 167.839 0.807292 168.109 0.765625C168.38 0.723958 168.612 0.703125 168.805 0.703125C169.091 0.703125 169.318 0.721354 169.484 0.757812C169.651 0.794271 169.786 0.841146 169.891 0.898438V2.07812C169.76 2.03646 169.633 2.00521 169.508 1.98438C169.388 1.96354 169.221 1.95312 169.008 1.95312C168.878 1.95312 168.742 1.96354 168.602 1.98438C168.461 2.00521 168.331 2.0625 168.211 2.15625C168.096 2.24479 168 2.38281 167.922 2.57031C167.849 2.75781 167.812 3.01042 167.812 3.32812V4.73438H169.891V5.90625H167.812V12H166.422V5.90625H164.852ZM170.562 8.36719C170.562 7.85677 170.654 7.36979 170.836 6.90625C171.018 6.44271 171.273 6.03385 171.602 5.67969C171.935 5.32552 172.323 5.04948 172.766 4.85156C173.208 4.64844 173.695 4.54688 174.227 4.54688C174.846 4.54688 175.38 4.68229 175.828 4.95312C176.276 5.22396 176.612 5.56771 176.836 5.98438V4.73438H178.211V12H176.836V10.7344C176.612 11.151 176.276 11.4974 175.828 11.7734C175.38 12.0443 174.841 12.1797 174.211 12.1797C173.68 12.1797 173.193 12.0781 172.75 11.875C172.307 11.6719 171.922 11.3958 171.594 11.0469C171.271 10.6927 171.018 10.2865 170.836 9.82812C170.654 9.36458 170.562 8.8776 170.562 8.36719ZM171.938 8.36719C171.938 8.72135 171.995 9.05208 172.109 9.35938C172.229 9.66667 172.396 9.9375 172.609 10.1719C172.823 10.401 173.078 10.5859 173.375 10.7266C173.672 10.862 174.008 10.9297 174.383 10.9297C174.758 10.9297 175.094 10.862 175.391 10.7266C175.693 10.5859 175.951 10.401 176.164 10.1719C176.378 9.9375 176.542 9.66667 176.656 9.35938C176.776 9.05208 176.836 8.72135 176.836 8.36719C176.836 8.01302 176.776 7.68229 176.656 7.375C176.542 7.06771 176.378 6.79688 176.164 6.5625C175.951 6.32812 175.693 6.14062 175.391 6C175.094 5.85938 174.758 5.78906 174.383 5.78906C174.008 5.78906 173.672 5.85938 173.375 6C173.078 6.14062 172.823 6.32812 172.609 6.5625C172.396 6.79688 172.229 7.07031 172.109 7.38281C171.995 7.6901 171.938 8.01823 171.938 8.36719ZM180.539 1.98438C180.539 1.67708 180.648 1.41146 180.867 1.1875C181.086 0.963542 181.352 0.851562 181.664 0.851562C181.971 0.851562 182.234 0.963542 182.453 1.1875C182.672 1.41146 182.781 1.67708 182.781 1.98438C182.781 2.29167 182.672 2.55208 182.453 2.76562C182.234 2.97917 181.971 3.08594 181.664 3.08594C181.357 3.08594 181.091 2.97917 180.867 2.76562C180.648 2.55208 180.539 2.29167 180.539 1.98438ZM180.977 12V4.73438H182.352V12H180.977ZM185.125 12V4.73438H186.516V6.15625C186.708 5.69792 187.029 5.32812 187.477 5.04688C187.924 4.76562 188.414 4.625 188.945 4.625C189.211 4.625 189.435 4.66146 189.617 4.73438V6.01562C189.466 5.98438 189.346 5.96354 189.258 5.95312C189.169 5.94271 189.076 5.9375 188.977 5.9375C188.133 5.9375 187.51 6.20052 187.109 6.72656C186.714 7.2474 186.516 7.94271 186.516 8.8125V12H185.125ZM190.25 8.33594C190.25 7.79427 190.333 7.29427 190.5 6.83594C190.667 6.3724 190.901 5.97135 191.203 5.63281C191.505 5.28906 191.872 5.02344 192.305 4.83594C192.737 4.64323 193.221 4.54688 193.758 4.54688C194.258 4.54688 194.719 4.63021 195.141 4.79688C195.562 4.95833 195.924 5.1901 196.227 5.49219C196.529 5.78906 196.766 6.13802 196.938 6.53906C197.109 6.9349 197.195 7.36198 197.195 7.82031C197.195 7.92448 197.193 8.05208 197.188 8.20312C197.182 8.35417 197.164 8.53125 197.133 8.73438H191.672C191.672 9.04167 191.714 9.33333 191.797 9.60938C191.885 9.88021 192.018 10.1198 192.195 10.3281C192.372 10.5365 192.599 10.7031 192.875 10.8281C193.151 10.9479 193.482 11.0078 193.867 11.0078C194.419 11.0078 194.836 10.8932 195.117 10.6641C195.404 10.4349 195.604 10.1667 195.719 9.85938H197.133C197.07 10.1667 196.951 10.4583 196.773 10.7344C196.596 11.0104 196.37 11.2552 196.094 11.4688C195.823 11.6823 195.497 11.8542 195.117 11.9844C194.742 12.1146 194.326 12.1797 193.867 12.1797C193.258 12.1797 192.727 12.0729 192.273 11.8594C191.82 11.6458 191.443 11.362 191.141 11.0078C190.844 10.6536 190.62 10.2448 190.469 9.78125C190.323 9.31771 190.25 8.83594 190.25 8.33594ZM191.688 7.67969H195.852C195.852 7.08073 195.659 6.60677 195.273 6.25781C194.893 5.90365 194.398 5.72656 193.789 5.72656C193.211 5.72656 192.721 5.89323 192.32 6.22656C191.919 6.55469 191.708 7.03906 191.688 7.67969ZM199.219 12V4.73438H200.609V6.15625C200.802 5.69792 201.122 5.32812 201.57 5.04688C202.018 4.76562 202.508 4.625 203.039 4.625C203.305 4.625 203.529 4.66146 203.711 4.73438V6.01562C203.56 5.98438 203.44 5.96354 203.352 5.95312C203.263 5.94271 203.169 5.9375 203.07 5.9375C202.227 5.9375 201.604 6.20052 201.203 6.72656C200.807 7.2474 200.609 7.94271 200.609 8.8125V12H199.219ZM207.922 4.73438H209.414L211.219 9.85938L213.047 4.73438H214.422L216.227 9.85938L218.055 4.73438H219.539L216.727 12H215.766L213.734 6.25781L211.703 12H210.742L207.922 4.73438ZM220.109 8.36719C220.109 7.85677 220.201 7.36979 220.383 6.90625C220.565 6.44271 220.82 6.03385 221.148 5.67969C221.482 5.32552 221.87 5.04948 222.312 4.85156C222.755 4.64844 223.242 4.54688 223.773 4.54688C224.393 4.54688 224.927 4.68229 225.375 4.95312C225.823 5.22396 226.159 5.56771 226.383 5.98438V4.73438H227.758V12H226.383V10.7344C226.159 11.151 225.823 11.4974 225.375 11.7734C224.927 12.0443 224.388 12.1797 223.758 12.1797C223.227 12.1797 222.74 12.0781 222.297 11.875C221.854 11.6719 221.469 11.3958 221.141 11.0469C220.818 10.6927 220.565 10.2865 220.383 9.82812C220.201 9.36458 220.109 8.8776 220.109 8.36719ZM221.484 8.36719C221.484 8.72135 221.542 9.05208 221.656 9.35938C221.776 9.66667 221.943 9.9375 222.156 10.1719C222.37 10.401 222.625 10.5859 222.922 10.7266C223.219 10.862 223.555 10.9297 223.93 10.9297C224.305 10.9297 224.641 10.862 224.938 10.7266C225.24 10.5859 225.497 10.401 225.711 10.1719C225.924 9.9375 226.089 9.66667 226.203 9.35938C226.323 9.05208 226.383 8.72135 226.383 8.36719C226.383 8.01302 226.323 7.68229 226.203 7.375C226.089 7.06771 225.924 6.79688 225.711 6.5625C225.497 6.32812 225.24 6.14062 224.938 6C224.641 5.85938 224.305 5.78906 223.93 5.78906C223.555 5.78906 223.219 5.85938 222.922 6C222.625 6.14062 222.37 6.32812 222.156 6.5625C221.943 6.79688 221.776 7.07031 221.656 7.38281C221.542 7.6901 221.484 8.01823 221.484 8.36719ZM230.117 12.9453H231.477C231.497 13.5234 231.659 13.987 231.961 14.3359C232.268 14.6901 232.792 14.8672 233.531 14.8672C234.214 14.8672 234.724 14.6875 235.062 14.3281C235.406 13.9688 235.578 13.3646 235.578 12.5156V10.7031C235.354 11.151 235.029 11.5104 234.602 11.7812C234.174 12.0469 233.635 12.1797 232.984 12.1797C232.484 12.1797 232.055 12.099 231.695 11.9375C231.336 11.776 231.044 11.5469 230.82 11.25C230.617 10.974 230.477 10.6615 230.398 10.3125C230.32 9.96354 230.281 9.51823 230.281 8.97656V4.73438H231.672V8.54688C231.672 8.89062 231.701 9.20833 231.758 9.5C231.82 9.79167 231.919 10.0443 232.055 10.2578C232.195 10.4714 232.38 10.6406 232.609 10.7656C232.839 10.8854 233.128 10.9453 233.477 10.9453C233.841 10.9453 234.156 10.8802 234.422 10.75C234.688 10.6146 234.906 10.4323 235.078 10.2031C235.25 9.97396 235.375 9.71094 235.453 9.41406C235.536 9.11198 235.578 8.79427 235.578 8.46094V4.73438H236.969V12.5156C236.969 13.1562 236.885 13.7005 236.719 14.1484C236.552 14.6016 236.32 14.9714 236.023 15.2578C235.727 15.5495 235.367 15.7604 234.945 15.8906C234.523 16.026 234.057 16.0938 233.547 16.0938C232.948 16.0938 232.435 16.013 232.008 15.8516C231.581 15.6953 231.232 15.474 230.961 15.1875C230.69 14.9062 230.484 14.5729 230.344 14.1875C230.203 13.8073 230.128 13.3932 230.117 12.9453ZM242.539 5.90625V4.73438H243.883V2.28906H245.273V4.73438H247.164V5.90625H245.273V9.25C245.273 9.60417 245.302 9.88542 245.359 10.0938C245.422 10.2969 245.505 10.4557 245.609 10.5703C245.719 10.6797 245.844 10.75 245.984 10.7812C246.13 10.8125 246.294 10.8281 246.477 10.8281C246.628 10.8281 246.794 10.8229 246.977 10.8125C247.164 10.8021 247.312 10.7865 247.422 10.7656V12C247.281 12.0208 247.096 12.0417 246.867 12.0625C246.638 12.0833 246.401 12.0938 246.156 12.0938C245.932 12.0938 245.688 12.0729 245.422 12.0312C245.161 11.9896 244.917 11.8854 244.688 11.7188C244.458 11.5521 244.266 11.2995 244.109 10.9609C243.958 10.6172 243.883 10.1484 243.883 9.55469V5.90625H242.539ZM248.312 8.36719C248.312 7.85677 248.404 7.36979 248.586 6.90625C248.768 6.44271 249.023 6.03385 249.352 5.67969C249.685 5.32552 250.089 5.04948 250.562 4.85156C251.036 4.64844 251.56 4.54688 252.133 4.54688C252.711 4.54688 253.234 4.64844 253.703 4.85156C254.172 5.04948 254.573 5.32552 254.906 5.67969C255.245 6.03385 255.505 6.44271 255.688 6.90625C255.87 7.36979 255.961 7.85677 255.961 8.36719C255.961 8.8776 255.87 9.36458 255.688 9.82812C255.505 10.2865 255.247 10.6927 254.914 11.0469C254.586 11.3958 254.185 11.6719 253.711 11.875C253.237 12.0781 252.711 12.1797 252.133 12.1797C251.544 12.1797 251.016 12.0781 250.547 11.875C250.083 11.6719 249.685 11.3958 249.352 11.0469C249.023 10.6927 248.768 10.2865 248.586 9.82812C248.404 9.36458 248.312 8.8776 248.312 8.36719ZM249.688 8.36719C249.688 8.72135 249.745 9.05208 249.859 9.35938C249.979 9.66667 250.146 9.9375 250.359 10.1719C250.573 10.401 250.828 10.5859 251.125 10.7266C251.422 10.862 251.758 10.9297 252.133 10.9297C252.508 10.9297 252.844 10.862 253.141 10.7266C253.443 10.5859 253.701 10.401 253.914 10.1719C254.128 9.9375 254.292 9.66667 254.406 9.35938C254.526 9.05208 254.586 8.72135 254.586 8.36719C254.586 8.01302 254.526 7.68229 254.406 7.375C254.292 7.06771 254.128 6.79688 253.914 6.5625C253.701 6.32812 253.443 6.14062 253.141 6C252.844 5.85938 252.508 5.78906 252.133 5.78906C251.758 5.78906 251.422 5.85938 251.125 6C250.828 6.14062 250.573 6.32812 250.359 6.5625C250.146 6.79688 249.979 7.07031 249.859 7.38281C249.745 7.6901 249.688 8.01823 249.688 8.36719ZM0.101562 38.3359C0.101562 37.7943 0.184896 37.2943 0.351562 36.8359C0.518229 36.3724 0.752604 35.9714 1.05469 35.6328C1.35677 35.2891 1.72396 35.0234 2.15625 34.8359C2.58854 34.6432 3.07292 34.5469 3.60938 34.5469C4.10938 34.5469 4.57031 34.6302 4.99219 34.7969C5.41406 34.9583 5.77604 35.1901 6.07812 35.4922C6.38021 35.7891 6.61719 36.138 6.78906 36.5391C6.96094 36.9349 7.04688 37.362 7.04688 37.8203C7.04688 37.9245 7.04427 38.0521 7.03906 38.2031C7.03385 38.3542 7.01562 38.5312 6.98438 38.7344H1.52344C1.52344 39.0417 1.5651 39.3333 1.64844 39.6094C1.73698 39.8802 1.86979 40.1198 2.04688 40.3281C2.22396 40.5365 2.45052 40.7031 2.72656 40.8281C3.0026 40.9479 3.33333 41.0078 3.71875 41.0078C4.27083 41.0078 4.6875 40.8932 4.96875 40.6641C5.25521 40.4349 5.45573 40.1667 5.57031 39.8594H6.98438C6.92188 40.1667 6.80208 40.4583 6.625 40.7344C6.44792 41.0104 6.22135 41.2552 5.94531 41.4688C5.67448 41.6823 5.34896 41.8542 4.96875 41.9844C4.59375 42.1146 4.17708 42.1797 3.71875 42.1797C3.10938 42.1797 2.57812 42.0729 2.125 41.8594C1.67188 41.6458 1.29427 41.362 0.992188 41.0078C0.695312 40.6536 0.471354 40.2448 0.320312 39.7812C0.174479 39.3177 0.101562 38.8359 0.101562 38.3359ZM1.53906 37.6797H5.70312C5.70312 37.0807 5.51042 36.6068 5.125 36.2578C4.74479 35.9036 4.25 35.7266 3.64062 35.7266C3.0625 35.7266 2.57292 35.8932 2.17188 36.2266C1.77083 36.5547 1.5599 37.0391 1.53906 37.6797ZM7.875 42L10.3359 38.3359L7.90625 34.7344H9.50781L11.1406 37.2656L12.7656 34.7344H14.3672L11.9375 38.3359L14.3984 42H12.8047L11.1406 39.4219L9.47656 42H7.875ZM15.1484 38.3672C15.1484 37.8776 15.224 37.4036 15.375 36.9453C15.5312 36.487 15.7604 36.0807 16.0625 35.7266C16.3698 35.3672 16.7552 35.0807 17.2188 34.8672C17.6823 34.6536 18.224 34.5469 18.8438 34.5469C19.3854 34.5469 19.8594 34.6276 20.2656 34.7891C20.6719 34.9453 21.013 35.1562 21.2891 35.4219C21.5703 35.6875 21.7839 35.9896 21.9297 36.3281C22.0807 36.6615 22.1719 37.0104 22.2031 37.375H20.8125C20.7604 36.9271 20.5755 36.5521 20.2578 36.25C19.9453 35.9427 19.4844 35.7891 18.875 35.7891C18.4688 35.7891 18.1198 35.8594 17.8281 36C17.5365 36.1406 17.2943 36.3307 17.1016 36.5703C16.9089 36.8099 16.7656 37.0859 16.6719 37.3984C16.5833 37.7057 16.5391 38.0286 16.5391 38.3672C16.5391 38.7109 16.5833 39.0365 16.6719 39.3438C16.7656 39.651 16.9089 39.9245 17.1016 40.1641C17.2943 40.3984 17.5391 40.5859 17.8359 40.7266C18.1328 40.862 18.4896 40.9297 18.9062 40.9297C19.4844 40.9297 19.9193 40.8021 20.2109 40.5469C20.5078 40.2865 20.7135 39.9401 20.8281 39.5078H22.2188C22.1667 39.862 22.0599 40.2005 21.8984 40.5234C21.7422 40.8464 21.5208 41.1302 21.2344 41.375C20.9531 41.6198 20.6146 41.8151 20.2188 41.9609C19.8281 42.1068 19.375 42.1797 18.8594 42.1797C18.2292 42.1797 17.6823 42.0729 17.2188 41.8594C16.7552 41.6458 16.3698 41.362 16.0625 41.0078C15.7604 40.6536 15.5312 40.2474 15.375 39.7891C15.224 39.3307 15.1484 38.8568 15.1484 38.3672ZM24.1797 42V30.7969H25.5703V36.0156C25.7839 35.5677 26.1068 35.2109 26.5391 34.9453C26.9714 34.6797 27.5078 34.5469 28.1484 34.5469C28.6172 34.5469 29.0312 34.6276 29.3906 34.7891C29.7552 34.9453 30.0599 35.1849 30.3047 35.5078C30.5078 35.7839 30.651 36.0938 30.7344 36.4375C30.8229 36.776 30.8672 37.2005 30.8672 37.7109V42H29.4766V38.1406C29.4766 37.8125 29.4427 37.5026 29.375 37.2109C29.3125 36.9141 29.2083 36.6615 29.0625 36.4531C28.9219 36.2448 28.7344 36.0807 28.5 35.9609C28.2656 35.8359 27.9818 35.7734 27.6484 35.7734C27.2943 35.7734 26.987 35.8438 26.7266 35.9844C26.4661 36.125 26.25 36.3099 26.0781 36.5391C25.9115 36.7682 25.7839 37.0312 25.6953 37.3281C25.612 37.625 25.5703 37.9349 25.5703 38.2578V42H24.1797ZM32.6328 38.3672C32.6328 37.8568 32.724 37.3698 32.9062 36.9062C33.0885 36.4427 33.3438 36.0339 33.6719 35.6797C34.0052 35.3255 34.3932 35.0495 34.8359 34.8516C35.2786 34.6484 35.7656 34.5469 36.2969 34.5469C36.9167 34.5469 37.4505 34.6823 37.8984 34.9531C38.3464 35.224 38.6823 35.5677 38.9062 35.9844V34.7344H40.2812V42H38.9062V40.7344C38.6823 41.151 38.3464 41.4974 37.8984 41.7734C37.4505 42.0443 36.9115 42.1797 36.2812 42.1797C35.75 42.1797 35.263 42.0781 34.8203 41.875C34.3776 41.6719 33.9922 41.3958 33.6641 41.0469C33.3411 40.6927 33.0885 40.2865 32.9062 39.8281C32.724 39.3646 32.6328 38.8776 32.6328 38.3672ZM34.0078 38.3672C34.0078 38.7214 34.0651 39.0521 34.1797 39.3594C34.2995 39.6667 34.4661 39.9375 34.6797 40.1719C34.8932 40.401 35.1484 40.5859 35.4453 40.7266C35.7422 40.862 36.0781 40.9297 36.4531 40.9297C36.8281 40.9297 37.1641 40.862 37.4609 40.7266C37.763 40.5859 38.0208 40.401 38.2344 40.1719C38.4479 39.9375 38.612 39.6667 38.7266 39.3594C38.8464 39.0521 38.9062 38.7214 38.9062 38.3672C38.9062 38.013 38.8464 37.6823 38.7266 37.375C38.612 37.0677 38.4479 36.7969 38.2344 36.5625C38.0208 36.3281 37.763 36.1406 37.4609 36C37.1641 35.8594 36.8281 35.7891 36.4531 35.7891C36.0781 35.7891 35.7422 35.8594 35.4453 36C35.1484 36.1406 34.8932 36.3281 34.6797 36.5625C34.4661 36.7969 34.2995 37.0703 34.1797 37.3828C34.0651 37.6901 34.0078 38.0182 34.0078 38.3672ZM42.7734 42V34.7344H44.1641V36.0156C44.3776 35.5677 44.7005 35.2109 45.1328 34.9453C45.5651 34.6797 46.1016 34.5469 46.7422 34.5469C47.2109 34.5469 47.625 34.6276 47.9844 34.7891C48.349 34.9453 48.6536 35.1849 48.8984 35.5078C49.1016 35.7839 49.2448 36.0938 49.3281 36.4375C49.4167 36.776 49.4609 37.2005 49.4609 37.7109V42H48.0703V38.1406C48.0703 37.8125 48.0365 37.5026 47.9688 37.2109C47.9062 36.9141 47.8021 36.6615 47.6562 36.4531C47.5156 36.2448 47.3281 36.0807 47.0938 35.9609C46.8594 35.8359 46.5755 35.7734 46.2422 35.7734C45.888 35.7734 45.5807 35.8438 45.3203 35.9844C45.0599 36.125 44.8438 36.3099 44.6719 36.5391C44.5052 36.7682 44.3776 37.0312 44.2891 37.3281C44.2057 37.625 44.1641 37.9349 44.1641 38.2578V42H42.7734ZM51.2266 38.3672C51.2266 37.8568 51.3177 37.3698 51.5 36.9062C51.6823 36.4427 51.9375 36.0339 52.2656 35.6797C52.599 35.3255 52.987 35.0495 53.4297 34.8516C53.8724 34.6484 54.3594 34.5469 54.8906 34.5469C55.5104 34.5469 56.0443 34.6823 56.4922 34.9531C56.9401 35.224 57.276 35.5677 57.5 35.9844V34.7344H58.875V42.4609C58.875 43.112 58.7839 43.6667 58.6016 44.125C58.4193 44.5833 58.1615 44.9583 57.8281 45.25C57.5 45.5469 57.1068 45.7604 56.6484 45.8906C56.1901 46.026 55.6849 46.0938 55.1328 46.0938C54.4401 46.0938 53.8542 46 53.375 45.8125C52.901 45.6302 52.5182 45.388 52.2266 45.0859C51.9349 44.7891 51.7188 44.4505 51.5781 44.0703C51.4375 43.6953 51.3516 43.3151 51.3203 42.9297H52.7266C52.7474 43.1849 52.8047 43.4297 52.8984 43.6641C52.9974 43.8984 53.138 44.1042 53.3203 44.2812C53.5026 44.4583 53.737 44.599 54.0234 44.7031C54.3151 44.8125 54.6693 44.8672 55.0859 44.8672C55.4505 44.8672 55.7786 44.8203 56.0703 44.7266C56.362 44.638 56.6146 44.4974 56.8281 44.3047C57.0417 44.112 57.2057 43.862 57.3203 43.5547C57.4401 43.2526 57.5 42.888 57.5 42.4609V40.7344C57.276 41.151 56.9401 41.4974 56.4922 41.7734C56.0443 42.0443 55.5052 42.1797 54.875 42.1797C54.3438 42.1797 53.8568 42.0781 53.4141 41.875C52.9714 41.6719 52.5859 41.3958 52.2578 41.0469C51.9349 40.6927 51.6823 40.2865 51.5 39.8281C51.3177 39.3646 51.2266 38.8776 51.2266 38.3672ZM52.6016 38.3672C52.6016 38.7214 52.6589 39.0521 52.7734 39.3594C52.8932 39.6667 53.0599 39.9375 53.2734 40.1719C53.487 40.401 53.7422 40.5859 54.0391 40.7266C54.3411 40.862 54.6771 40.9297 55.0469 40.9297C55.4219 40.9297 55.7578 40.862 56.0547 40.7266C56.3568 40.5859 56.6146 40.401 56.8281 40.1719C57.0417 39.9375 57.2057 39.6667 57.3203 39.3594C57.4401 39.0521 57.5 38.7214 57.5 38.3672C57.5 38.013 57.4401 37.6823 57.3203 37.375C57.2057 37.0677 57.0417 36.7969 56.8281 36.5625C56.6146 36.3281 56.3568 36.1406 56.0547 36C55.7578 35.8594 55.4219 35.7891 55.0469 35.7891C54.6719 35.7891 54.3359 35.8594 54.0391 36C53.7422 36.1406 53.487 36.3281 53.2734 36.5625C53.0599 36.7969 52.8932 37.0703 52.7734 37.3828C52.6589 37.6901 52.6016 38.0182 52.6016 38.3672ZM60.7734 38.3359C60.7734 37.7943 60.8568 37.2943 61.0234 36.8359C61.1901 36.3724 61.4245 35.9714 61.7266 35.6328C62.0286 35.2891 62.3958 35.0234 62.8281 34.8359C63.2604 34.6432 63.7448 34.5469 64.2812 34.5469C64.7812 34.5469 65.2422 34.6302 65.6641 34.7969C66.0859 34.9583 66.4479 35.1901 66.75 35.4922C67.0521 35.7891 67.2891 36.138 67.4609 36.5391C67.6328 36.9349 67.7188 37.362 67.7188 37.8203C67.7188 37.9245 67.7161 38.0521 67.7109 38.2031C67.7057 38.3542 67.6875 38.5312 67.6562 38.7344H62.1953C62.1953 39.0417 62.237 39.3333 62.3203 39.6094C62.4089 39.8802 62.5417 40.1198 62.7188 40.3281C62.8958 40.5365 63.1224 40.7031 63.3984 40.8281C63.6745 40.9479 64.0052 41.0078 64.3906 41.0078C64.9427 41.0078 65.3594 40.8932 65.6406 40.6641C65.9271 40.4349 66.1276 40.1667 66.2422 39.8594H67.6562C67.5938 40.1667 67.474 40.4583 67.2969 40.7344C67.1198 41.0104 66.8932 41.2552 66.6172 41.4688C66.3464 41.6823 66.0208 41.8542 65.6406 41.9844C65.2656 42.1146 64.849 42.1797 64.3906 42.1797C63.7812 42.1797 63.25 42.0729 62.7969 41.8594C62.3438 41.6458 61.9661 41.362 61.6641 41.0078C61.3672 40.6536 61.1432 40.2448 60.9922 39.7812C60.8464 39.3177 60.7734 38.8359 60.7734 38.3359ZM62.2109 37.6797H66.375C66.375 37.0807 66.1823 36.6068 65.7969 36.2578C65.4167 35.9036 64.9219 35.7266 64.3125 35.7266C63.7344 35.7266 63.2448 35.8932 62.8438 36.2266C62.4427 36.5547 62.2318 37.0391 62.2109 37.6797ZM73.2266 38.3672C73.2266 37.8776 73.3021 37.4036 73.4531 36.9453C73.6094 36.487 73.8385 36.0807 74.1406 35.7266C74.4479 35.3672 74.8333 35.0807 75.2969 34.8672C75.7604 34.6536 76.3021 34.5469 76.9219 34.5469C77.4635 34.5469 77.9375 34.6276 78.3438 34.7891C78.75 34.9453 79.0911 35.1562 79.3672 35.4219C79.6484 35.6875 79.862 35.9896 80.0078 36.3281C80.1589 36.6615 80.25 37.0104 80.2812 37.375H78.8906C78.8385 36.9271 78.6536 36.5521 78.3359 36.25C78.0234 35.9427 77.5625 35.7891 76.9531 35.7891C76.5469 35.7891 76.1979 35.8594 75.9062 36C75.6146 36.1406 75.3724 36.3307 75.1797 36.5703C74.987 36.8099 74.8438 37.0859 74.75 37.3984C74.6615 37.7057 74.6172 38.0286 74.6172 38.3672C74.6172 38.7109 74.6615 39.0365 74.75 39.3438C74.8438 39.651 74.987 39.9245 75.1797 40.1641C75.3724 40.3984 75.6172 40.5859 75.9141 40.7266C76.2109 40.862 76.5677 40.9297 76.9844 40.9297C77.5625 40.9297 77.9974 40.8021 78.2891 40.5469C78.5859 40.2865 78.7917 39.9401 78.9062 39.5078H80.2969C80.2448 39.862 80.138 40.2005 79.9766 40.5234C79.8203 40.8464 79.599 41.1302 79.3125 41.375C79.0312 41.6198 78.6927 41.8151 78.2969 41.9609C77.9062 42.1068 77.4531 42.1797 76.9375 42.1797C76.3073 42.1797 75.7604 42.0729 75.2969 41.8594C74.8333 41.6458 74.4479 41.362 74.1406 41.0078C73.8385 40.6536 73.6094 40.2474 73.4531 39.7891C73.3021 39.3307 73.2266 38.8568 73.2266 38.3672ZM82.1094 39.0234V34.7344H83.5V38.5781C83.5 38.9219 83.5312 39.237 83.5938 39.5234C83.6615 39.8099 83.7656 40.0573 83.9062 40.2656C84.0521 40.474 84.2396 40.6406 84.4688 40.7656C84.6979 40.8854 84.9792 40.9453 85.3125 40.9453C85.6667 40.9453 85.9766 40.8802 86.2422 40.75C86.5078 40.6146 86.724 40.4323 86.8906 40.2031C87.0625 39.974 87.1901 39.7109 87.2734 39.4141C87.362 39.112 87.4062 38.7943 87.4062 38.4609V34.7344H88.7969V42H87.4062V40.7031C87.1927 41.151 86.8672 41.5104 86.4297 41.7812C85.9922 42.0469 85.4531 42.1797 84.8125 42.1797C84.3542 42.1797 83.9401 42.1016 83.5703 41.9453C83.2057 41.7891 82.901 41.5521 82.6562 41.2344C82.4531 40.9583 82.3099 40.6484 82.2266 40.3047C82.1484 39.9609 82.1094 39.5339 82.1094 39.0234ZM91.3047 42V34.7344H92.6953V36.1562C92.888 35.6979 93.2083 35.3281 93.6562 35.0469C94.1042 34.7656 94.5938 34.625 95.125 34.625C95.3906 34.625 95.6146 34.6615 95.7969 34.7344V36.0156C95.6458 35.9844 95.526 35.9635 95.4375 35.9531C95.349 35.9427 95.2552 35.9375 95.1562 35.9375C94.3125 35.9375 93.6901 36.2005 93.2891 36.7266C92.8932 37.2474 92.6953 37.9427 92.6953 38.8125V42H91.3047ZM97.1484 42V34.7344H98.5391V36.1562C98.7318 35.6979 99.0521 35.3281 99.5 35.0469C99.9479 34.7656 100.438 34.625 100.969 34.625C101.234 34.625 101.458 34.6615 101.641 34.7344V36.0156C101.49 35.9844 101.37 35.9635 101.281 35.9531C101.193 35.9427 101.099 35.9375 101 35.9375C100.156 35.9375 99.5339 36.2005 99.1328 36.7266C98.737 37.2474 98.5391 37.9427 98.5391 38.8125V42H97.1484ZM102.273 38.3359C102.273 37.7943 102.357 37.2943 102.523 36.8359C102.69 36.3724 102.924 35.9714 103.227 35.6328C103.529 35.2891 103.896 35.0234 104.328 34.8359C104.76 34.6432 105.245 34.5469 105.781 34.5469C106.281 34.5469 106.742 34.6302 107.164 34.7969C107.586 34.9583 107.948 35.1901 108.25 35.4922C108.552 35.7891 108.789 36.138 108.961 36.5391C109.133 36.9349 109.219 37.362 109.219 37.8203C109.219 37.9245 109.216 38.0521 109.211 38.2031C109.206 38.3542 109.188 38.5312 109.156 38.7344H103.695C103.695 39.0417 103.737 39.3333 103.82 39.6094C103.909 39.8802 104.042 40.1198 104.219 40.3281C104.396 40.5365 104.622 40.7031 104.898 40.8281C105.174 40.9479 105.505 41.0078 105.891 41.0078C106.443 41.0078 106.859 40.8932 107.141 40.6641C107.427 40.4349 107.628 40.1667 107.742 39.8594H109.156C109.094 40.1667 108.974 40.4583 108.797 40.7344C108.62 41.0104 108.393 41.2552 108.117 41.4688C107.846 41.6823 107.521 41.8542 107.141 41.9844C106.766 42.1146 106.349 42.1797 105.891 42.1797C105.281 42.1797 104.75 42.0729 104.297 41.8594C103.844 41.6458 103.466 41.362 103.164 41.0078C102.867 40.6536 102.643 40.2448 102.492 39.7812C102.346 39.3177 102.273 38.8359 102.273 38.3359ZM103.711 37.6797H107.875C107.875 37.0807 107.682 36.6068 107.297 36.2578C106.917 35.9036 106.422 35.7266 105.812 35.7266C105.234 35.7266 104.745 35.8932 104.344 36.2266C103.943 36.5547 103.732 37.0391 103.711 37.6797ZM111.242 42V34.7344H112.633V36.0156C112.846 35.5677 113.169 35.2109 113.602 34.9453C114.034 34.6797 114.57 34.5469 115.211 34.5469C115.68 34.5469 116.094 34.6276 116.453 34.7891C116.818 34.9453 117.122 35.1849 117.367 35.5078C117.57 35.7839 117.714 36.0938 117.797 36.4375C117.885 36.776 117.93 37.2005 117.93 37.7109V42H116.539V38.1406C116.539 37.8125 116.505 37.5026 116.438 37.2109C116.375 36.9141 116.271 36.6615 116.125 36.4531C115.984 36.2448 115.797 36.0807 115.562 35.9609C115.328 35.8359 115.044 35.7734 114.711 35.7734C114.357 35.7734 114.049 35.8438 113.789 35.9844C113.529 36.125 113.312 36.3099 113.141 36.5391C112.974 36.7682 112.846 37.0312 112.758 37.3281C112.674 37.625 112.633 37.9349 112.633 38.2578V42H111.242ZM119.727 38.3672C119.727 37.8776 119.802 37.4036 119.953 36.9453C120.109 36.487 120.339 36.0807 120.641 35.7266C120.948 35.3672 121.333 35.0807 121.797 34.8672C122.26 34.6536 122.802 34.5469 123.422 34.5469C123.964 34.5469 124.438 34.6276 124.844 34.7891C125.25 34.9453 125.591 35.1562 125.867 35.4219C126.148 35.6875 126.362 35.9896 126.508 36.3281C126.659 36.6615 126.75 37.0104 126.781 37.375H125.391C125.339 36.9271 125.154 36.5521 124.836 36.25C124.523 35.9427 124.062 35.7891 123.453 35.7891C123.047 35.7891 122.698 35.8594 122.406 36C122.115 36.1406 121.872 36.3307 121.68 36.5703C121.487 36.8099 121.344 37.0859 121.25 37.3984C121.161 37.7057 121.117 38.0286 121.117 38.3672C121.117 38.7109 121.161 39.0365 121.25 39.3438C121.344 39.651 121.487 39.9245 121.68 40.1641C121.872 40.3984 122.117 40.5859 122.414 40.7266C122.711 40.862 123.068 40.9297 123.484 40.9297C124.062 40.9297 124.497 40.8021 124.789 40.5469C125.086 40.2865 125.292 39.9401 125.406 39.5078H126.797C126.745 39.862 126.638 40.2005 126.477 40.5234C126.32 40.8464 126.099 41.1302 125.812 41.375C125.531 41.6198 125.193 41.8151 124.797 41.9609C124.406 42.1068 123.953 42.1797 123.438 42.1797C122.807 42.1797 122.26 42.0729 121.797 41.8594C121.333 41.6458 120.948 41.362 120.641 41.0078C120.339 40.6536 120.109 40.2474 119.953 39.7891C119.802 39.3307 119.727 38.8568 119.727 38.3672ZM128.594 31.9844C128.594 31.6771 128.703 31.4115 128.922 31.1875C129.141 30.9635 129.406 30.8516 129.719 30.8516C130.026 30.8516 130.289 30.9635 130.508 31.1875C130.727 31.4115 130.836 31.6771 130.836 31.9844C130.836 32.2917 130.727 32.5521 130.508 32.7656C130.289 32.9792 130.026 33.0859 129.719 33.0859C129.411 33.0859 129.146 32.9792 128.922 32.7656C128.703 32.5521 128.594 32.2917 128.594 31.9844ZM129.031 42V34.7344H130.406V42H129.031ZM132.617 38.3359C132.617 37.7943 132.701 37.2943 132.867 36.8359C133.034 36.3724 133.268 35.9714 133.57 35.6328C133.872 35.2891 134.24 35.0234 134.672 34.8359C135.104 34.6432 135.589 34.5469 136.125 34.5469C136.625 34.5469 137.086 34.6302 137.508 34.7969C137.93 34.9583 138.292 35.1901 138.594 35.4922C138.896 35.7891 139.133 36.138 139.305 36.5391C139.477 36.9349 139.562 37.362 139.562 37.8203C139.562 37.9245 139.56 38.0521 139.555 38.2031C139.549 38.3542 139.531 38.5312 139.5 38.7344H134.039C134.039 39.0417 134.081 39.3333 134.164 39.6094C134.253 39.8802 134.385 40.1198 134.562 40.3281C134.74 40.5365 134.966 40.7031 135.242 40.8281C135.518 40.9479 135.849 41.0078 136.234 41.0078C136.786 41.0078 137.203 40.8932 137.484 40.6641C137.771 40.4349 137.971 40.1667 138.086 39.8594H139.5C139.438 40.1667 139.318 40.4583 139.141 40.7344C138.964 41.0104 138.737 41.2552 138.461 41.4688C138.19 41.6823 137.865 41.8542 137.484 41.9844C137.109 42.1146 136.693 42.1797 136.234 42.1797C135.625 42.1797 135.094 42.0729 134.641 41.8594C134.188 41.6458 133.81 41.362 133.508 41.0078C133.211 40.6536 132.987 40.2448 132.836 39.7812C132.69 39.3177 132.617 38.8359 132.617 38.3359ZM134.055 37.6797H138.219C138.219 37.0807 138.026 36.6068 137.641 36.2578C137.26 35.9036 136.766 35.7266 136.156 35.7266C135.578 35.7266 135.089 35.8932 134.688 36.2266C134.286 36.5547 134.076 37.0391 134.055 37.6797ZM140.977 39.5547H142.336C142.336 40.1068 142.497 40.4974 142.82 40.7266C143.148 40.9557 143.562 41.0703 144.062 41.0703C144.5 41.0703 144.849 40.9896 145.109 40.8281C145.375 40.6615 145.508 40.401 145.508 40.0469C145.508 39.8542 145.464 39.7005 145.375 39.5859C145.292 39.4661 145.156 39.362 144.969 39.2734C144.781 39.1797 144.539 39.0911 144.242 39.0078C143.951 38.9245 143.604 38.8125 143.203 38.6719C142.938 38.5885 142.685 38.4974 142.445 38.3984C142.211 38.2943 142.003 38.1641 141.82 38.0078C141.643 37.8516 141.5 37.6667 141.391 37.4531C141.286 37.2396 141.234 36.9792 141.234 36.6719C141.234 36.3073 141.305 35.9922 141.445 35.7266C141.591 35.4609 141.786 35.2396 142.031 35.0625C142.276 34.8854 142.555 34.7552 142.867 34.6719C143.185 34.5885 143.521 34.5469 143.875 34.5469C144.292 34.5469 144.674 34.6068 145.023 34.7266C145.378 34.8411 145.682 35.0078 145.938 35.2266C146.193 35.4453 146.391 35.7031 146.531 36C146.677 36.2969 146.75 36.6276 146.75 36.9922H145.406C145.406 36.5651 145.281 36.237 145.031 36.0078C144.781 35.7786 144.417 35.6641 143.938 35.6641C143.542 35.6641 143.216 35.7474 142.961 35.9141C142.706 36.0755 142.578 36.3177 142.578 36.6406C142.578 36.8229 142.622 36.974 142.711 37.0938C142.805 37.2083 142.94 37.3099 143.117 37.3984C143.299 37.4818 143.518 37.5625 143.773 37.6406C144.029 37.7135 144.328 37.8021 144.672 37.9062C144.927 37.9896 145.185 38.0833 145.445 38.1875C145.711 38.2865 145.943 38.4141 146.141 38.5703C146.344 38.7214 146.508 38.9115 146.633 39.1406C146.763 39.3698 146.828 39.6562 146.828 40C146.828 40.3646 146.755 40.6823 146.609 40.9531C146.469 41.224 146.273 41.4505 146.023 41.6328C145.773 41.8151 145.477 41.9505 145.133 42.0391C144.794 42.1328 144.432 42.1797 144.047 42.1797C143.62 42.1797 143.219 42.125 142.844 42.0156C142.474 41.9115 142.148 41.75 141.867 41.5312C141.591 41.3125 141.372 41.0391 141.211 40.7109C141.055 40.3776 140.977 39.9922 140.977 39.5547ZM152.273 38.3672C152.273 37.8568 152.365 37.3698 152.547 36.9062C152.729 36.4427 152.984 36.0339 153.312 35.6797C153.646 35.3255 154.034 35.0495 154.477 34.8516C154.919 34.6484 155.406 34.5469 155.938 34.5469C156.557 34.5469 157.091 34.6823 157.539 34.9531C157.987 35.224 158.323 35.5677 158.547 35.9844V34.7344H159.922V42H158.547V40.7344C158.323 41.151 157.987 41.4974 157.539 41.7734C157.091 42.0443 156.552 42.1797 155.922 42.1797C155.391 42.1797 154.904 42.0781 154.461 41.875C154.018 41.6719 153.633 41.3958 153.305 41.0469C152.982 40.6927 152.729 40.2865 152.547 39.8281C152.365 39.3646 152.273 38.8776 152.273 38.3672ZM153.648 38.3672C153.648 38.7214 153.706 39.0521 153.82 39.3594C153.94 39.6667 154.107 39.9375 154.32 40.1719C154.534 40.401 154.789 40.5859 155.086 40.7266C155.383 40.862 155.719 40.9297 156.094 40.9297C156.469 40.9297 156.805 40.862 157.102 40.7266C157.404 40.5859 157.661 40.401 157.875 40.1719C158.089 39.9375 158.253 39.6667 158.367 39.3594C158.487 39.0521 158.547 38.7214 158.547 38.3672C158.547 38.013 158.487 37.6823 158.367 37.375C158.253 37.0677 158.089 36.7969 157.875 36.5625C157.661 36.3281 157.404 36.1406 157.102 36C156.805 35.8594 156.469 35.7891 156.094 35.7891C155.719 35.7891 155.383 35.8594 155.086 36C154.789 36.1406 154.534 36.3281 154.32 36.5625C154.107 36.7969 153.94 37.0703 153.82 37.3828C153.706 37.6901 153.648 38.0182 153.648 38.3672ZM161.852 38.3672C161.852 37.8776 161.927 37.4036 162.078 36.9453C162.234 36.487 162.464 36.0807 162.766 35.7266C163.073 35.3672 163.458 35.0807 163.922 34.8672C164.385 34.6536 164.927 34.5469 165.547 34.5469C166.089 34.5469 166.562 34.6276 166.969 34.7891C167.375 34.9453 167.716 35.1562 167.992 35.4219C168.273 35.6875 168.487 35.9896 168.633 36.3281C168.784 36.6615 168.875 37.0104 168.906 37.375H167.516C167.464 36.9271 167.279 36.5521 166.961 36.25C166.648 35.9427 166.188 35.7891 165.578 35.7891C165.172 35.7891 164.823 35.8594 164.531 36C164.24 36.1406 163.997 36.3307 163.805 36.5703C163.612 36.8099 163.469 37.0859 163.375 37.3984C163.286 37.7057 163.242 38.0286 163.242 38.3672C163.242 38.7109 163.286 39.0365 163.375 39.3438C163.469 39.651 163.612 39.9245 163.805 40.1641C163.997 40.3984 164.242 40.5859 164.539 40.7266C164.836 40.862 165.193 40.9297 165.609 40.9297C166.188 40.9297 166.622 40.8021 166.914 40.5469C167.211 40.2865 167.417 39.9401 167.531 39.5078H168.922C168.87 39.862 168.763 40.2005 168.602 40.5234C168.445 40.8464 168.224 41.1302 167.938 41.375C167.656 41.6198 167.318 41.8151 166.922 41.9609C166.531 42.1068 166.078 42.1797 165.562 42.1797C164.932 42.1797 164.385 42.0729 163.922 41.8594C163.458 41.6458 163.073 41.362 162.766 41.0078C162.464 40.6536 162.234 40.2474 162.078 39.7891C161.927 39.3307 161.852 38.8568 161.852 38.3672ZM170.883 42V34.7344H172.273V36.1562C172.466 35.6979 172.786 35.3281 173.234 35.0469C173.682 34.7656 174.172 34.625 174.703 34.625C174.969 34.625 175.193 34.6615 175.375 34.7344V36.0156C175.224 35.9844 175.104 35.9635 175.016 35.9531C174.927 35.9427 174.833 35.9375 174.734 35.9375C173.891 35.9375 173.268 36.2005 172.867 36.7266C172.471 37.2474 172.273 37.9427 172.273 38.8125V42H170.883ZM175.758 38.3672C175.758 37.8568 175.849 37.3698 176.031 36.9062C176.214 36.4427 176.469 36.0339 176.797 35.6797C177.13 35.3255 177.534 35.0495 178.008 34.8516C178.482 34.6484 179.005 34.5469 179.578 34.5469C180.156 34.5469 180.68 34.6484 181.148 34.8516C181.617 35.0495 182.018 35.3255 182.352 35.6797C182.69 36.0339 182.951 36.4427 183.133 36.9062C183.315 37.3698 183.406 37.8568 183.406 38.3672C183.406 38.8776 183.315 39.3646 183.133 39.8281C182.951 40.2865 182.693 40.6927 182.359 41.0469C182.031 41.3958 181.63 41.6719 181.156 41.875C180.682 42.0781 180.156 42.1797 179.578 42.1797C178.99 42.1797 178.461 42.0781 177.992 41.875C177.529 41.6719 177.13 41.3958 176.797 41.0469C176.469 40.6927 176.214 40.2865 176.031 39.8281C175.849 39.3646 175.758 38.8776 175.758 38.3672ZM177.133 38.3672C177.133 38.7214 177.19 39.0521 177.305 39.3594C177.424 39.6667 177.591 39.9375 177.805 40.1719C178.018 40.401 178.273 40.5859 178.57 40.7266C178.867 40.862 179.203 40.9297 179.578 40.9297C179.953 40.9297 180.289 40.862 180.586 40.7266C180.888 40.5859 181.146 40.401 181.359 40.1719C181.573 39.9375 181.737 39.6667 181.852 39.3594C181.971 39.0521 182.031 38.7214 182.031 38.3672C182.031 38.013 181.971 37.6823 181.852 37.375C181.737 37.0677 181.573 36.7969 181.359 36.5625C181.146 36.3281 180.888 36.1406 180.586 36C180.289 35.8594 179.953 35.7891 179.578 35.7891C179.203 35.7891 178.867 35.8594 178.57 36C178.273 36.1406 178.018 36.3281 177.805 36.5625C177.591 36.7969 177.424 37.0703 177.305 37.3828C177.19 37.6901 177.133 38.0182 177.133 38.3672ZM184.695 39.5547H186.055C186.055 40.1068 186.216 40.4974 186.539 40.7266C186.867 40.9557 187.281 41.0703 187.781 41.0703C188.219 41.0703 188.568 40.9896 188.828 40.8281C189.094 40.6615 189.227 40.401 189.227 40.0469C189.227 39.8542 189.182 39.7005 189.094 39.5859C189.01 39.4661 188.875 39.362 188.688 39.2734C188.5 39.1797 188.258 39.0911 187.961 39.0078C187.669 38.9245 187.323 38.8125 186.922 38.6719C186.656 38.5885 186.404 38.4974 186.164 38.3984C185.93 38.2943 185.721 38.1641 185.539 38.0078C185.362 37.8516 185.219 37.6667 185.109 37.4531C185.005 37.2396 184.953 36.9792 184.953 36.6719C184.953 36.3073 185.023 35.9922 185.164 35.7266C185.31 35.4609 185.505 35.2396 185.75 35.0625C185.995 34.8854 186.273 34.7552 186.586 34.6719C186.904 34.5885 187.24 34.5469 187.594 34.5469C188.01 34.5469 188.393 34.6068 188.742 34.7266C189.096 34.8411 189.401 35.0078 189.656 35.2266C189.911 35.4453 190.109 35.7031 190.25 36C190.396 36.2969 190.469 36.6276 190.469 36.9922H189.125C189.125 36.5651 189 36.237 188.75 36.0078C188.5 35.7786 188.135 35.6641 187.656 35.6641C187.26 35.6641 186.935 35.7474 186.68 35.9141C186.424 36.0755 186.297 36.3177 186.297 36.6406C186.297 36.8229 186.341 36.974 186.43 37.0938C186.523 37.2083 186.659 37.3099 186.836 37.3984C187.018 37.4818 187.237 37.5625 187.492 37.6406C187.747 37.7135 188.047 37.8021 188.391 37.9062C188.646 37.9896 188.904 38.0833 189.164 38.1875C189.43 38.2865 189.661 38.4141 189.859 38.5703C190.062 38.7214 190.227 38.9115 190.352 39.1406C190.482 39.3698 190.547 39.6562 190.547 40C190.547 40.3646 190.474 40.6823 190.328 40.9531C190.188 41.224 189.992 41.4505 189.742 41.6328C189.492 41.8151 189.195 41.9505 188.852 42.0391C188.513 42.1328 188.151 42.1797 187.766 42.1797C187.339 42.1797 186.938 42.125 186.562 42.0156C186.193 41.9115 185.867 41.75 185.586 41.5312C185.31 41.3125 185.091 41.0391 184.93 40.7109C184.773 40.3776 184.695 39.9922 184.695 39.5547ZM191.93 39.5547H193.289C193.289 40.1068 193.451 40.4974 193.773 40.7266C194.102 40.9557 194.516 41.0703 195.016 41.0703C195.453 41.0703 195.802 40.9896 196.062 40.8281C196.328 40.6615 196.461 40.401 196.461 40.0469C196.461 39.8542 196.417 39.7005 196.328 39.5859C196.245 39.4661 196.109 39.362 195.922 39.2734C195.734 39.1797 195.492 39.0911 195.195 39.0078C194.904 38.9245 194.557 38.8125 194.156 38.6719C193.891 38.5885 193.638 38.4974 193.398 38.3984C193.164 38.2943 192.956 38.1641 192.773 38.0078C192.596 37.8516 192.453 37.6667 192.344 37.4531C192.24 37.2396 192.188 36.9792 192.188 36.6719C192.188 36.3073 192.258 35.9922 192.398 35.7266C192.544 35.4609 192.74 35.2396 192.984 35.0625C193.229 34.8854 193.508 34.7552 193.82 34.6719C194.138 34.5885 194.474 34.5469 194.828 34.5469C195.245 34.5469 195.628 34.6068 195.977 34.7266C196.331 34.8411 196.635 35.0078 196.891 35.2266C197.146 35.4453 197.344 35.7031 197.484 36C197.63 36.2969 197.703 36.6276 197.703 36.9922H196.359C196.359 36.5651 196.234 36.237 195.984 36.0078C195.734 35.7786 195.37 35.6641 194.891 35.6641C194.495 35.6641 194.169 35.7474 193.914 35.9141C193.659 36.0755 193.531 36.3177 193.531 36.6406C193.531 36.8229 193.576 36.974 193.664 37.0938C193.758 37.2083 193.893 37.3099 194.07 37.3984C194.253 37.4818 194.471 37.5625 194.727 37.6406C194.982 37.7135 195.281 37.8021 195.625 37.9062C195.88 37.9896 196.138 38.0833 196.398 38.1875C196.664 38.2865 196.896 38.4141 197.094 38.5703C197.297 38.7214 197.461 38.9115 197.586 39.1406C197.716 39.3698 197.781 39.6562 197.781 40C197.781 40.3646 197.708 40.6823 197.562 40.9531C197.422 41.224 197.227 41.4505 196.977 41.6328C196.727 41.8151 196.43 41.9505 196.086 42.0391C195.747 42.1328 195.385 42.1797 195 42.1797C194.573 42.1797 194.172 42.125 193.797 42.0156C193.427 41.9115 193.102 41.75 192.82 41.5312C192.544 41.3125 192.326 41.0391 192.164 40.7109C192.008 40.3776 191.93 39.9922 191.93 39.5547ZM203.82 42V30.7969H205.211V35.9844C205.435 35.5677 205.768 35.224 206.211 34.9531C206.654 34.6823 207.19 34.5469 207.82 34.5469C208.341 34.5469 208.826 34.6484 209.273 34.8516C209.721 35.0495 210.109 35.3255 210.438 35.6797C210.771 36.0339 211.029 36.4427 211.211 36.9062C211.393 37.3698 211.484 37.8568 211.484 38.3672C211.484 38.8776 211.393 39.3646 211.211 39.8281C211.029 40.2865 210.773 40.6901 210.445 41.0391C210.122 41.3828 209.737 41.6589 209.289 41.8672C208.841 42.0755 208.352 42.1797 207.82 42.1797C207.19 42.1797 206.654 42.0443 206.211 41.7734C205.768 41.4974 205.435 41.151 205.211 40.7344V42H203.82ZM205.211 38.3672C205.211 38.7214 205.268 39.0521 205.383 39.3594C205.503 39.6667 205.669 39.9401 205.883 40.1797C206.096 40.4141 206.352 40.599 206.648 40.7344C206.945 40.8646 207.281 40.9297 207.656 40.9297C208.031 40.9297 208.367 40.862 208.664 40.7266C208.966 40.5859 209.224 40.3984 209.438 40.1641C209.651 39.9245 209.812 39.651 209.922 39.3438C210.036 39.0365 210.094 38.7109 210.094 38.3672C210.094 38.0234 210.036 37.6953 209.922 37.3828C209.812 37.0703 209.651 36.7969 209.438 36.5625C209.224 36.3281 208.966 36.1406 208.664 36C208.367 35.8594 208.031 35.7891 207.656 35.7891C207.281 35.7891 206.945 35.8594 206.648 36C206.352 36.1406 206.096 36.3255 205.883 36.5547C205.669 36.7839 205.503 37.0573 205.383 37.375C205.268 37.6875 205.211 38.0182 205.211 38.3672ZM212.805 38.3672C212.805 37.8568 212.896 37.3698 213.078 36.9062C213.26 36.4427 213.516 36.0339 213.844 35.6797C214.177 35.3255 214.581 35.0495 215.055 34.8516C215.529 34.6484 216.052 34.5469 216.625 34.5469C217.203 34.5469 217.727 34.6484 218.195 34.8516C218.664 35.0495 219.065 35.3255 219.398 35.6797C219.737 36.0339 219.997 36.4427 220.18 36.9062C220.362 37.3698 220.453 37.8568 220.453 38.3672C220.453 38.8776 220.362 39.3646 220.18 39.8281C219.997 40.2865 219.74 40.6927 219.406 41.0469C219.078 41.3958 218.677 41.6719 218.203 41.875C217.729 42.0781 217.203 42.1797 216.625 42.1797C216.036 42.1797 215.508 42.0781 215.039 41.875C214.576 41.6719 214.177 41.3958 213.844 41.0469C213.516 40.6927 213.26 40.2865 213.078 39.8281C212.896 39.3646 212.805 38.8776 212.805 38.3672ZM214.18 38.3672C214.18 38.7214 214.237 39.0521 214.352 39.3594C214.471 39.6667 214.638 39.9375 214.852 40.1719C215.065 40.401 215.32 40.5859 215.617 40.7266C215.914 40.862 216.25 40.9297 216.625 40.9297C217 40.9297 217.336 40.862 217.633 40.7266C217.935 40.5859 218.193 40.401 218.406 40.1719C218.62 39.9375 218.784 39.6667 218.898 39.3594C219.018 39.0521 219.078 38.7214 219.078 38.3672C219.078 38.013 219.018 37.6823 218.898 37.375C218.784 37.0677 218.62 36.7969 218.406 36.5625C218.193 36.3281 217.935 36.1406 217.633 36C217.336 35.8594 217 35.7891 216.625 35.7891C216.25 35.7891 215.914 35.8594 215.617 36C215.32 36.1406 215.065 36.3281 214.852 36.5625C214.638 36.7969 214.471 37.0703 214.352 37.3828C214.237 37.6901 214.18 38.0182 214.18 38.3672ZM222.352 42V34.7344H223.742V36.1562C223.935 35.6979 224.255 35.3281 224.703 35.0469C225.151 34.7656 225.641 34.625 226.172 34.625C226.438 34.625 226.661 34.6615 226.844 34.7344V36.0156C226.693 35.9844 226.573 35.9635 226.484 35.9531C226.396 35.9427 226.302 35.9375 226.203 35.9375C225.359 35.9375 224.737 36.2005 224.336 36.7266C223.94 37.2474 223.742 37.9427 223.742 38.8125V42H222.352ZM227.445 38.3672C227.445 37.8568 227.536 37.3698 227.719 36.9062C227.901 36.4427 228.156 36.0339 228.484 35.6797C228.818 35.3255 229.206 35.0495 229.648 34.8516C230.091 34.6484 230.578 34.5469 231.109 34.5469C231.729 34.5469 232.263 34.6823 232.711 34.9531C233.159 35.224 233.495 35.5677 233.719 35.9844V30.7969H235.094V42H233.719V40.7344C233.495 41.151 233.159 41.4974 232.711 41.7734C232.263 42.0443 231.724 42.1797 231.094 42.1797C230.562 42.1797 230.076 42.0781 229.633 41.875C229.19 41.6719 228.805 41.3958 228.477 41.0469C228.154 40.6927 227.901 40.2865 227.719 39.8281C227.536 39.3646 227.445 38.8776 227.445 38.3672ZM228.82 38.3672C228.82 38.7214 228.878 39.0521 228.992 39.3594C229.112 39.6667 229.279 39.9375 229.492 40.1719C229.706 40.401 229.961 40.5859 230.258 40.7266C230.555 40.862 230.891 40.9297 231.266 40.9297C231.641 40.9297 231.977 40.862 232.273 40.7266C232.576 40.5859 232.833 40.401 233.047 40.1719C233.26 39.9375 233.424 39.6667 233.539 39.3594C233.659 39.0521 233.719 38.7214 233.719 38.3672C233.719 38.013 233.659 37.6823 233.539 37.375C233.424 37.0677 233.26 36.7969 233.047 36.5625C232.833 36.3281 232.576 36.1406 232.273 36C231.977 35.8594 231.641 35.7891 231.266 35.7891C230.891 35.7891 230.555 35.8594 230.258 36C229.961 36.1406 229.706 36.3281 229.492 36.5625C229.279 36.7969 229.112 37.0703 228.992 37.3828C228.878 37.6901 228.82 38.0182 228.82 38.3672ZM237.023 38.3359C237.023 37.7943 237.107 37.2943 237.273 36.8359C237.44 36.3724 237.674 35.9714 237.977 35.6328C238.279 35.2891 238.646 35.0234 239.078 34.8359C239.51 34.6432 239.995 34.5469 240.531 34.5469C241.031 34.5469 241.492 34.6302 241.914 34.7969C242.336 34.9583 242.698 35.1901 243 35.4922C243.302 35.7891 243.539 36.138 243.711 36.5391C243.883 36.9349 243.969 37.362 243.969 37.8203C243.969 37.9245 243.966 38.0521 243.961 38.2031C243.956 38.3542 243.938 38.5312 243.906 38.7344H238.445C238.445 39.0417 238.487 39.3333 238.57 39.6094C238.659 39.8802 238.792 40.1198 238.969 40.3281C239.146 40.5365 239.372 40.7031 239.648 40.8281C239.924 40.9479 240.255 41.0078 240.641 41.0078C241.193 41.0078 241.609 40.8932 241.891 40.6641C242.177 40.4349 242.378 40.1667 242.492 39.8594H243.906C243.844 40.1667 243.724 40.4583 243.547 40.7344C243.37 41.0104 243.143 41.2552 242.867 41.4688C242.596 41.6823 242.271 41.8542 241.891 41.9844C241.516 42.1146 241.099 42.1797 240.641 42.1797C240.031 42.1797 239.5 42.0729 239.047 41.8594C238.594 41.6458 238.216 41.362 237.914 41.0078C237.617 40.6536 237.393 40.2448 237.242 39.7812C237.096 39.3177 237.023 38.8359 237.023 38.3359ZM238.461 37.6797H242.625C242.625 37.0807 242.432 36.6068 242.047 36.2578C241.667 35.9036 241.172 35.7266 240.562 35.7266C239.984 35.7266 239.495 35.8932 239.094 36.2266C238.693 36.5547 238.482 37.0391 238.461 37.6797ZM245.992 42V34.7344H247.383V36.1562C247.576 35.6979 247.896 35.3281 248.344 35.0469C248.792 34.7656 249.281 34.625 249.812 34.625C250.078 34.625 250.302 34.6615 250.484 34.7344V36.0156C250.333 35.9844 250.214 35.9635 250.125 35.9531C250.036 35.9427 249.943 35.9375 249.844 35.9375C249 35.9375 248.378 36.2005 247.977 36.7266C247.581 37.2474 247.383 37.9427 247.383 38.8125V42H245.992ZM251.07 39.5547H252.43C252.43 40.1068 252.591 40.4974 252.914 40.7266C253.242 40.9557 253.656 41.0703 254.156 41.0703C254.594 41.0703 254.943 40.9896 255.203 40.8281C255.469 40.6615 255.602 40.401 255.602 40.0469C255.602 39.8542 255.557 39.7005 255.469 39.5859C255.385 39.4661 255.25 39.362 255.062 39.2734C254.875 39.1797 254.633 39.0911 254.336 39.0078C254.044 38.9245 253.698 38.8125 253.297 38.6719C253.031 38.5885 252.779 38.4974 252.539 38.3984C252.305 38.2943 252.096 38.1641 251.914 38.0078C251.737 37.8516 251.594 37.6667 251.484 37.4531C251.38 37.2396 251.328 36.9792 251.328 36.6719C251.328 36.3073 251.398 35.9922 251.539 35.7266C251.685 35.4609 251.88 35.2396 252.125 35.0625C252.37 34.8854 252.648 34.7552 252.961 34.6719C253.279 34.5885 253.615 34.5469 253.969 34.5469C254.385 34.5469 254.768 34.6068 255.117 34.7266C255.471 34.8411 255.776 35.0078 256.031 35.2266C256.286 35.4453 256.484 35.7031 256.625 36C256.771 36.2969 256.844 36.6276 256.844 36.9922H255.5C255.5 36.5651 255.375 36.237 255.125 36.0078C254.875 35.7786 254.51 35.6641 254.031 35.6641C253.635 35.6641 253.31 35.7474 253.055 35.9141C252.799 36.0755 252.672 36.3177 252.672 36.6406C252.672 36.8229 252.716 36.974 252.805 37.0938C252.898 37.2083 253.034 37.3099 253.211 37.3984C253.393 37.4818 253.612 37.5625 253.867 37.6406C254.122 37.7135 254.422 37.8021 254.766 37.9062C255.021 37.9896 255.279 38.0833 255.539 38.1875C255.805 38.2865 256.036 38.4141 256.234 38.5703C256.438 38.7214 256.602 38.9115 256.727 39.1406C256.857 39.3698 256.922 39.6562 256.922 40C256.922 40.3646 256.849 40.6823 256.703 40.9531C256.562 41.224 256.367 41.4505 256.117 41.6328C255.867 41.8151 255.57 41.9505 255.227 42.0391C254.888 42.1328 254.526 42.1797 254.141 42.1797C253.714 42.1797 253.312 42.125 252.938 42.0156C252.568 41.9115 252.242 41.75 251.961 41.5312C251.685 41.3125 251.466 41.0391 251.305 40.7109C251.148 40.3776 251.07 39.9922 251.07 39.5547ZM258.438 40.9609C258.438 40.6536 258.544 40.3906 258.758 40.1719C258.971 39.9531 259.232 39.8438 259.539 39.8438C259.846 39.8438 260.112 39.9531 260.336 40.1719C260.565 40.3854 260.68 40.6484 260.68 40.9609C260.68 41.2682 260.565 41.5312 260.336 41.75C260.112 41.9688 259.846 42.0781 259.539 42.0781C259.232 42.0781 258.971 41.9714 258.758 41.7578C258.544 41.5443 258.438 41.2786 258.438 40.9609Z" fill="black"/>
</svg>
