<svg width="124" height="35" viewBox="0 0 124 35" fill="none" xmlns="http://www.w3.org/2000/svg">
<g clip-path="url(#clip0)">
<path d="M21.6167 24.1258V21.2634H10.0554C8.99589 21.2634 8.14087 20.4084 8.14087 19.3489V6.18905C8.14087 5.12957 8.99589 4.27455 10.0554 4.27455H21.6167V1.41209C21.6167 0.24109 22.955 -0.428055 23.8844 0.296852L38.6056 11.6537C39.3305 12.2114 39.3305 13.3266 38.6056 13.8842L23.8844 25.2411C22.955 25.966 21.6167 25.2969 21.6167 24.1258Z" fill="#1CE878"/>
<path d="M17.5276 33.5878V30.7253H29.089C30.1484 30.7253 31.0035 29.8703 31.0035 28.8108V15.651C31.0035 14.5915 30.1484 13.7365 29.089 13.7365H17.5276V10.8555C17.5276 9.68445 16.1893 9.0153 15.26 9.74021L0.557352 21.0971C-0.167555 21.6547 -0.167555 22.77 0.557352 23.3276L15.2785 34.6845C16.1893 35.4094 17.5276 34.7588 17.5276 33.5878Z" fill="#0A92EF"/>
<path d="M48.6057 11.3385H44.4607V8.77344H55.5945V11.3385H51.4495V23.0485H48.5871V11.3385H48.6057Z" fill="#00071E"/>
<path d="M59.665 12.8242V15.2034C57.5832 15.2034 56.245 16.393 56.245 18.2703V23.0473H53.4197V13.0473H56.245V14.906C56.8955 13.6235 58.1409 12.8242 59.665 12.8242Z" fill="#00071E"/>
<path d="M59.1816 18.0473C59.1816 15.2034 61.6723 12.8242 64.6463 12.8242C67.6017 12.8242 70.0738 15.2034 70.0738 18.0473C70.0738 20.8911 67.6017 23.2889 64.6463 23.2889C61.6723 23.2889 59.1816 20.8911 59.1816 18.0473ZM67.3973 18.0473C67.3973 16.5045 66.1333 15.2034 64.6463 15.2034C63.1407 15.2034 61.8768 16.5045 61.8768 18.0473C61.8768 19.59 63.1407 20.9097 64.6463 20.9097C66.1333 20.9097 67.3973 19.59 67.3973 18.0473Z" fill="#00071E"/>
<path d="M81.8029 18.0473C81.8029 21.1142 79.8698 23.2889 77.1932 23.2889C75.7992 23.2889 74.6467 22.6941 73.8475 21.6532V26.393H71.0222V13.0473H73.8475V14.4413C74.6467 13.419 75.7992 12.8242 77.1932 12.8242C79.8698 12.8242 81.8029 14.9804 81.8029 18.0473ZM79.0519 18.0473C79.0519 16.393 77.9553 15.2034 76.3754 15.2034C74.9999 15.2034 73.9962 16.2071 73.8475 17.6569V18.4376C73.9962 19.906 74.9999 20.9097 76.3754 20.9097C77.9553 20.9097 79.0519 19.7201 79.0519 18.0473Z" fill="#00071E"/>
<path d="M90.2973 19.906L92.1002 21.7462C91.208 22.6755 89.498 23.2889 88.011 23.2889C85.037 23.2889 82.7136 21.0956 82.7136 18.0287C82.7136 15.0175 84.9441 12.8242 87.8623 12.8242C91.0036 12.8242 92.8251 15.2034 92.8251 18.9766H85.6133C85.9478 20.0547 86.8214 20.7982 87.9924 20.7982C88.7917 20.7982 89.7582 20.4264 90.2973 19.906ZM85.6504 16.9506H90.1114C89.8326 15.9655 89.1077 15.3335 87.9738 15.3335C86.9144 15.3149 86.0222 15.9283 85.6504 16.9506Z" fill="#00071E"/>
<path d="M100.185 12.8242V15.2034C98.1037 15.2034 96.7654 16.393 96.7654 18.2703V23.0473H93.9401V13.0473H96.7654V14.906C97.4159 13.6235 98.6613 12.8242 100.185 12.8242Z" fill="#00071E"/>
<path d="M101.264 13.0469H104.089V23.0469H101.264V13.0469Z" fill="#00071E"/>
<path d="M114.479 17.0807V23.0473H111.747V22.0436C111.041 22.8614 109.888 23.2889 108.81 23.2889C106.691 23.2889 105.037 22.0064 105.037 20.0919C105.037 18.1216 106.877 16.7647 109.201 16.7647C110.018 16.7647 110.911 16.932 111.747 17.2666V17.0807C111.747 16.0212 111.096 15.0919 109.442 15.0919C108.513 15.0919 107.639 15.4079 106.859 15.7982L105.911 13.9209C107.323 13.2146 108.699 12.8242 110.093 12.8242C112.695 12.8242 114.479 14.4599 114.479 17.0807ZM111.747 19.906V18.9766C111.115 18.7536 110.372 18.6049 109.609 18.6049C108.587 18.6049 107.769 19.1997 107.769 20.0175C107.769 20.8354 108.476 21.3372 109.461 21.3372C110.52 21.3372 111.543 20.8354 111.747 19.906Z" fill="#00071E"/>
<path d="M115.65 8.82812H118.476V23.0475H115.65V8.82812Z" fill="#00071E"/>
<path d="M104.145 8.60547H101.264V11.4865H104.145V8.60547Z" fill="#00071E"/>
<path d="M123.085 21.3566C123.085 22.3231 122.304 23.1038 121.301 23.1038C120.316 23.1038 119.498 22.3231 119.498 21.3566C119.498 20.39 120.316 19.6094 121.301 19.6094C122.323 19.6094 123.085 20.39 123.085 21.3566ZM120.037 21.3566C120.037 22.0815 120.576 22.6577 121.301 22.6577C122.026 22.6763 122.565 22.0629 122.565 21.338C122.565 20.6131 122.026 20.0183 121.282 20.0183C120.576 20.0369 120.037 20.6317 120.037 21.3566ZM121.078 22.1744H120.576V20.5945C120.687 20.5759 120.966 20.5387 121.282 20.5387C121.654 20.5387 121.803 20.5945 121.933 20.6689C122.026 20.7246 122.1 20.8547 122.1 21.022C122.1 21.1893 121.951 21.3194 121.728 21.3938V21.4123C121.895 21.4681 122.007 21.5982 122.044 21.8213C122.1 22.0629 122.119 22.1558 122.156 22.2116H121.617C121.561 22.1558 121.542 22.0257 121.487 21.8584C121.449 21.6912 121.375 21.6168 121.208 21.6168H121.04V22.1744H121.078ZM121.096 21.2636H121.245C121.431 21.2636 121.542 21.1893 121.542 21.0778C121.542 20.9477 121.431 20.8733 121.263 20.8733C121.208 20.8733 121.133 20.8919 121.096 20.8919V21.2636Z" fill="#00071E"/>
</g>
<defs>
<clipPath id="clip0">
<rect width="123.086" height="35" fill="white"/>
</clipPath>
</defs>
</svg>
