<svg width="48" height="48" viewBox="0 0 48 48" fill="none" xmlns="http://www.w3.org/2000/svg">
<path d="M24 26.9883C25.6569 26.9883 27 25.6451 27 23.9883C27 22.3314 25.6569 20.9883 24 20.9883C22.3431 20.9883 21 22.3314 21 23.9883C21 25.6451 22.3431 26.9883 24 26.9883Z" fill="#0A92EF"/>
<path d="M24 9.48828C23.0721 9.48934 22.1824 9.85843 21.5263 10.5146C20.8701 11.1707 20.5011 12.0603 20.5 12.9883V15.4883C20.5 15.7535 20.6054 16.0079 20.7929 16.1954C20.9804 16.3829 21.2348 16.4883 21.5 16.4883H26.5C26.7652 16.4883 27.0196 16.3829 27.2071 16.1954C27.3946 16.0079 27.5 15.7535 27.5 15.4883V12.9883C27.4989 12.0603 27.1299 11.1707 26.4737 10.5146C25.8176 9.85843 24.9279 9.48934 24 9.48828Z" fill="#0A92EF"/>
<path d="M48 3.90572C47.9937 2.87146 47.5786 1.88166 46.8454 1.15219C46.1122 0.422714 45.1203 0.0127553 44.086 0.0117188H3.918C2.88288 0.017534 1.89217 0.432952 1.16248 1.16715C0.432777 1.90134 0.023455 2.89459 0.024 3.92972L0 18.6117C0.0527398 25.4641 2.4273 32.0962 6.73589 37.4248C11.0445 42.7534 17.0325 46.4637 23.722 47.9497C23.9859 48.0036 24.2581 48.0036 24.522 47.9497C31.1974 46.4033 37.1513 42.6391 41.4112 37.272C45.6711 31.9049 47.9854 25.2519 47.976 18.3997L48 3.90572ZM34 29.4877C34 30.0182 33.7893 30.5269 33.4142 30.9019C33.0391 31.277 32.5304 31.4877 32 31.4877H16C15.4696 31.4877 14.9609 31.277 14.5858 30.9019C14.2107 30.5269 14 30.0182 14 29.4877V18.4877C14 17.9573 14.2107 17.4486 14.5858 17.0735C14.9609 16.6984 15.4696 16.4877 16 16.4877H16.5C16.7652 16.4877 17.0196 16.3824 17.2071 16.1948C17.3946 16.0073 17.5 15.7529 17.5 15.4877V12.9877C17.5 11.2638 18.1848 9.61051 19.4038 8.39152C20.6228 7.17254 22.2761 6.48772 24 6.48772C25.7239 6.48772 27.3772 7.17254 28.5962 8.39152C29.8152 9.61051 30.5 11.2638 30.5 12.9877V15.4877C30.5 15.7529 30.6054 16.0073 30.7929 16.1948C30.9804 16.3824 31.2348 16.4877 31.5 16.4877H32C32.5304 16.4877 33.0391 16.6984 33.4142 17.0735C33.7893 17.4486 34 17.9573 34 18.4877V29.4877Z" fill="#0A92EF"/>
</svg>
