<svg width="100" height="92" viewBox="0 0 100 92" fill="none" xmlns="http://www.w3.org/2000/svg">
<path d="M15 0.166504C6.71573 0.166504 0 6.88223 0 15.1665V55.9207C0 64.2049 6.71573 70.9207 15 70.9207H16.6667V91.8332L45.8333 70.9207H85C93.2843 70.9207 100 64.2049 100 55.9207V15.1665C100 6.88223 93.2843 0.166504 85 0.166504H15ZM50 33.6165C50 43.354 43.6292 49.9082 34.65 51.679L32.9583 48.054C37.1083 46.4915 39.7792 41.4415 39.7792 37.6665H33.3333V20.9998H50V33.6165ZM70.8333 33.6165C70.8333 43.354 64.4625 49.9082 55.4833 51.679L53.7917 48.054C57.9417 46.4915 60.6125 41.4415 60.6125 37.6665H54.1667V20.9998H70.8333V33.6165Z" fill="#0A92EF"/>
</svg>
