<svg width="35" height="48" viewBox="0 0 35 48" fill="none" xmlns="http://www.w3.org/2000/svg">
<path d="M34.888 18.5399C34.8037 18.3772 34.6763 18.2408 34.5197 18.1455C34.3631 18.0503 34.1833 17.9999 34 17.9999H19.248L22.976 1.21195C23.0268 0.986648 22.998 0.750724 22.8945 0.544243C22.7911 0.337762 22.6193 0.173453 22.4085 0.0792198C22.1977 -0.0150137 21.9607 -0.0333625 21.7378 0.0272895C21.515 0.0879414 21.32 0.223855 21.186 0.411949L1.18602 28.4119C1.07731 28.5615 1.01218 28.7382 0.997872 28.9226C0.983565 29.1069 1.02064 29.2916 1.10497 29.4561C1.18931 29.6206 1.31761 29.7586 1.47561 29.8546C1.63362 29.9506 1.81514 30.0009 2.00002 29.9999H16.752L13.024 46.7799C12.9733 47.0052 13.0021 47.2412 13.1055 47.4477C13.209 47.6541 13.3807 47.8184 13.5915 47.9127C13.8024 48.0069 14.0394 48.0253 14.2622 47.9646C14.485 47.904 14.68 47.768 14.814 47.58L34.814 19.5799C34.9208 19.4302 34.9842 19.2538 34.9973 19.0704C35.0103 18.8869 34.9725 18.7033 34.888 18.5399Z" fill="#0A92EF"/>
</svg>
