<svg width="80" height="80" viewBox="0 0 80 80" fill="none" xmlns="http://www.w3.org/2000/svg">
<path d="M40 80C62.0914 80 80 62.0914 80 40C80 17.9086 62.0914 0 40 0C17.9086 0 0 17.9086 0 40C0 62.0914 17.9086 80 40 80Z" fill="#02C562" fill-opacity="0.2"/>
<path opacity="0.4" d="M73.5002 18.1875L38.125 54.8127L38.1875 58.7502H39.8125L78.1253 27.875C77.0002 24.4376 75.4377 21.125 73.5002 18.1875Z" fill="#02C562"/>
<path d="M79.2505 16.4376L72.1879 9.43754C71.2503 8.49999 69.6878 8.49999 68.6879 9.43754L38.5002 40.6252L25.4376 27.7501C24.5 26.8126 22.9376 26.8126 21.9376 27.7501L15.6875 33.9377C14.75 34.8753 14.75 36.4377 15.6875 37.3753L36.5627 58.0627C37.1253 58.6253 37.8753 58.8127 38.6253 58.7502C39.3752 58.8127 40.1252 58.6252 40.6878 58.0627L79.2505 19.9375C80.188 18.9375 80.188 17.375 79.2505 16.4376Z" fill="#02C562"/>
<path d="M40.6878 58.0628L79.2505 19.9376C80.188 19 80.188 17.4375 79.2505 16.5L78.1255 15.4375L38.5627 54.3127L16.6876 33.0002L15.75 33.9377C14.8125 34.8753 14.8125 36.4378 15.75 37.3753L36.6252 58.0629C37.1878 58.6255 37.9378 58.8129 38.6878 58.7504C39.3752 58.8127 40.1252 58.6253 40.6878 58.0628Z" fill="#01A954"/>
</svg>
