<svg width="66" height="138" viewBox="0 0 66 138" fill="none" xmlns="http://www.w3.org/2000/svg">
<path fill-rule="evenodd" clip-rule="evenodd" d="M16 7H16.1029H16.1029C23.4928 6.99999 29.1749 6.99998 33.6998 7.41009C38.2731 7.82458 41.8603 8.67061 45 10.4833C48.9525 12.7653 52.2347 16.0475 54.5167 20C56.3294 23.1397 57.1754 26.7269 57.5899 31.3002C58 35.8251 58 41.5071 58 48.8971V48.8971V49V90V131.172L62.5858 126.586C63.3668 125.805 64.6332 125.805 65.4142 126.586C66.1953 127.367 66.1953 128.633 65.4142 129.414L57.4142 137.414C57.3605 137.468 57.3038 137.519 57.2443 137.566C57.1033 137.678 56.9468 137.772 56.7785 137.843C56.7263 137.865 56.6729 137.885 56.6185 137.903C56.486 137.946 56.3475 137.975 56.2045 137.99C56.1373 137.996 56.069 138 56 138C55.9886 138 55.9772 138 55.9659 138C55.4271 137.991 54.9402 137.769 54.5858 137.414L46.5858 129.414C45.8047 128.633 45.8047 127.367 46.5858 126.586C47.3668 125.805 48.6332 125.805 49.4142 126.586L54 131.172V90V49C54 41.4863 53.9981 35.9847 53.6062 31.6613C53.2169 27.3654 52.4552 24.4295 51.0526 22C49.1217 18.6556 46.3444 15.8783 43 13.9474C40.5705 12.5448 37.6346 11.7831 33.3387 11.3938C29.0153 11.0019 23.5137 11 16 11V7Z" fill="#0383EF"/>
<circle r="7" transform="matrix(-1 0 0 1 9 9)" stroke="#0383EF" stroke-width="4" stroke-linecap="round" stroke-linejoin="round"/>
</svg>
