<svg width="48" height="48" viewBox="0 0 48 48" fill="none" xmlns="http://www.w3.org/2000/svg">
<g clip-path="url(#clip0)">
<path d="M24 19.638V37C24 37.5304 23.7893 38.0392 23.4142 38.4142C23.0391 38.7893 22.5304 39 22 39H8C7.46957 39 6.96086 38.7893 6.58579 38.4142C6.21071 38.0392 6 37.5304 6 37V15C6 14.4696 6.21071 13.9609 6.58579 13.5858C6.96086 13.2107 7.46957 13 8 13H18.012C18.1016 12.9993 18.1893 12.9745 18.266 12.9281C18.3426 12.8817 18.4053 12.8155 18.4475 12.7365C18.4897 12.6575 18.5098 12.5685 18.5056 12.479C18.5015 12.3895 18.4733 12.3028 18.424 12.228C17.7239 11.0658 17.2692 9.77261 17.088 8.42801C17.0733 8.30925 17.0154 8.20003 16.9255 8.12112C16.8355 8.0422 16.7197 7.99911 16.6 8.00001H7C5.67392 8.00001 4.40215 8.5268 3.46447 9.46448C2.52678 10.4022 2 11.6739 2 13V43C2 43.6566 2.12933 44.3068 2.3806 44.9134C2.63188 45.5201 3.00017 46.0713 3.46447 46.5355C3.92876 46.9998 4.47995 47.3681 5.08658 47.6194C5.69321 47.8707 6.34339 48 7 48H23C23.6566 48 24.3068 47.8707 24.9134 47.6194C25.52 47.3681 26.0712 46.9998 26.5355 46.5355C26.9998 46.0713 27.3681 45.5201 27.6194 44.9134C27.8707 44.3068 28 43.6566 28 43V22.766C27.9997 22.6369 27.9496 22.513 27.86 22.42L24.86 19.292C24.7909 19.2203 24.7019 19.1709 24.6045 19.1501C24.5072 19.1292 24.4058 19.138 24.3134 19.1751C24.221 19.2123 24.1418 19.2762 24.086 19.3587C24.0301 19.4412 24.0002 19.5384 24 19.638Z" fill="#0A92EF"/>
<path d="M40.0779 0.0940284C38.9749 -0.0913375 37.8435 -0.00876331 36.7791 0.334788C35.7147 0.678339 34.7485 1.27279 33.962 2.06803L32.9999 3.03203L32.0359 2.06803C31.2459 1.27829 30.2795 0.687554 29.2164 0.344465C28.1533 0.00137559 27.0239 -0.0842464 25.9212 0.0946509C24.8185 0.273548 23.7741 0.711846 22.874 1.37345C21.9739 2.03504 21.2438 2.90101 20.7439 3.90003C20.0818 5.21998 19.8517 6.71477 20.0861 8.17277C20.3204 9.63076 21.0075 10.9781 22.0499 12.024L32.2759 22.692C32.3693 22.7897 32.4815 22.8675 32.6058 22.9207C32.7301 22.9738 32.8638 23.0012 32.9989 23.0012C33.1341 23.0012 33.2678 22.9738 33.3921 22.9207C33.5164 22.8675 33.6286 22.7897 33.7219 22.692L43.9339 12.038C44.8524 11.1206 45.4996 9.96724 45.8042 8.70528C46.1088 7.44331 46.0589 6.12174 45.6601 4.88633C45.2612 3.65092 44.5289 2.54966 43.5439 1.70403C42.5589 0.8584 41.3595 0.301248 40.0779 0.0940284Z" fill="#EFC66A"/>
</g>
<defs>
<clipPath id="clip0">
<rect width="48" height="48" fill="white"/>
</clipPath>
</defs>
</svg>
