<svg width="25" height="25" viewBox="0 0 25 25" fill="none" xmlns="http://www.w3.org/2000/svg">
<path d="M19.2709 5.20801H5.72925C4.8663 5.20801 4.16675 5.90756 4.16675 6.77051C4.16675 7.63345 4.8663 8.33301 5.72925 8.33301H19.2709C20.1339 8.33301 20.8334 7.63345 20.8334 6.77051C20.8334 5.90756 20.1339 5.20801 19.2709 5.20801Z" fill="black"/>
<path fill-rule="evenodd" clip-rule="evenodd" d="M5.72925 15.6253H19.2709C20.1339 15.6253 20.8334 16.3249 20.8334 17.1878C20.8334 18.0508 20.1339 18.7503 19.2709 18.7503H5.72925C4.8663 18.7503 4.16675 18.0508 4.16675 17.1878C4.16675 16.3249 4.8663 15.6253 5.72925 15.6253ZM5.72925 10.417H19.2709C20.1339 10.417 20.8334 11.1165 20.8334 11.9795C20.8334 12.8424 20.1339 13.542 19.2709 13.542H5.72925C4.8663 13.542 4.16675 12.8424 4.16675 11.9795C4.16675 11.1165 4.8663 10.417 5.72925 10.417Z" fill="black"/>
</svg>
